<svg width="388" height="247" viewBox="0 0 388 247" fill="none" xmlns="http://www.w3.org/2000/svg">
<line x1="55" y1="189.75" x2="388" y2="189.75" stroke="#CECECE" stroke-width="0.5"/>
<line x1="55" y1="108.75" x2="388" y2="108.75" stroke="#CECECE" stroke-width="0.5"/>
<path d="M4.74509 113.144C6.43709 113.144 7.7211 112.052 7.7211 110.48V110.456C7.7211 108.848 6.38909 108.128 4.92509 107.996L7.57709 105.116V104.264H1.93709V105.284H6.05309L3.42509 108.212L3.64109 108.92H4.24109C5.60909 108.92 6.55709 109.484 6.55709 110.504V110.528C6.55709 111.476 5.76509 112.112 4.76909 112.112C3.72509 112.112 2.94509 111.656 2.29709 110.852L1.46909 111.608C2.18909 112.508 3.26909 113.144 4.74509 113.144ZM13.1626 113.144C15.4306 113.144 16.9066 111.092 16.9066 108.632V108.608C16.9066 106.148 15.4426 104.12 13.1866 104.12C10.9306 104.12 9.45463 106.172 9.45463 108.632V108.656C9.45463 111.116 10.8946 113.144 13.1626 113.144ZM13.1866 112.1C11.6386 112.1 10.6426 110.48 10.6426 108.632V108.608C10.6426 106.748 11.6266 105.164 13.1626 105.164C14.7106 105.164 15.7066 106.772 15.7066 108.632V108.656C15.7066 110.504 14.7466 112.1 13.1866 112.1ZM22.921 113H24.049V106.184L27.097 110.672H27.145L30.205 106.16V113H31.357V104.264H30.157L27.133 108.836L24.109 104.264H22.921V113ZM33.7706 105.212H35.0306V104.036H33.7706V105.212ZM33.8426 113H34.9586V106.508H33.8426V113ZM37.2753 113H38.4033V109.304C38.4033 108.14 39.1713 107.396 40.2033 107.396C41.2593 107.396 41.8713 108.092 41.8713 109.244V113H42.9993V108.932C42.9993 107.408 42.1113 106.364 40.5633 106.364C39.4833 106.364 38.8353 106.928 38.4033 107.6V106.508H37.2753V113Z" fill="#525252"/>
<line x1="55" y1="8.75" x2="388" y2="8.75" stroke="#CECECE" stroke-width="0.5"/>
<path d="M6.5515 13.144C8.3395 13.144 9.7195 11.92 9.7195 10.216V10.192C9.7195 8.524 8.3275 7.492 6.6835 7.492C5.6035 7.492 4.8595 7.948 4.3075 8.716V8.656C4.3075 6.904 5.0875 5.164 6.7315 5.164C7.5355 5.164 8.1115 5.464 8.7475 6.004L9.3955 5.104C8.6275 4.492 7.8595 4.12 6.7915 4.12C4.4395 4.12 3.1195 6.196 3.1195 8.86V8.884C3.1195 10.66 3.5155 11.56 4.1995 12.256C4.7635 12.808 5.5555 13.144 6.5515 13.144ZM6.5515 12.136C5.3155 12.136 4.4515 11.344 4.4515 10.3V10.276C4.4515 9.34 5.2675 8.476 6.5155 8.476C7.7275 8.476 8.5435 9.232 8.5435 10.24V10.264C8.5435 11.308 7.7755 12.136 6.5515 12.136ZM15.1026 13.144C17.3706 13.144 18.8466 11.092 18.8466 8.632V8.608C18.8466 6.148 17.3826 4.12 15.1266 4.12C12.8706 4.12 11.3946 6.172 11.3946 8.632V8.656C11.3946 11.116 12.8346 13.144 15.1026 13.144ZM15.1266 12.1C13.5786 12.1 12.5826 10.48 12.5826 8.632V8.608C12.5826 6.748 13.5666 5.164 15.1026 5.164C16.6506 5.164 17.6466 6.772 17.6466 8.632V8.656C17.6466 10.504 16.6866 12.1 15.1266 12.1ZM24.861 13H25.989V6.184L29.037 10.672H29.085L32.145 6.16V13H33.297V4.264H32.097L29.073 8.836L26.049 4.264H24.861V13ZM35.7106 5.212H36.9706V4.036H35.7106V5.212ZM35.7826 13H36.8986V6.508H35.7826V13ZM39.2153 13H40.3433V9.304C40.3433 8.14 41.1113 7.396 42.1433 7.396C43.1993 7.396 43.8113 8.092 43.8113 9.244V13H44.9393V8.932C44.9393 7.408 44.0513 6.364 42.5033 6.364C41.4233 6.364 40.7753 6.928 40.3433 7.6V6.508H39.2153V13Z" fill="#525252"/>
<rect width="18" height="1.04673" rx="0.523364" transform="matrix(1 0 0 -1 350 190)" fill="#355BBC"/>
<path d="M352.041 216H352.981V210.32L355.521 214.06H355.561L358.111 210.3V216H359.071V208.72H358.071L355.551 212.53L353.031 208.72H352.041V216ZM363.573 216.12C365.213 216.12 366.423 214.83 366.423 213.3V213.28C366.423 211.74 365.223 210.47 363.593 210.47C361.953 210.47 360.743 211.77 360.743 213.3V213.32C360.743 214.85 361.933 216.12 363.573 216.12ZM363.593 215.29C362.503 215.29 361.693 214.39 361.693 213.3V213.28C361.693 212.2 362.453 211.3 363.573 211.3C364.653 211.3 365.463 212.2 365.463 213.3V213.32C365.463 214.4 364.713 215.29 363.593 215.29Z" fill="#525252"/>
<path d="M353.266 242H355.698V230.272H354.018L350.706 231.264L351.218 233.28L353.266 232.768V242ZM362.537 242.192C365.097 242.192 366.713 240.608 366.713 238.416V238.384C366.713 236.224 365.145 235.376 363.529 235.12L366.537 232.208V230.352H358.697V232.464H363.369L360.505 235.376L360.905 236.928H361.945C363.401 236.928 364.297 237.488 364.297 238.48V238.512C364.297 239.408 363.577 240 362.569 240C361.369 240 360.521 239.488 359.721 238.576L358.025 240.176C359.017 241.36 360.457 242.192 362.537 242.192Z" fill="#525252"/>
<path d="M308 49C308 46.2386 310.239 44 313 44H321C323.761 44 326 46.2386 326 49V190H308V49Z" fill="#355BBC"/>
<path d="M313.738 216.1C315.208 216.1 316.258 215.29 316.258 214.01V213.99C316.258 212.84 315.498 212.27 313.898 211.91C312.358 211.57 311.998 211.23 311.998 210.57V210.55C311.998 209.96 312.548 209.48 313.438 209.48C314.168 209.48 314.828 209.72 315.498 210.26L316.038 209.52C315.298 208.92 314.518 208.62 313.458 208.62C312.058 208.62 311.038 209.46 311.038 210.64V210.66C311.038 211.9 311.838 212.42 313.478 212.78C314.958 213.11 315.298 213.46 315.298 214.08V214.1C315.298 214.77 314.688 215.24 313.768 215.24C312.798 215.24 312.078 214.9 311.338 214.24L310.748 214.94C311.618 215.72 312.598 216.1 313.738 216.1ZM320.386 216.12C322.026 216.12 323.236 214.83 323.236 213.3V213.28C323.236 211.74 322.036 210.47 320.406 210.47C318.766 210.47 317.556 211.77 317.556 213.3V213.32C317.556 214.85 318.746 216.12 320.386 216.12ZM320.406 215.29C319.316 215.29 318.506 214.39 318.506 213.3V213.28C318.506 212.2 319.266 211.3 320.386 211.3C321.466 211.3 322.276 212.2 322.276 213.3V213.32C322.276 214.4 321.526 215.29 320.406 215.29Z" fill="#525252"/>
<path d="M311.258 242H313.69V230.272H312.01L308.698 231.264L309.21 233.28L311.258 232.768V242ZM316.177 242H324.753V239.872H319.585L321.585 238.304C323.649 236.688 324.641 235.712 324.641 233.792V233.76C324.641 231.6 323.041 230.192 320.657 230.192C318.577 230.192 317.473 231.04 316.337 232.608L318.065 233.984C318.929 232.912 319.569 232.384 320.497 232.384C321.441 232.384 322.129 232.944 322.129 233.968C322.129 234.944 321.553 235.6 320.081 236.832L316.177 240.048V242Z" fill="#525252"/>
<path d="M266 146.85C266 144.089 268.239 141.85 271 141.85H279C281.761 141.85 284 144.089 284 146.85V190H266V146.85Z" fill="#355BBC"/>
<path d="M272.094 216.1C273.564 216.1 274.614 215.29 274.614 214.01V213.99C274.614 212.84 273.854 212.27 272.254 211.91C270.714 211.57 270.354 211.23 270.354 210.57V210.55C270.354 209.96 270.904 209.48 271.794 209.48C272.524 209.48 273.184 209.72 273.854 210.26L274.394 209.52C273.654 208.92 272.874 208.62 271.814 208.62C270.414 208.62 269.394 209.46 269.394 210.64V210.66C269.394 211.9 270.194 212.42 271.834 212.78C273.314 213.11 273.654 213.46 273.654 214.08V214.1C273.654 214.77 273.044 215.24 272.124 215.24C271.154 215.24 270.434 214.9 269.694 214.24L269.104 214.94C269.974 215.72 270.954 216.1 272.094 216.1ZM277.833 216.12C278.753 216.12 279.353 215.7 279.723 215.23V216H280.633V212.72C280.633 212.03 280.453 211.49 280.073 211.11C279.683 210.72 279.093 210.51 278.313 210.51C277.503 210.51 276.913 210.7 276.323 210.97L276.593 211.72C277.083 211.49 277.573 211.34 278.203 211.34C279.173 211.34 279.733 211.82 279.733 212.72V212.9C279.263 212.76 278.803 212.67 278.133 212.67C276.783 212.67 275.843 213.27 275.843 214.42V214.44C275.843 215.54 276.823 216.12 277.833 216.12ZM278.043 215.39C277.353 215.39 276.773 215.02 276.773 214.39V214.37C276.773 213.73 277.313 213.32 278.263 213.32C278.873 213.32 279.373 213.43 279.743 213.55V214.02C279.743 214.83 278.993 215.39 278.043 215.39Z" fill="#525252"/>
<path d="M270.962 242H273.394V230.272H271.714L268.402 231.264L268.914 233.28L270.962 232.768V242ZM278.024 242H280.456V230.272H278.776L275.464 231.264L275.976 233.28L278.024 232.768V242Z" fill="#525252"/>
<path d="M223 111.262C223 108.5 225.239 106.262 228 106.262H236C238.761 106.262 241 108.5 241 111.262V190H223V111.262Z" fill="#355BBC"/>
<path d="M227.41 216H228.37V212.89H232.23V212.01H228.37V209.6H232.7V208.72H227.41V216ZM234.224 216H235.164V213.87C235.164 212.3 236.064 211.49 237.224 211.49H237.284V210.5C236.284 210.45 235.544 211.07 235.164 211.94V210.59H234.224V216Z" fill="#525252"/>
<path d="M225.368 242H227.8V230.272H226.12L222.808 231.264L223.32 233.28L225.368 232.768V242ZM235.518 242.192C238.622 242.192 240.686 239.536 240.686 236.176V236.144C240.686 232.768 238.622 230.16 235.55 230.16C232.462 230.16 230.382 232.816 230.382 236.176V236.208C230.382 239.584 232.414 242.192 235.518 242.192ZM235.55 239.984C233.95 239.984 232.91 238.336 232.91 236.176V236.144C232.91 233.984 233.934 232.368 235.518 232.368C237.102 232.368 238.158 234.032 238.158 236.176V236.208C238.158 238.352 237.15 239.984 235.55 239.984Z" fill="#525252"/>
<path d="M180 167.785C180 165.024 182.239 162.785 185 162.785H193C195.761 162.785 198 165.024 198 167.785V190H180V167.785Z" fill="#355BBC"/>
<path d="M182.491 216H185.081C187.371 216 188.951 214.41 188.951 212.36V212.34C188.951 210.29 187.371 208.72 185.081 208.72H182.491V216ZM185.081 209.6C186.821 209.6 187.941 210.81 187.941 212.36V212.38C187.941 213.94 186.821 215.12 185.081 215.12H183.451V209.6H185.081ZM193.123 216.12C194.763 216.12 195.973 214.83 195.973 213.3V213.28C195.973 211.74 194.773 210.47 193.143 210.47C191.503 210.47 190.293 211.77 190.293 213.3V213.32C190.293 214.85 191.483 216.12 193.123 216.12ZM193.143 215.29C192.053 215.29 191.243 214.39 191.243 213.3V213.28C191.243 212.2 192.003 211.3 193.123 211.3C194.203 211.3 195.013 212.2 195.013 213.3V213.32C195.013 214.4 194.263 215.29 193.143 215.29Z" fill="#525252"/>
<path d="M188.574 239.968C187.598 239.968 186.862 239.632 186.014 238.944L184.718 240.816C185.694 241.632 186.83 242.192 188.526 242.192C191.79 242.192 193.582 239.616 193.582 235.84V235.808C193.582 233.52 193.038 232.24 192.206 231.408C191.326 230.544 190.414 230.16 188.862 230.16C186.254 230.16 184.446 231.888 184.446 234.224V234.256C184.446 236.592 186.078 238 188.59 238C189.63 238 190.446 237.664 191.022 237.104H191.038C190.974 238.176 190.43 239.968 188.574 239.968ZM188.99 235.952C187.694 235.952 186.894 235.216 186.894 234.144V234.112C186.894 233.04 187.63 232.256 188.942 232.256C190.254 232.256 191.054 233.04 191.054 234.112V234.144C191.054 235.168 190.302 235.952 188.99 235.952Z" fill="#525252"/>
<path d="M138 95.5608C138 92.7994 140.239 90.5608 143 90.5608H151C153.761 90.5608 156 92.7994 156 95.5608V190H138V95.5608Z" fill="#355BBC"/>
<path d="M142.014 216H142.954V210.32L145.494 214.06H145.534L148.084 210.3V216H149.044V208.72H148.044L145.524 212.53L143.004 208.72H142.014V216ZM151.055 209.51H152.105V208.53H151.055V209.51ZM151.115 216H152.045V210.59H151.115V216Z" fill="#525252"/>
<path d="M147.007 242.16C149.567 242.16 151.487 240.896 151.487 238.752V238.72C151.487 237.328 150.767 236.576 149.567 235.968C150.479 235.424 151.087 234.656 151.087 233.408V233.376C151.087 231.568 149.439 230.192 147.007 230.192C144.559 230.192 142.911 231.584 142.911 233.376V233.408C142.911 234.656 143.519 235.424 144.447 235.968C143.199 236.528 142.511 237.36 142.511 238.784V238.816C142.511 240.832 144.431 242.16 147.007 242.16ZM147.007 235.136C145.951 235.136 145.247 234.512 145.247 233.648V233.616C145.247 232.864 145.919 232.224 147.007 232.224C148.095 232.224 148.751 232.88 148.751 233.632V233.664C148.751 234.528 148.047 235.136 147.007 235.136ZM147.007 240.128C145.679 240.128 144.895 239.456 144.895 238.624V238.592C144.895 237.664 145.791 237.104 147.007 237.104C148.207 237.104 149.103 237.664 149.103 238.592V238.624C149.103 239.472 148.319 240.128 147.007 240.128Z" fill="#525252"/>
<path d="M97 134.29C97 131.528 99.2386 129.29 102 129.29H110C112.761 129.29 115 131.528 115 134.29V190H97V134.29Z" fill="#355BBC"/>
<path d="M101.463 216H104.053C106.343 216 107.923 214.41 107.923 212.36V212.34C107.923 210.29 106.343 208.72 104.053 208.72H101.463V216ZM104.053 209.6C105.793 209.6 106.913 210.81 106.913 212.36V212.38C106.913 213.94 105.793 215.12 104.053 215.12H102.423V209.6H104.053ZM109.606 209.51H110.656V208.53H109.606V209.51ZM109.666 216H110.596V210.59H109.666V216Z" fill="#525252"/>
<path d="M102.833 242H105.617L110.833 232.208V230.352H102.497V232.48H108.049L102.833 242Z" fill="#525252"/>
<path d="M55 186.626C55 183.865 57.2386 181.626 60 181.626H68C70.7614 181.626 73 183.865 73 186.626V190H55V186.626Z" fill="#355BBC"/>
<path d="M57.0414 216H57.9814V210.32L60.5214 214.06H60.5614L63.1114 210.3V216H64.0714V208.72H63.0714L60.5514 212.53L58.0314 208.72H57.0414V216ZM68.5727 216.12C70.2127 216.12 71.4227 214.83 71.4227 213.3V213.28C71.4227 211.74 70.2227 210.47 68.5927 210.47C66.9527 210.47 65.7427 211.77 65.7427 213.3V213.32C65.7427 214.85 66.9327 216.12 68.5727 216.12ZM68.5927 215.29C67.5027 215.29 66.6927 214.39 66.6927 213.3V213.28C66.6927 212.2 67.4527 211.3 68.5727 211.3C69.6527 211.3 70.4627 212.2 70.4627 213.3V213.32C70.4627 214.4 69.7127 215.29 68.5927 215.29Z" fill="#525252"/>
<path d="M64.1335 242.192C66.6455 242.192 68.5495 240.56 68.5495 238.192V238.144C68.5495 235.744 66.7735 234.448 64.4695 234.448C63.3815 234.448 62.5975 234.816 61.9895 235.312H61.9735C62.0535 234.192 62.5815 232.384 64.4215 232.384C65.4135 232.384 66.0535 232.736 66.8215 233.344L68.1175 231.44C67.0935 230.624 66.0695 230.16 64.5015 230.16C61.0615 230.16 59.4135 232.912 59.4135 236.512V236.544C59.4135 238.864 59.9415 240.096 60.7895 240.96C61.6055 241.76 62.6455 242.192 64.1335 242.192ZM64.0375 240.096C62.7415 240.096 61.9415 239.312 61.9415 238.288V238.256C61.9415 237.248 62.7095 236.496 64.0055 236.496C65.3175 236.496 66.1015 237.248 66.1015 238.256V238.304C66.1015 239.328 65.3495 240.096 64.0375 240.096Z" fill="#525252"/>
</svg>
