<svg width="40" height="40" viewBox="0 0 40 40" fill="none" xmlns="http://www.w3.org/2000/svg">
<path d="M19.25 36.5C19.25 36.9142 19.5858 37.25 20 37.25C20.4142 37.25 20.75 36.9142 20.75 36.5H19.25ZM14.5 24L15.1708 23.6646L15.1499 23.6228L15.124 23.584L14.5 24ZM18 15H18.75V14.9585L18.7454 14.9172L18 15ZM17.5 10.5L18.2454 10.4172L18.2432 10.3969L18.2398 10.3767L17.5 10.5ZM20 11L20.7443 10.907L20.7425 10.8939L20 11ZM28.5 30L29.1708 30.3354L29.1848 30.3075L29.1964 30.2785L28.5 30ZM26.5521 35C26.5521 35.4142 26.8879 35.75 27.3021 35.75C27.7163 35.75 28.0521 35.4142 28.0521 35H26.5521ZM27.3281 33.8882L28.0586 34.0581L27.3281 33.8882ZM27.9732 31.115L28.7037 31.285L27.9732 31.115ZM29.3944 18.7889L28.7236 19.1243L29.3944 18.7889ZM29.2764 18.5528L28.6056 18.8882L29.2764 18.5528ZM27.2071 17.7071L26.6768 18.2374L27.2071 17.7071ZM26.7929 17.2929L27.3232 16.7626L26.7929 17.2929ZM25.2889 17.1056L25.6243 17.7764L25.2889 17.1056ZM21.1838 16.8675L21.8546 16.5321L21.1838 16.8675ZM20.4877 14.9017L21.2319 14.8087L20.4877 14.9017ZM20.5313 15.0939L19.8198 15.3311L20.5313 15.0939ZM19.5471 7.82998L18.8047 7.93605L19.5471 7.82998ZM17.2322 7.03552L17.9031 7.37093L17.2322 7.03552ZM17.0535 7.82076L16.3137 7.94406L17.0535 7.82076ZM17.5282 21.8307L18.268 21.954L17.5282 21.8307ZM16.6213 22.1213L17.1517 21.591L16.6213 22.1213ZM14.863 19.8972L14.413 20.4972L14.863 19.8972ZM15.095 20.1425L15.7191 19.7265L15.095 20.1425ZM12.846 18.4487L12.6089 19.1602L12.846 18.4487ZM11.1295 18.1852L10.7941 17.5144L11.1295 18.1852ZM11.893 18.131L12.1301 17.4195L11.893 18.131ZM10.9944 18.2528L10.659 17.582L10.9944 18.2528ZM10.8578 19.7683L10.4078 20.3683L10.8578 19.7683ZM15.721 26.1473L15.3049 26.7713L15.721 26.1473ZM15.3812 25.7625L16.0521 25.4271L15.3812 25.7625ZM17.07 27.07L16.5397 27.6003L17.07 27.07ZM16.9176 26.9451L16.5016 27.5691L16.9176 26.9451ZM25.1447 17.1777L25.4801 17.8485L25.1447 17.1777ZM12.595 21.1425L13.2191 20.7265L12.595 21.1425ZM12.363 20.8972L11.913 21.4972L12.363 20.8972ZM15.9451 21.4176L15.321 21.8336L15.9451 21.4176ZM16.07 21.57L15.5397 22.1003L16.07 21.57ZM20.9828 16.4483L21.6943 16.2111L20.9828 16.4483ZM21.0244 16.5487L20.3535 16.8841L21.0244 16.5487ZM20.75 36.5V31.5H19.25V36.5H20.75ZM20.75 31.5V30.4142H19.25V31.5H20.75ZM20.2374 29.1768L19.0303 27.9697L17.9697 29.0303L19.1768 30.2374L20.2374 29.1768ZM19.0303 27.9697L17.6003 26.5397L16.5397 27.6003L17.9697 29.0303L19.0303 27.9697ZM17.3336 26.321L16.137 25.5233L15.3049 26.7713L16.5016 27.5691L17.3336 26.321ZM16.0521 25.4271L15.1708 23.6646L13.8292 24.3354L14.7104 26.0979L16.0521 25.4271ZM15.124 23.584L13.2191 20.7265L11.971 21.5585L13.876 24.416L15.124 23.584ZM12.813 20.2972L11.3078 19.1683L10.4078 20.3683L11.913 21.4972L12.813 20.2972ZM11.3298 18.9236L11.4649 18.8561L10.7941 17.5144L10.659 17.582L11.3298 18.9236ZM11.6558 18.8425L12.6089 19.1602L13.0832 17.7372L12.1301 17.4195L11.6558 18.8425ZM12.6798 19.1974L14.413 20.4972L15.313 19.2972L13.5798 17.9974L12.6798 19.1974ZM14.471 20.5585L15.321 21.8336L16.5691 21.0016L15.7191 19.7265L14.471 20.5585ZM15.5397 22.1003L16.091 22.6517L17.1517 21.591L16.6003 21.0397L15.5397 22.1003ZM18.268 21.954L18.7262 19.2049L17.2466 18.9583L16.7884 21.7074L18.268 21.954ZM18.75 18.9172V15H17.25V18.9172H18.75ZM18.7454 14.9172L18.2454 10.4172L16.7546 10.5828L17.2546 15.0828L18.7454 14.9172ZM18.2398 10.3767L17.7933 7.69746L16.3137 7.94406L16.7602 10.6233L18.2398 10.3767ZM17.8162 7.54456L17.9031 7.37093L16.5614 6.70011L16.4746 6.87374L17.8162 7.54456ZM18.2534 7.31407L18.734 7.79463L19.7946 6.73397L19.3141 6.25341L18.2534 7.31407ZM18.8047 7.93605L19.2575 11.1061L20.7425 10.8939L20.2896 7.72392L18.8047 7.93605ZM19.2558 11.093L19.7435 14.9948L21.2319 14.8087L20.7442 10.907L19.2558 11.093ZM19.8198 15.3311L20.2713 16.6855L21.6943 16.2111L21.2428 14.8568L19.8198 15.3311ZM20.3535 16.8841L20.513 17.203L21.8546 16.5321L21.6952 16.2133L20.3535 16.8841ZM22.5303 17.5303L22.7374 17.3232L21.6768 16.2626L21.4697 16.4697L22.5303 17.5303ZM23.2626 17.3232L23.46 17.5207L24.5207 16.46L24.3232 16.2626L23.2626 17.3232ZM25.4801 17.8485L25.6243 17.7764L24.9534 16.4348L24.8093 16.5068L25.4801 17.8485ZM25.7361 17.75H26.0858V16.25H25.7361V17.75ZM26.2626 17.8232L26.4697 18.0303L27.5303 16.9697L27.3232 16.7626L26.2626 17.8232ZM26.4697 18.0303L26.6768 18.2374L27.7374 17.1768L27.5303 16.9697L26.4697 18.0303ZM27.9142 18.75H28.382V17.25H27.9142V18.75ZM28.6056 18.8882L28.7236 19.1243L30.0652 18.4534L29.9472 18.2174L28.6056 18.8882ZM28.75 19.2361V26H30.25V19.2361H28.75ZM28.75 26V27.3074H30.25V26H28.75ZM28.7321 27.4003L27.8036 29.7215L29.1964 30.2785L30.1248 27.9574L28.7321 27.4003ZM27.8292 29.6646L27.382 30.559L28.7236 31.2298L29.1708 30.3354L27.8292 29.6646ZM27.2428 30.9451L26.5976 33.7183L28.0586 34.0581L28.7037 31.285L27.2428 30.9451ZM26.5521 34.1148V35H28.0521V34.1148H26.5521ZM22.9142 17.25H23.0858V15.75H22.9142V17.25ZM26.5976 33.7183C26.5674 33.8483 26.5521 33.9813 26.5521 34.1148H28.0521C28.0521 34.0957 28.0543 34.0767 28.0586 34.0581L26.5976 33.7183ZM27.382 30.559C27.3206 30.6818 27.2739 30.8114 27.2428 30.9451L28.7037 31.285C28.7082 31.2659 28.7149 31.2473 28.7236 31.2298L27.382 30.559ZM28.75 27.3074C28.75 27.3392 28.7439 27.3707 28.7321 27.4003L30.1248 27.9574C30.2075 27.7506 30.25 27.5301 30.25 27.3074H28.75ZM28.7236 19.1243C28.741 19.159 28.75 19.1973 28.75 19.2361H30.25C30.25 18.9644 30.1867 18.6964 30.0652 18.4534L28.7236 19.1243ZM28.382 18.75C28.4767 18.75 28.5632 18.8035 28.6056 18.8882L29.9472 18.2174C29.6508 17.6245 29.0448 17.25 28.382 17.25V18.75ZM26.6768 18.2374C27.005 18.5656 27.4501 18.75 27.9142 18.75V17.25C27.8479 17.25 27.7843 17.2237 27.7374 17.1768L26.6768 18.2374ZM26.0858 17.75C26.1521 17.75 26.2157 17.7763 26.2626 17.8232L27.3232 16.7626C26.995 16.4344 26.5499 16.25 26.0858 16.25V17.75ZM25.6243 17.7764C25.659 17.759 25.6973 17.75 25.7361 17.75V16.25C25.4644 16.25 25.1964 16.3133 24.9534 16.4348L25.6243 17.7764ZM24.3232 16.2626C23.995 15.9344 23.5499 15.75 23.0858 15.75V17.25C23.1521 17.25 23.2157 17.2763 23.2626 17.3232L24.3232 16.2626ZM20.513 17.203C20.8975 17.972 21.9224 18.1383 22.5303 17.5303L21.4697 16.4697C21.5857 16.3537 21.7812 16.3854 21.8546 16.5321L20.513 17.203ZM19.7435 14.9948C19.7578 15.1091 19.7834 15.2218 19.8198 15.3311L21.2428 14.8568C21.2376 14.8411 21.234 14.8251 21.2319 14.8087L19.7435 14.9948ZM18.734 7.79463C18.7722 7.83288 18.797 7.8825 18.8047 7.93605L20.2896 7.72392C20.2361 7.34908 20.0624 7.00171 19.7946 6.73397L18.734 7.79463ZM18.0987 7.25C18.1567 7.25 18.2124 7.27305 18.2534 7.31407L19.3141 6.25341C18.9917 5.93108 18.5546 5.75 18.0987 5.75V7.25ZM17.9031 7.37093C17.9401 7.29682 18.0159 7.25 18.0987 7.25V5.75C17.4477 5.75 16.8526 6.11782 16.5614 6.70011L17.9031 7.37093ZM17.7933 7.69746C17.7846 7.64534 17.7926 7.59181 17.8162 7.54456L16.4746 6.87374C16.3092 7.20454 16.2529 7.57924 16.3137 7.94406L17.7933 7.69746ZM18.7262 19.2049C18.742 19.1099 18.75 19.0136 18.75 18.9172H17.25C17.25 18.931 17.2489 18.9448 17.2466 18.9583L18.7262 19.2049ZM17.909 22.6517C18.0984 22.4622 18.224 22.2183 18.268 21.954L16.7884 21.7074C16.7958 21.6633 16.8167 21.6226 16.8483 21.591L17.909 22.6517ZM16.091 22.6517C16.593 23.1537 17.407 23.1537 17.909 22.6517L16.8483 21.591C16.9321 21.5072 17.0679 21.5072 17.1517 21.591L16.091 22.6517ZM14.413 20.4972C14.4356 20.5142 14.4553 20.535 14.471 20.5585L15.7191 19.7265C15.609 19.5614 15.4717 19.4163 15.313 19.2972L14.413 20.4972ZM12.6089 19.1602C12.6344 19.1687 12.6583 19.1812 12.6798 19.1974L13.5798 17.9974C13.4293 17.8845 13.2617 17.7967 13.0832 17.7372L12.6089 19.1602ZM11.4649 18.8561C11.5242 18.8264 11.5929 18.8215 11.6558 18.8425L12.1301 17.4195C11.6898 17.2727 11.2092 17.3069 10.7941 17.5144L11.4649 18.8561ZM11.25 19.0528C11.25 18.9981 11.2809 18.9481 11.3298 18.9236L10.659 17.582C10.1019 17.8605 9.75 18.4299 9.75 19.0528H11.25ZM11.3078 19.1683C11.2714 19.1411 11.25 19.0982 11.25 19.0528H9.75C9.75 19.5704 9.99369 20.0578 10.4078 20.3683L11.3078 19.1683ZM22.7374 17.3232C22.7843 17.2763 22.8479 17.25 22.9142 17.25V15.75C22.4501 15.75 22.005 15.9344 21.6768 16.2626L22.7374 17.3232ZM16.137 25.5233C16.1008 25.4991 16.0715 25.466 16.0521 25.4271L14.7104 26.0979C14.8466 26.3703 15.0515 26.6024 15.3049 26.7713L16.137 25.5233ZM17.6003 26.5397C17.5189 26.4582 17.4295 26.385 17.3336 26.321L16.5016 27.5691C16.5153 27.5782 16.528 27.5887 16.5397 27.6003L17.6003 26.5397ZM23.46 17.5207C23.9926 18.0533 24.8063 18.1854 25.4801 17.8485L24.8093 16.5068C24.713 16.555 24.5968 16.5361 24.5207 16.46L23.46 17.5207ZM13.2191 20.7265C13.109 20.5614 12.9717 20.4163 12.813 20.2972L11.913 21.4972C11.9356 21.5142 11.9553 21.535 11.971 21.5585L13.2191 20.7265ZM15.321 21.8336C15.385 21.9295 15.4582 22.0189 15.5397 22.1003L16.6003 21.0397C16.5887 21.028 16.5782 21.0153 16.5691 21.0016L15.321 21.8336ZM20.2713 16.6855C20.294 16.7536 20.3215 16.82 20.3535 16.8841L21.6952 16.2133C21.6948 16.2126 21.6945 16.2119 21.6943 16.2111L20.2713 16.6855ZM20.75 30.4142C20.75 29.9501 20.5656 29.505 20.2374 29.1768L19.1768 30.2374C19.2237 30.2843 19.25 30.3479 19.25 30.4142H20.75Z" fill="black"/>
<path d="M24.0211 33.8563C23.9417 34.1208 24.0918 34.3996 24.3563 34.4789C24.6208 34.5583 24.8996 34.4082 24.9789 34.1437L24.0211 33.8563ZM26.8944 27.2111L26.4472 26.9875L26.8944 27.2111ZM25.9752 29.0827L25.4963 28.939L25.9752 29.0827ZM26.0386 28.9228L25.5914 28.6992L26.0386 28.9228ZM24.9789 34.1437L26.4541 29.2263L25.4963 28.939L24.0211 33.8563L24.9789 34.1437ZM26.4858 29.1464L27.3416 27.4348L26.4472 26.9875L25.5914 28.6992L26.4858 29.1464ZM27.5 26.7639V17.5H26.5V26.7639H27.5ZM27.3416 27.4348C27.4458 27.2265 27.5 26.9968 27.5 26.7639H26.5C26.5 26.8416 26.4819 26.9181 26.4472 26.9875L27.3416 27.4348ZM26.4541 29.2263C26.4624 29.1988 26.473 29.1721 26.4858 29.1464L25.5914 28.6992C25.5529 28.7762 25.521 28.8565 25.4963 28.939L26.4541 29.2263Z" fill="black"/>
</svg>
