<svg width="40" height="40" viewBox="0 0 40 40" fill="none" xmlns="http://www.w3.org/2000/svg">
<path d="M6.06228 18.7526C5.6495 18.7182 5.28699 19.0249 5.25259 19.4377C5.21819 19.8505 5.52493 20.213 5.93772 20.2474L6.06228 18.7526ZM23.5 8.5L22.9697 7.96967L23.5 8.5ZM26.5 10L25.8292 9.66459L26.5 10ZM25 32.5L25.1471 33.2354L25.1646 33.2319L25.1819 33.2276L25 32.5ZM22.5 33L22.6233 33.7398L22.6352 33.7378L22.6471 33.7354L22.5 33ZM7 30.25C6.58579 30.25 6.25 30.5858 6.25 31C6.25 31.4142 6.58579 31.75 7 31.75V30.25ZM12.1788 31.0715L12.4574 30.3752L12.1788 31.0715ZM17.09 33.018L17.2371 32.2826L17.09 33.018ZM16.9148 32.9659L17.1933 32.2695L16.9148 32.9659ZM19.6808 33.4699L19.5575 32.7301L19.6808 33.4699ZM19.3203 33.4641L19.4674 32.7286L19.3203 33.4641ZM26.5538 32.1116L26.3719 31.3839L26.5538 32.1116ZM28.1056 25.7889L28.7764 26.1243L28.1056 25.7889ZM28.8944 24.2111L28.2236 23.8757L28.8944 24.2111ZM28.8944 22.2889L28.2236 22.6243L28.8944 22.2889ZM28.7236 21.0528L29.3944 21.3882L28.7236 21.0528ZM29.0266 20.3935L29.7542 20.5754L29.0266 20.3935ZM28.9509 20.5982L28.2801 20.2628L28.9509 20.5982ZM29.4079 18.2237L28.6964 18.4609L29.4079 18.2237ZM29.4294 18.7825L28.7018 18.6006L29.4294 18.7825ZM29.1835 17.5505L29.895 17.3134L29.1835 17.5505ZM23.3891 14.1664L24.0131 14.5824L23.3891 14.1664ZM25.1188 12.7625L25.7896 13.0979L25.1188 12.7625ZM24.779 13.1473L24.363 12.5233L24.779 13.1473ZM27.3944 8.21115L28.0652 8.54656L27.3944 8.21115ZM27.3944 31.2111L28.0652 31.5466L27.3944 31.2111ZM20.4327 11.5481L19.9967 10.9378L20.4327 11.5481ZM16.893 14.1783L17.5361 14.5642L16.893 14.1783ZM17.1692 13.8791L16.7333 13.2688L17.1692 13.8791ZM23.2071 16.2071L23.7374 15.6768L23.2071 16.2071ZM27.6056 28.7889L26.9348 28.4534L27.6056 28.7889ZM15.5633 16.3944L14.9202 16.0086L15.5633 16.3944ZM25.7071 6.29289L26.2374 6.82322L25.7071 6.29289ZM22.9547 14.8179L22.3307 14.4019L22.9547 14.8179ZM27.8944 28.2111L28.5652 28.5466L27.8944 28.2111ZM11.5378 19.9615L11.4755 20.7089L11.5378 19.9615ZM12.328 19.672L12.8583 20.2024L12.328 19.672ZM5.93772 20.2474L11.4755 20.7089L11.6001 19.2141L6.06228 18.7526L5.93772 20.2474ZM12.8583 20.2024L15.9433 17.1174L14.8826 16.0567L11.7976 19.1417L12.8583 20.2024ZM16.2065 16.7803L17.5361 14.5642L16.2499 13.7925L14.9202 16.0086L16.2065 16.7803ZM17.6052 14.4894L20.8686 12.1584L19.9967 10.9378L16.7333 13.2688L17.6052 14.4894ZM21.0889 11.9718L24.0303 9.03033L22.9697 7.96967L20.0282 10.9111L21.0889 11.9718ZM24.0303 9.03033L26.2374 6.82322L25.1768 5.76256L22.9697 7.96967L24.0303 9.03033ZM26.4142 6.75H26.5V5.25H26.4142V6.75ZM26.75 7V7.76393H28.25V7H26.75ZM26.7236 7.87574L25.8292 9.66459L27.1708 10.3354L28.0652 8.54656L26.7236 7.87574ZM25.8292 9.66459L24.4479 12.4271L25.7896 13.0979L27.1708 10.3354L25.8292 9.66459ZM24.363 12.5233L23.2504 13.265L24.0824 14.5131L25.1951 13.7713L24.363 12.5233ZM22.765 13.7504L22.3307 14.4019L23.5788 15.2339L24.0131 14.5824L22.765 13.7504ZM22.5494 16.61L22.6768 16.7374L23.7374 15.6768L23.61 15.5494L22.5494 16.61ZM23.9142 17.25H26.401V15.75H23.9142V17.25ZM26.45 17.2549L28.2839 17.6216L28.578 16.1508L26.7442 15.784L26.45 17.2549ZM28.472 17.7877L28.6964 18.4609L30.1194 17.9866L29.895 17.3134L28.472 17.7877ZM28.7018 18.6006L28.299 20.2116L29.7542 20.5754L30.157 18.9644L28.7018 18.6006ZM28.2801 20.2628L28.0528 20.7174L29.3944 21.3882L29.6217 20.9336L28.2801 20.2628ZM28.0528 22.2826L28.2236 22.6243L29.5652 21.9534L29.3944 21.6118L28.0528 22.2826ZM28.25 22.7361V23.7639H29.75V22.7361H28.25ZM28.2236 23.8757L27.8292 24.6646L29.1708 25.3354L29.5652 24.5466L28.2236 23.8757ZM27.8292 24.6646L27.4348 25.4534L28.7764 26.1243L29.1708 25.3354L27.8292 24.6646ZM27.25 26.2361V27H28.75V26.2361H27.25ZM27.25 27V27.7639H28.75V27H27.25ZM27.2236 27.8757L26.9348 28.4534L28.2764 29.1243L28.5652 28.5466L27.2236 27.8757ZM26.75 29.2361V30H28.25V29.2361H26.75ZM26.75 30V30.7639H28.25V30H26.75ZM26.7236 30.8757L26.5349 31.2532L27.8765 31.924L28.0652 31.5466L26.7236 30.8757ZM26.3719 31.3839L24.8181 31.7724L25.1819 33.2276L26.7357 32.8392L26.3719 31.3839ZM24.8529 31.7646L22.3529 32.2646L22.6471 33.7354L25.1471 33.2354L24.8529 31.7646ZM22.3767 32.2602L19.5575 32.7301L19.8041 34.2097L22.6233 33.7398L22.3767 32.2602ZM19.4674 32.7286L17.2371 32.2826L16.9429 33.7534L19.1732 34.1995L19.4674 32.7286ZM17.1933 32.2695L14.7785 31.3036L14.2215 32.6964L16.6362 33.6623L17.1933 32.2695ZM14.7785 31.3036L12.4574 30.3752L11.9003 31.7679L14.2215 32.6964L14.7785 31.3036ZM11.8074 30.25H8V31.75H11.8074V30.25ZM8 30.25H7V31.75H8V30.25ZM12.4574 30.3752C12.2506 30.2925 12.0301 30.25 11.8074 30.25V31.75C11.8392 31.75 11.8707 31.7561 11.9003 31.7679L12.4574 30.3752ZM17.2371 32.2826C17.2221 32.2796 17.2075 32.2752 17.1933 32.2695L16.6362 33.6623C16.7355 33.702 16.8381 33.7325 16.9429 33.7534L17.2371 32.2826ZM19.5575 32.7301C19.5276 32.7351 19.4971 32.7346 19.4674 32.7286L19.1732 34.1995C19.3811 34.2411 19.5949 34.2445 19.8041 34.2097L19.5575 32.7301ZM26.5349 31.2532C26.5022 31.3185 26.4427 31.3662 26.3719 31.3839L26.7357 32.8392C27.2313 32.7153 27.648 32.381 27.8765 31.924L26.5349 31.2532ZM27.4348 25.4534C27.3133 25.6964 27.25 25.9644 27.25 26.2361H28.75C28.75 26.1973 28.759 26.159 28.7764 26.1243L27.4348 25.4534ZM28.25 23.7639C28.25 23.8027 28.241 23.841 28.2236 23.8757L29.5652 24.5466C29.6867 24.3036 29.75 24.0356 29.75 23.7639H28.25ZM28.2236 22.6243C28.241 22.659 28.25 22.6973 28.25 22.7361H29.75C29.75 22.4644 29.6867 22.1964 29.5652 21.9534L28.2236 22.6243ZM28.0528 20.7174C27.8064 21.21 27.8064 21.79 28.0528 22.2826L29.3944 21.6118C29.3592 21.5414 29.3592 21.4586 29.3944 21.3882L28.0528 20.7174ZM28.299 20.2116C28.2946 20.2293 28.2882 20.2465 28.2801 20.2628L29.6217 20.9336C29.6788 20.8194 29.7233 20.6993 29.7542 20.5754L28.299 20.2116ZM28.6964 18.4609C28.7114 18.506 28.7133 18.5545 28.7018 18.6006L30.157 18.9644C30.2377 18.6415 30.2247 18.3023 30.1194 17.9866L28.6964 18.4609ZM28.2839 17.6216C28.3718 17.6392 28.4436 17.7026 28.472 17.7877L29.895 17.3134C29.6964 16.7176 29.1938 16.2739 28.578 16.1508L28.2839 17.6216ZM26.401 17.25C26.4174 17.25 26.4339 17.2516 26.45 17.2549L26.7442 15.784C26.6312 15.7614 26.5162 15.75 26.401 15.75V17.25ZM23.2504 13.265C23.0581 13.3932 22.8932 13.5581 22.765 13.7504L24.0131 14.5824C24.0314 14.555 24.055 14.5314 24.0824 14.5131L23.2504 13.265ZM24.4479 12.4271C24.4285 12.466 24.3992 12.4991 24.363 12.5233L25.1951 13.7713C25.4485 13.6024 25.6534 13.3703 25.7896 13.0979L24.4479 12.4271ZM26.75 7.76393C26.75 7.80274 26.741 7.84102 26.7236 7.87574L28.0652 8.54656C28.1867 8.30356 28.25 8.03561 28.25 7.76393H26.75ZM26.5 6.75C26.6381 6.75 26.75 6.86193 26.75 7H28.25C28.25 6.0335 27.4665 5.25 26.5 5.25V6.75ZM26.75 30.7639C26.75 30.8027 26.741 30.841 26.7236 30.8757L28.0652 31.5466C28.1867 31.3036 28.25 31.0356 28.25 30.7639H26.75ZM20.8686 12.1584C20.947 12.1024 21.0207 12.04 21.0889 11.9718L20.0282 10.9111C20.0185 10.9209 20.0079 10.9298 19.9967 10.9378L20.8686 12.1584ZM17.5361 14.5642C17.5538 14.5348 17.5773 14.5093 17.6052 14.4894L16.7333 13.2688C16.538 13.4084 16.3734 13.5866 16.2499 13.7925L17.5361 14.5642ZM22.6768 16.7374C23.005 17.0656 23.4501 17.25 23.9142 17.25V15.75C23.8479 15.75 23.7843 15.7237 23.7374 15.6768L22.6768 16.7374ZM26.9348 28.4534C26.8133 28.6964 26.75 28.9644 26.75 29.2361H28.25C28.25 29.1973 28.259 29.159 28.2764 29.1243L26.9348 28.4534ZM15.9433 17.1174C16.0445 17.0162 16.1328 16.903 16.2065 16.7803L14.9202 16.0086C14.9097 16.0261 14.8971 16.0423 14.8826 16.0567L15.9433 17.1174ZM26.2374 6.82322C26.2843 6.77634 26.3479 6.75 26.4142 6.75V5.25C25.9501 5.25 25.505 5.43437 25.1768 5.76256L26.2374 6.82322ZM22.3307 14.4019C21.868 15.0959 21.9595 16.0202 22.5494 16.61L23.61 15.5494C23.5258 15.4651 23.5127 15.3331 23.5788 15.2339L22.3307 14.4019ZM27.25 27.7639C27.25 27.8027 27.241 27.841 27.2236 27.8757L28.5652 28.5466C28.6867 28.3036 28.75 28.0356 28.75 27.7639H27.25ZM11.4755 20.7089C11.9885 20.7516 12.4943 20.5664 12.8583 20.2024L11.7976 19.1417C11.7456 19.1937 11.6734 19.2202 11.6001 19.2141L11.4755 20.7089Z" fill="black"/>
<path d="M8 28C7.72386 28 7.5 28.2239 7.5 28.5C7.5 28.7761 7.72386 29 8 29V28ZM20.6036 30.4778L20.7084 30.9667L20.6036 30.4778ZM18.3212 30.4285L18.1355 30.8927L18.3212 30.4285ZM13.6788 28.5715L13.4931 29.0358L13.6788 28.5715ZM8 29H10V28H8V29ZM10 29H13.3074V28H10V29ZM13.4931 29.0358L18.1355 30.8927L18.5069 29.9642L13.8645 28.1073L13.4931 29.0358ZM18.6926 31H20.3941V30H18.6926V31ZM20.7084 30.9667L27.6048 29.4889L27.3952 28.5111L20.4988 29.9889L20.7084 30.9667ZM20.3941 31C20.4997 31 20.6051 30.9888 20.7084 30.9667L20.4988 29.9889C20.4644 29.9963 20.4293 30 20.3941 30V31ZM18.1355 30.8927C18.3127 30.9636 18.5018 31 18.6926 31V30C18.629 30 18.5659 29.9879 18.5069 29.9642L18.1355 30.8927ZM13.3074 29C13.371 29 13.4341 29.0121 13.4931 29.0358L13.8645 28.1073C13.6873 28.0364 13.4982 28 13.3074 28V29Z" fill="black"/>
</svg>
