<?xml version="1.0" encoding="UTF-8" standalone="no"?><!DOCTYPE svg PUBLIC "-//W3C//DTD SVG 1.1//EN" "http://www.w3.org/Graphics/SVG/1.1/DTD/svg11.dtd"><svg width="100%" height="100%" viewBox="0 0 696 696" version="1.1" xmlns="http://www.w3.org/2000/svg" xmlns:xlink="http://www.w3.org/1999/xlink" xml:space="preserve" xmlns:serif="http://www.serif.com/" style="fill-rule:evenodd;clip-rule:evenodd;stroke-linecap:round;"><path d="M164.929,86.804l0,438.129c0,7.83 5.242,14.692 12.796,16.75l251.733,68.654c11.046,3.013 21.93,-5.299 21.93,-16.75l-0,-20.67m-286.459,-486.113l234.375,49.717l38.325,8.129c8.021,1.704 13.759,8.783 13.759,16.983l-0,411.284m-286.459,-486.113l347.225,0c9.588,0 17.359,7.775 17.359,17.363l-0,416.666c-0,9.588 -7.771,17.363 -17.359,17.363l-11.271,-0c-3.945,-0 -7.77,1.341 -10.845,3.804l-16.946,13.554l-21.704,17.363" style="fill:none;fill-rule:nonzero;stroke:#000;stroke-width:24.29px;"/><path d="M416.667,138.888l78.287,-50.474" style="fill:none;fill-rule:nonzero;stroke:#000;stroke-width:13.88px;stroke-linecap:butt;"/><path d="M260.417,412.088l-0,-151.671c-0,-9.588 7.77,-17.363 17.362,-17.363l8.679,0c9.588,0 17.363,7.775 17.363,17.363l-0,128.958c-0,0.746 0.475,1.408 1.187,1.646l39.021,13.008c7.092,2.363 11.875,8.996 11.875,16.471l0,8.158c0,11.446 -10.887,19.763 -21.929,16.75l-60.767,-16.571c-7.55,-2.062 -12.791,-8.92 -12.791,-16.75Z" style="fill:none;fill-rule:nonzero;stroke:#000;stroke-width:22.58px;stroke-linecap:butt;"/><path d="M168.635,495.108l275.213,73.406" style="fill:none;stroke:#000;stroke-width:16.67px;stroke-linejoin:round;stroke-miterlimit:1.5;"/></svg>