<?xml version="1.0" encoding="UTF-8"?>
<svg xmlns="http://www.w3.org/2000/svg" xmlns:xlink="http://www.w3.org/1999/xlink" width="40" height="40" viewBox="0 0 40 40" version="1.1">
<g id="surface1">
<path style="fill:none;stroke-width:1.5;stroke-linecap:butt;stroke-linejoin:miter;stroke:rgb(0%,0%,0%);stroke-opacity:1;stroke-miterlimit:4;" d="M 18.5 8.175781 L 18.5 6.636719 C 18.5 6.578125 18.566406 6.539062 18.617188 6.570312 C 20.191406 7.515625 21.589844 8.734375 22.734375 10.171875 L 23 10.5 L 23.613281 11.523438 C 24.195312 12.488281 24.5 13.59375 24.5 14.722656 C 24.5 15.566406 24.328125 16.398438 23.996094 17.171875 L 23.261719 18.890625 C 23.085938 19.296875 22.867188 19.675781 22.601562 20.027344 L 21.902344 20.964844 C 21.640625 21.3125 21.5 21.734375 21.5 22.167969 L 21.5 22.292969 C 21.5 22.746094 21.679688 23.179688 22 23.5 C 22.320312 23.820312 22.753906 24 23.207031 24 L 23.699219 24 C 24.222656 24 24.738281 23.859375 25.1875 23.585938 L 26.230469 22.960938 C 26.742188 22.65625 27.214844 22.285156 27.632812 21.867188 L 28.394531 21.105469 C 28.4375 21.0625 28.515625 21.085938 28.53125 21.148438 L 28.796875 22.484375 C 28.933594 23.160156 29 23.847656 29 24.535156 L 29 25.222656 C 29 26.390625 28.726562 27.542969 28.203125 28.589844 C 27.738281 29.519531 27.085938 30.34375 26.289062 31.007812 L 25.808594 31.410156 C 24.941406 32.132812 23.960938 32.703125 22.90625 33.097656 L 22.347656 33.304688 C 21.136719 33.761719 19.828125 33.902344 18.542969 33.71875 C 17.523438 33.574219 16.535156 33.21875 15.652344 32.691406 C 14.894531 32.238281 14.210938 31.65625 13.648438 30.976562 L 13.089844 30.304688 C 12.367188 29.441406 11.816406 28.453125 11.460938 27.386719 C 11.15625 26.46875 11 25.507812 11 24.539062 L 11 23.789062 C 11 22.933594 11.136719 22.085938 11.40625 21.277344 C 11.796875 20.109375 12.453125 19.046875 13.324219 18.175781 L 15.683594 15.816406 C 16.550781 14.949219 17.234375 13.914062 17.691406 12.773438 C 17.898438 12.257812 18.054688 11.726562 18.164062 11.183594 L 18.242188 10.796875 C 18.414062 9.933594 18.5 9.058594 18.5 8.175781 Z M 18.5 8.175781 "/>
<path style="fill:none;stroke-width:1;stroke-linecap:butt;stroke-linejoin:miter;stroke:rgb(0%,0%,0%);stroke-opacity:1;stroke-miterlimit:4;" d="M 20 7.5 L 20.6875 10.9375 C 20.890625 11.957031 20.792969 13.015625 20.410156 13.980469 C 20.140625 14.652344 19.734375 15.265625 19.222656 15.777344 L 16.324219 18.675781 C 15.453125 19.546875 14.796875 20.609375 14.40625 21.777344 C 14.136719 22.585938 14 23.433594 14 24.289062 L 14 25.039062 C 14 26.007812 14.15625 26.96875 14.460938 27.886719 C 14.816406 28.953125 15.367188 29.941406 16.089844 30.804688 L 16.316406 31.082031 C 17.101562 32.019531 18.035156 32.820312 19.085938 33.449219 L 20 34 "/>
<path style="fill:none;stroke-width:1;stroke-linecap:butt;stroke-linejoin:miter;stroke:rgb(0%,0%,0%);stroke-opacity:1;stroke-miterlimit:4;" d="M 21.144531 9 L 21.742188 12.289062 C 21.910156 13.222656 21.828125 14.1875 21.503906 15.082031 C 21.265625 15.738281 20.902344 16.339844 20.433594 16.859375 L 19 18.433594 L 18.058594 19.472656 C 17.265625 20.339844 16.679688 21.375 16.339844 22.5 C 16.113281 23.246094 16 24.019531 16 24.796875 L 16 25.585938 C 16 26.472656 16.128906 27.355469 16.386719 28.207031 C 16.699219 29.230469 17.1875 30.191406 17.832031 31.042969 L 17.953125 31.199219 C 18.644531 32.117188 19.488281 32.910156 20.449219 33.542969 L 21.144531 34 "/>
</g>
</svg>
