<?xml version="1.0" encoding="UTF-8"?>
<svg xmlns="http://www.w3.org/2000/svg" xmlns:xlink="http://www.w3.org/1999/xlink" width="40" height="40" viewBox="0 0 40 40" version="1.1">
<g id="surface1">
<path style="fill:none;stroke-width:1.5;stroke-linecap:butt;stroke-linejoin:miter;stroke:rgb(0%,0%,0%);stroke-opacity:1;stroke-miterlimit:4;" d="M 16 9 C 17.984375 8.667969 20.015625 8.667969 22 9 M 16 9 L 15.347656 9.328125 C 13.816406 10.089844 12.546875 11.292969 11.699219 12.777344 C 11.234375 13.585938 10.90625 14.464844 10.722656 15.378906 L 10.296875 17.511719 C 10.097656 18.503906 10 19.507812 10 20.515625 L 10 20.800781 C 10 22.257812 9.765625 23.703125 9.304688 25.085938 C 9.101562 25.695312 8.855469 26.289062 8.570312 26.863281 L 7.539062 28.921875 C 7.511719 28.972656 7.480469 29.019531 7.4375 29.0625 C 7.089844 29.410156 7.335938 30 7.824219 30 L 30.175781 30 C 30.664062 30 30.910156 29.410156 30.5625 29.0625 C 30.519531 29.019531 30.488281 28.972656 30.460938 28.921875 L 29.429688 26.863281 C 29.144531 26.289062 28.898438 25.695312 28.695312 25.085938 C 28.234375 23.703125 28 22.257812 28 20.800781 L 28 20.515625 C 28 19.507812 27.902344 18.503906 27.703125 17.511719 L 27.429688 16.140625 C 27.144531 14.730469 26.566406 13.394531 25.730469 12.222656 C 24.917969 11.085938 23.882812 10.128906 22.683594 9.410156 L 22 9 M 16 9 L 16.246094 8.011719 C 16.414062 7.347656 16.753906 6.746094 17.238281 6.261719 L 17.335938 6.164062 C 17.445312 6.054688 17.566406 5.957031 17.695312 5.871094 C 18.484375 5.34375 19.515625 5.34375 20.304688 5.871094 C 20.433594 5.957031 20.554688 6.054688 20.664062 6.164062 L 20.761719 6.261719 C 21.246094 6.746094 21.585938 7.347656 21.753906 8.011719 L 22 9 M 21.695312 34.035156 C 22.226562 33.683594 22.683594 33.226562 23.035156 32.695312 L 23.457031 32.066406 C 23.472656 32.039062 23.453125 32 23.417969 32 L 14.582031 32 C 14.546875 32 14.527344 32.039062 14.542969 32.066406 L 14.964844 32.695312 C 15.316406 33.226562 15.773438 33.683594 16.304688 34.035156 C 16.765625 34.34375 17.277344 34.570312 17.816406 34.703125 C 18.589844 34.898438 19.410156 34.898438 20.183594 34.703125 C 20.722656 34.570312 21.234375 34.34375 21.695312 34.035156 Z M 21.695312 34.035156 "/>
<path style="fill:none;stroke-width:1;stroke-linecap:butt;stroke-linejoin:miter;stroke:rgb(0%,0%,0%);stroke-opacity:1;stroke-miterlimit:4;" d="M 8.5 27.5 L 29.5 27.5 "/>
</g>
</svg>
