<?xml version="1.0" encoding="UTF-8" standalone="no"?><!DOCTYPE svg PUBLIC "-//W3C//DTD SVG 1.1//EN" "http://www.w3.org/Graphics/SVG/1.1/DTD/svg11.dtd"><svg width="100%" height="100%" viewBox="0 0 167 167" version="1.1" xmlns="http://www.w3.org/2000/svg" xmlns:xlink="http://www.w3.org/1999/xlink" xml:space="preserve" xmlns:serif="http://www.serif.com/" style="fill-rule:evenodd;clip-rule:evenodd;"><path d="M88.958,62.5c0,-3.105 -2.52,-5.625 -5.625,-5.625c-3.104,0 -5.625,2.52 -5.625,5.625l0,41.667c0,3.104 2.521,5.625 5.625,5.625c3.105,-0 5.625,-2.521 5.625,-5.625l0,-41.667Z" style="fill:none;stroke:#000;stroke-width:5.42px;"/><path d="M81.25,118.958l4.167,0c2.186,0 3.958,1.772 3.958,3.959c0,2.186 -1.772,3.958 -3.958,3.958l-4.167,0c-2.186,0 -3.958,-1.772 -3.958,-3.958c-0,-2.187 1.772,-3.959 3.958,-3.959Z" style="fill:none;fill-rule:nonzero;stroke:#000;stroke-width:4.58px;"/></svg>