<?xml version="1.0" encoding="UTF-8" standalone="no"?><!DOCTYPE svg PUBLIC "-//W3C//DTD SVG 1.1//EN" "http://www.w3.org/Graphics/SVG/1.1/DTD/svg11.dtd"><svg width="100%" height="100%" viewBox="0 0 67 105" version="1.1" xmlns="http://www.w3.org/2000/svg" xmlns:xlink="http://www.w3.org/1999/xlink" xml:space="preserve" xmlns:serif="http://www.serif.com/" style="fill-rule:evenodd;clip-rule:evenodd;stroke-linejoin:round;stroke-miterlimit:2;"><path d="M0,5c0,-2.761 2.239,-5 5,-5l4.583,0c2.762,0 5,2.239 5,5l0,94.167c0,2.761 -2.238,5 -5,5l-4.583,-0c-2.761,-0 -5,-2.239 -5,-5l0,-94.167Z" style="fill-rule:nonzero;"/><path d="M52.083,5c0,-2.761 2.239,-5 5,-5l4.584,0c2.761,0 5,2.239 5,5l-0,94.167c-0,2.761 -2.239,5 -5,5l-4.584,-0c-2.761,-0 -5,-2.239 -5,-5l0,-94.167Z" style="fill-rule:nonzero;"/></svg>