<?xml version="1.0" encoding="UTF-8"?>
<svg xmlns="http://www.w3.org/2000/svg" xmlns:xlink="http://www.w3.org/1999/xlink" width="px" height="40px" viewBox="0 0 40 40" version="1.1">
<g id="surface1">
<path style="fill:none;stroke-width:1.2;stroke-linecap:butt;stroke-linejoin:miter;stroke:rgb(0%,0%,0%);stroke-opacity:1;stroke-miterlimit:4;" d="M 20.070312 17.429688 L 26.21875 11.28125 C 26.871094 10.628906 27.957031 10.765625 28.433594 11.554688 C 28.765625 12.109375 28.679688 12.820312 28.21875 13.28125 L 22.070312 19.429688 C 22.03125 19.46875 22.03125 19.53125 22.070312 19.570312 L 28.21875 25.71875 C 28.679688 26.179688 28.765625 26.890625 28.433594 27.445312 C 27.957031 28.234375 26.871094 28.371094 26.21875 27.71875 L 20.355469 21.855469 C 20.160156 21.660156 19.839844 21.660156 19.648438 21.855469 L 13.78125 27.71875 C 13.128906 28.371094 12.042969 28.234375 11.566406 27.445312 C 11.234375 26.890625 11.320312 26.179688 11.78125 25.71875 L 17.929688 19.570312 C 17.96875 19.53125 17.96875 19.46875 17.929688 19.429688 L 11.78125 13.28125 C 11.320312 12.820312 11.234375 12.109375 11.566406 11.554688 C 12.042969 10.765625 13.128906 10.628906 13.78125 11.28125 L 19.929688 17.429688 C 19.96875 17.46875 20.03125 17.46875 20.070312 17.429688 Z M 20.070312 17.429688 "/>
</g>
</svg>
