<svg width="40" height="40" viewBox="0 0 40 40" fill="none" xmlns="http://www.w3.org/2000/svg">
<path d="M20.0707 17.4293L26.5 11C27.0523 10.4477 27.9477 10.4477 28.5 11C29.0523 11.5523 29.0523 12.4477 28.5 13L22.0732 19.4268C22.0332 19.4668 22.0343 19.532 22.0757 19.5706L28.8273 25.8721C29.2372 26.2547 29.3863 26.8411 29.209 27.373C28.8781 28.3657 27.6293 28.6805 26.8673 27.9634L20.3532 21.8325C20.1564 21.6472 19.8481 21.6519 19.657 21.843L13.618 27.882C12.8747 28.6253 11.6088 28.3265 11.2764 27.3292C11.107 26.821 11.2393 26.2607 11.618 25.882L17.9293 19.5707C17.9683 19.5317 17.9683 19.4683 17.9293 19.4293L11.7808 13.2808C11.3219 12.8219 11.2342 12.1096 11.5681 11.5532C12.0415 10.7642 13.1302 10.6302 13.7808 11.2808L19.9293 17.4293C19.9683 17.4683 20.0317 17.4683 20.0707 17.4293Z" stroke="black" stroke-width="1.2"/>
</svg>
