<?xml version="1.0" encoding="UTF-8" standalone="no"?><!DOCTYPE svg PUBLIC "-//W3C//DTD SVG 1.1//EN" "http://www.w3.org/Graphics/SVG/1.1/DTD/svg11.dtd"><svg width="100%" height="100%" viewBox="0 0 2900 2900" version="1.1" xmlns="http://www.w3.org/2000/svg" xmlns:xlink="http://www.w3.org/1999/xlink" xml:space="preserve" xmlns:serif="http://www.serif.com/" style="fill-rule:evenodd;clip-rule:evenodd;stroke-linecap:round;"><path d="M687.204,361.683l0,1825.54c0,32.625 21.842,61.216 53.317,69.792l1048.89,286.058c46.025,12.554 91.375,-22.079 91.375,-69.792l0,-86.125m-1193.58,-2025.47l976.563,207.155l159.687,33.87c33.421,7.1 57.329,36.596 57.329,70.763l0,1713.68m-1193.58,-2025.47l1446.77,0c39.95,0 72.329,32.396 72.329,72.346l0,1736.11c0,39.95 -32.379,72.345 -72.329,72.345l-46.962,0c-16.438,0 -32.375,5.588 -45.188,15.85l-70.608,56.475l-90.434,72.346" style="fill:none;fill-rule:nonzero;stroke:#000;stroke-width:101.21px;"/><path d="M1736.11,578.7l326.195,-210.308" style="fill:none;fill-rule:nonzero;stroke:#000;stroke-width:57.83px;stroke-linecap:butt;"/><path d="M1085.07,1717.03l-0,-631.962c-0,-39.95 32.375,-72.346 72.342,-72.346l36.162,0c39.95,0 72.346,32.396 72.346,72.346l-0,537.325c-0,3.108 1.979,5.867 4.946,6.858l162.587,54.2c29.55,9.846 49.479,37.483 49.479,68.629l0,33.992c0,47.692 -45.362,82.346 -91.37,69.792l-253.196,-69.046c-31.459,-8.592 -53.296,-37.167 -53.296,-69.792l-0,0.004Z" style="fill:none;fill-rule:nonzero;stroke:#000;stroke-width:94.08px;stroke-linecap:butt;stroke-linejoin:round;"/><path d="M702.646,2062.95l1146.72,305.858" style="fill:none;stroke:#000;stroke-width:69.46px;stroke-linejoin:round;stroke-miterlimit:1.5;"/></svg>