<?xml version="1.0" encoding="UTF-8"?>
<svg xmlns="http://www.w3.org/2000/svg" xmlns:xlink="http://www.w3.org/1999/xlink" width="px" height="40px" viewBox="0 0 40 40" version="1.1">
<g id="surface1">
<path style="fill:none;stroke-width:108.5;stroke-linecap:round;stroke-linejoin:round;stroke:rgb(0%,0%,0%);stroke-opacity:1;stroke-miterlimit:4;" d="M 2531.835938 2568.085938 C 2531.835938 2568.085938 2503.798828 2331.611328 2449.140625 2222.011719 C 2394.765625 2112.128906 2314.902344 2012.724609 2214.082031 1928.613281 C 2113.261719 1844.785156 1993.75 1777.949219 1862.060547 1732.636719 C 1730.371094 1687.041016 1589.335938 1663.818359 1446.884766 1663.818359 C 1304.150391 1663.818359 1163.115234 1687.041016 1031.425781 1732.636719 C 900.019531 1777.949219 780.224609 1844.785156 679.404297 1928.613281 C 578.867188 2012.724609 498.720703 2112.128906 444.345703 2222.011719 C 389.6875 2331.611328 361.650391 2449.140625 361.650391 2568.085938 Z M 2531.835938 2568.085938 " transform="matrix(0.0137931,0,0,0.0137931,0,0)"/>
<path style="fill:none;stroke-width:108.5;stroke-linecap:butt;stroke-linejoin:miter;stroke:rgb(0%,0%,0%);stroke-opacity:1;stroke-miterlimit:4;" d="M 2008.476562 957.792969 C 2008.476562 1277.529297 1749.345703 1536.660156 1429.609375 1536.660156 C 1110.15625 1536.660156 851.025391 1277.529297 851.025391 957.792969 C 851.025391 638.339844 1110.15625 379.208984 1429.609375 379.208984 C 1749.345703 379.208984 2008.476562 638.339844 2008.476562 957.792969 Z M 2008.476562 957.792969 " transform="matrix(0.0137931,0,0,0.0137931,0,0)"/>
<path style="fill:none;stroke-width:72.42;stroke-linecap:butt;stroke-linejoin:miter;stroke:rgb(0%,0%,0%);stroke-opacity:1;stroke-miterlimit:4;" d="M 1012.734375 614.833984 L 1232.783203 725 C 1276.113281 746.523438 1327.373047 745.107422 1369.287109 721.035156 L 1555.351562 614.833984 L 1880.751953 614.833984 " transform="matrix(0.0137931,0,0,0.0137931,0,0)"/>
<path style="fill:none;stroke-width:74.49;stroke-linecap:butt;stroke-linejoin:miter;stroke:rgb(0%,0%,0%);stroke-opacity:1;stroke-miterlimit:4;" d="M 408.095703 2377.490234 L 2479.160156 2377.490234 " transform="matrix(0.0137931,0,0,0.0137931,0,0)"/>
</g>
</svg>
