<?xml version="1.0" encoding="UTF-8" standalone="no"?><!DOCTYPE svg PUBLIC "-//W3C//DTD SVG 1.1//EN" "http://www.w3.org/Graphics/SVG/1.1/DTD/svg11.dtd"><svg width="100%" height="100%" viewBox="0 0 167 167" version="1.1" xmlns="http://www.w3.org/2000/svg" xmlns:xlink="http://www.w3.org/1999/xlink" xml:space="preserve" xmlns:serif="http://www.serif.com/" style="fill-rule:evenodd;clip-rule:evenodd;stroke-linecap:round;"><path d="M39.583,20.833l0,105.151c0,1.879 1.258,3.526 3.071,4.02l60.416,16.477c2.651,0.723 5.263,-1.272 5.263,-4.02l0,-4.961m-68.75,-116.667l56.25,11.932l9.198,1.951c1.925,0.409 3.302,2.108 3.302,4.076l0,98.708m-68.75,-116.667l83.334,0c2.301,0 4.166,1.866 4.166,4.167l0,100c0,2.301 -1.865,4.167 -4.166,4.167l-2.705,-0c-0.947,-0 -1.865,0.322 -2.603,0.913l-4.067,3.253l-5.209,4.167" style="fill:none;fill-rule:nonzero;stroke:#000;stroke-width:5.83px;"/><path d="M100,33.333l16.667,-10.416l-0,106.25" style="fill:none;fill-rule:nonzero;stroke:#000;stroke-width:3.33px;stroke-linecap:butt;"/><path d="M62.5,98.901l0,-36.401c0,-2.301 1.865,-4.167 4.167,-4.167l2.083,0c2.301,0 4.167,1.866 4.167,4.167l-0,30.95c-0,0.179 0.114,0.338 0.285,0.395l9.365,3.122c1.702,0.567 2.85,2.159 2.85,3.953l-0,1.958c-0,2.747 -2.613,4.743 -5.263,4.02l-14.584,-3.977c-1.812,-0.495 -3.07,-2.141 -3.07,-4.02Z" style="fill:none;fill-rule:nonzero;stroke:#000;stroke-width:5.42px;stroke-linecap:butt;"/></svg>