<?xml version="1.0" encoding="UTF-8" standalone="no"?><!DOCTYPE svg PUBLIC "-//W3C//DTD SVG 1.1//EN" "http://www.w3.org/Graphics/SVG/1.1/DTD/svg11.dtd"><svg width="100%" height="100%" viewBox="0 0 167 167" version="1.1" xmlns="http://www.w3.org/2000/svg" xmlns:xlink="http://www.w3.org/1999/xlink" xml:space="preserve" xmlns:serif="http://www.serif.com/" style="fill-rule:evenodd;clip-rule:evenodd;stroke-linecap:round;stroke-linejoin:round;stroke-miterlimit:1.5;"><path d="M116.667,83.333c-0,18.41 -14.924,33.334 -33.334,33.334c-18.409,-0 -33.333,-14.924 -33.333,-33.334c0,-18.409 14.924,-33.333 33.333,-33.333c18.41,0 33.334,14.924 33.334,33.333Zm-61.013,0c0,15.287 12.393,27.68 27.679,27.68c15.287,-0 27.68,-12.393 27.68,-27.68c-0,-15.286 -12.393,-27.679 -27.68,-27.679c-15.286,0 -27.679,12.393 -27.679,27.679Z" style="fill-rule:nonzero;"/><path d="M104.167,83.333c-0,11.506 -9.328,20.834 -20.834,20.834c-11.505,-0 -20.833,-9.328 -20.833,-20.834c0,-11.505 9.328,-20.833 20.833,-20.833c11.506,0 20.834,9.328 20.834,20.833Zm-38.133,0c-0,9.555 7.745,17.3 17.299,17.3c9.555,-0 17.3,-7.745 17.3,-17.3c-0,-9.554 -7.745,-17.299 -17.3,-17.299c-9.554,-0 -17.299,7.745 -17.299,17.299Z" style="fill-rule:nonzero;"/><path d="M43.949,57.171l-6.831,-13.012l8.674,-8.674l11.819,7.265" style="fill:none;stroke:#000;stroke-width:6.25px;"/><path d="M73.249,37.378l4.37,-14.031l12.267,0l3.221,13.494" style="fill:none;stroke:#000;stroke-width:6.25px;"/><path d="M109.84,44.127l13.011,-6.831l8.675,8.674l-7.265,11.819" style="fill:none;stroke:#000;stroke-width:6.25px;"/><path d="M129.101,73.346l14.027,4.381l-0.01,12.267l-13.496,3.21" style="fill:none;stroke:#000;stroke-width:6.25px;"/><path d="M77.518,33.668c-9.085,1.052 -17.428,4.54 -24.358,9.793l5.681,3.615c5.083,-3.44 10.928,-5.84 17.229,-6.893l1.448,-6.515Zm13.078,6.515c6.854,1.146 13.169,3.885 18.55,7.823l5.656,-3.53c-7.176,-5.819 -15.995,-9.689 -25.654,-10.808l1.448,6.515Zm35.871,50.51c-1.05,6.199 -3.404,11.955 -6.77,16.975l3.905,5.31c5.014,-6.8 8.347,-14.916 9.386,-23.735l-6.521,1.45Zm-35.582,35.741c7.03,-1.223 13.483,-4.124 18.933,-8.275l5.937,3.239c-7.272,6.2 -16.343,10.353 -26.321,11.567l1.451,-6.531Zm42.103,-49.011c-1.048,-8.898 -4.433,-17.081 -9.523,-23.919l-3.665,5.649c3.311,4.984 5.628,10.685 6.667,16.821l6.521,1.449Zm-57.206,49.011c-6.214,-1.081 -11.977,-3.473 -16.995,-6.88l-5.678,3.613c6.868,5.22 15.127,8.703 24.124,9.798l-1.451,-6.531Zm-42.114,-37.286c1.111,9.593 4.937,18.359 10.69,25.508l3.572,-5.613c-3.897,-5.359 -6.609,-11.636 -7.747,-18.447l-6.515,-1.448Zm10.815,-37.292c-5.822,7.178 -9.696,16 -10.815,25.662l6.515,-1.448c1.15,-6.879 3.905,-13.215 7.867,-18.609l-3.567,-5.605Z"/><path d="M123.64,107.17l7.944,12.364l-7.882,9.4l-12.409,-6.203" style="fill:none;stroke:#000;stroke-width:6.25px;"/><path d="M93.315,129.265l-4.37,14.031l-12.267,-0l-3.221,-13.494" style="fill:none;stroke:#000;stroke-width:6.25px;"/><path d="M58.527,123.167l-13.011,6.831l-8.675,-8.674l7.265,-11.819" style="fill:none;stroke:#000;stroke-width:6.25px;"/><path d="M37.55,93.442l-14.031,-4.371l-0,-12.267l13.494,-3.22" style="fill:none;stroke:#000;stroke-width:6.25px;"/></svg>