<?xml version="1.0" encoding="UTF-8" standalone="no"?><!DOCTYPE svg PUBLIC "-//W3C//DTD SVG 1.1//EN" "http://www.w3.org/Graphics/SVG/1.1/DTD/svg11.dtd"><svg width="100%" height="100%" viewBox="0 0 2900 2900" version="1.1" xmlns="http://www.w3.org/2000/svg" xmlns:xlink="http://www.w3.org/1999/xlink" xml:space="preserve" xmlns:serif="http://www.serif.com/" style="fill-rule:evenodd;clip-rule:evenodd;stroke-linecap:round;stroke-linejoin:round;"><g><path d="M2531.83,2568c0,0 -28.058,-236.337 -82.588,-346.041c-54.533,-109.705 -134.462,-209.375 -235.208,-293.35c-100.767,-83.959 -220.383,-150.575 -352.033,-196.009c-131.65,-45.45 -272.742,-68.837 -415.242,-68.837c-142.483,-0 -283.596,23.387 -415.242,68.837c-131.633,45.434 -251.25,112.05 -352.016,196.009c-100.746,83.975 -180.675,183.645 -235.209,293.35c-54.529,109.704 -82.604,227.291 -82.604,346.041l2170.14,0Z" style="fill:none;fill-rule:nonzero;stroke:#000;stroke-width:108.5px;"/><path d="M2008.42,957.917c-0,319.6 -259.079,578.7 -578.7,578.7c-319.617,-0 -578.696,-259.1 -578.696,-578.7c0,-319.617 259.079,-578.7 578.696,-578.7c319.621,0.004 578.7,259.083 578.7,578.7Z" style="fill:none;fill-rule:nonzero;stroke:#000;stroke-width:108.5px;stroke-linecap:butt;stroke-linejoin:miter;"/><path d="M1012.73,614.879l220.104,110.034c43.267,21.649 94.479,20.225 136.475,-3.784l185.959,-106.25l325.52,0" style="fill:none;fill-rule:nonzero;stroke:#000;stroke-width:72.42px;stroke-linecap:butt;stroke-linejoin:miter;"/><path d="M408.235,2377.45l2070.85,0" style="fill:none;fill-rule:nonzero;stroke:#000;stroke-width:74.49px;stroke-linecap:butt;stroke-linejoin:miter;"/></g></svg>