<?xml version="1.0" encoding="UTF-8"?>
<svg xmlns="http://www.w3.org/2000/svg" xmlns:xlink="http://www.w3.org/1999/xlink" width="40" height="40" viewBox="0 0 40 40" version="1.1">
<g id="surface1">
<path style="fill:none;stroke-width:1.5;stroke-linecap:butt;stroke-linejoin:miter;stroke:rgb(0%,0%,0%);stroke-opacity:1;stroke-miterlimit:4;" d="M 31.125 28.902344 C 30.066406 30.230469 28.773438 31.359375 27.304688 32.234375 C 25.292969 33.4375 23.015625 34.121094 20.675781 34.234375 C 18.335938 34.34375 16.003906 33.878906 13.886719 32.871094 C 11.769531 31.867188 9.933594 30.355469 8.539062 28.46875 C 7.148438 26.585938 6.242188 24.386719 5.902344 22.070312 C 5.5625 19.75 5.796875 17.382812 6.589844 15.179688 C 7.382812 12.972656 8.707031 10.996094 10.445312 9.425781 C 11.714844 8.28125 13.171875 7.378906 14.75 6.75 C 15.292969 6.539062 15.960938 6.863281 16.132812 7.566406 L 19.222656 19.980469 C 19.300781 20.300781 19.507812 20.578125 19.789062 20.75 L 30.753906 27.34375 C 31.371094 27.714844 31.488281 28.449219 31.125 28.902344 Z M 31.125 28.902344 "/>
<path style="fill:none;stroke-width:1.5;stroke-linecap:butt;stroke-linejoin:miter;stroke:rgb(0%,0%,0%);stroke-opacity:1;stroke-miterlimit:4;" d="M 19.542969 4.074219 C 22.011719 3.835938 24.496094 4.242188 26.757812 5.257812 C 27.289062 5.496094 27.515625 6.203125 27.136719 6.816406 L 21.234375 16.324219 L 18.6875 5.429688 C 18.519531 4.726562 18.964844 4.128906 19.542969 4.074219 Z M 19.542969 4.074219 "/>
<path style="fill:none;stroke-width:1.5;stroke-linecap:butt;stroke-linejoin:miter;stroke:rgb(0%,0%,0%);stroke-opacity:1;stroke-miterlimit:4;" d="M 31.660156 8.816406 C 33.699219 10.746094 35.136719 13.246094 35.765625 16.007812 C 36.398438 18.773438 36.1875 21.644531 35.183594 24.269531 C 34.976562 24.8125 34.28125 25.082031 33.648438 24.734375 L 22.980469 18.921875 L 30.074219 9.0625 C 30.496094 8.476562 31.238281 8.417969 31.660156 8.816406 Z M 31.660156 8.816406 "/>
<path style="fill:none;stroke-width:1;stroke-linecap:butt;stroke-linejoin:miter;stroke:rgb(0%,0%,0%);stroke-opacity:1;stroke-miterlimit:4;" d="M 16 8.5 L 14.734375 9.132812 C 13.585938 9.707031 12.535156 10.464844 11.628906 11.371094 L 11.554688 11.445312 C 10.527344 12.472656 9.707031 13.683594 9.132812 15.019531 C 8.714844 16 8.433594 17.039062 8.300781 18.097656 L 8.285156 18.222656 C 8.097656 19.726562 8.1875 21.253906 8.558594 22.726562 L 8.621094 22.988281 C 8.871094 23.992188 9.261719 24.953125 9.773438 25.851562 C 10.582031 27.265625 11.6875 28.492188 13.011719 29.4375 L 13.265625 29.617188 C 14.085938 30.203125 14.976562 30.679688 15.917969 31.03125 C 17.617188 31.667969 19.460938 31.894531 21.261719 31.691406 C 22.40625 31.566406 23.535156 31.269531 24.59375 30.816406 L 24.828125 30.71875 C 25.9375 30.242188 26.976562 29.617188 27.921875 28.863281 L 29 28 L 30 27 "/>
</g>
</svg>
