<?xml version="1.0" encoding="UTF-8"?>
<svg xmlns="http://www.w3.org/2000/svg" xmlns:xlink="http://www.w3.org/1999/xlink" width="40" height="40" viewBox="0 0 40 40" version="1.1">
<g id="surface1">
<path style="fill:none;stroke-width:101.21;stroke-linecap:round;stroke-linejoin:miter;stroke:rgb(0%,0%,0%);stroke-opacity:1;stroke-miterlimit:4;" d="M 687.333984 361.650391 L 687.333984 2187.177734 C 687.333984 2219.746094 709.140625 2248.349609 740.576172 2257.128906 L 1789.277344 2543.164062 C 1835.439453 2555.625 1880.751953 2521.074219 1880.751953 2473.212891 L 1880.751953 2387.119141 M 687.333984 361.650391 L 1663.818359 568.955078 L 1823.544922 602.65625 C 1856.962891 609.736328 1880.751953 639.189453 1880.751953 673.457031 L 1880.751953 2387.119141 M 687.333984 361.650391 L 2133.935547 361.650391 C 2173.867188 361.650391 2206.435547 394.21875 2206.435547 434.150391 L 2206.435547 2170.185547 C 2206.435547 2210.117188 2173.867188 2242.402344 2133.935547 2242.402344 L 2086.923828 2242.402344 C 2070.498047 2242.402344 2054.638672 2248.066406 2041.894531 2258.261719 L 1971.09375 2314.902344 L 1880.751953 2387.119141 " transform="matrix(0.0137931,0,0,0.0137931,0,0)"/>
<path style="fill:none;stroke-width:57.83;stroke-linecap:butt;stroke-linejoin:miter;stroke:rgb(0%,0%,0%);stroke-opacity:1;stroke-miterlimit:4;" d="M 1736.035156 578.583984 L 2062.285156 368.447266 " transform="matrix(0.0137931,0,0,0.0137931,0,0)"/>
<path style="fill:none;stroke-width:94.08;stroke-linecap:butt;stroke-linejoin:round;stroke:rgb(0%,0%,0%);stroke-opacity:1;stroke-miterlimit:4;" d="M 1084.951172 1717.060547 L 1084.951172 1084.951172 C 1084.951172 1045.019531 1117.519531 1012.734375 1157.451172 1012.734375 L 1193.701172 1012.734375 C 1233.632812 1012.734375 1265.917969 1045.019531 1265.917969 1084.951172 L 1265.917969 1622.470703 C 1265.917969 1625.585938 1267.900391 1628.134766 1270.732422 1629.267578 L 1433.574219 1683.359375 C 1463.027344 1693.271484 1482.851562 1721.025391 1482.851562 1752.177734 L 1482.851562 1786.162109 C 1482.851562 1833.740234 1437.539062 1868.291016 1391.660156 1855.830078 L 1138.476562 1786.728516 C 1107.041016 1778.232422 1084.951172 1749.628906 1084.951172 1717.060547 Z M 1084.951172 1717.060547 " transform="matrix(0.0137931,0,0,0.0137931,0,0)"/>
<path style="fill:none;stroke-width:69.46;stroke-linecap:round;stroke-linejoin:round;stroke:rgb(0%,0%,0%);stroke-opacity:1;stroke-miterlimit:1.5;" d="M 702.626953 2062.851562 L 1849.316406 2368.710938 " transform="matrix(0.0137931,0,0,0.0137931,0,0)"/>
</g>
</svg>
