<svg width="40" height="40" viewBox="0 0 40 40" fill="none" xmlns="http://www.w3.org/2000/svg">
<path d="M20.2236 5.12426L34.6056 33.8882C34.6887 34.0544 34.5678 34.25 34.382 34.25H5.61804C5.4322 34.25 5.31132 34.0544 5.39443 33.8882L19.7764 5.12426C19.8685 4.94 20.1315 4.94 20.2236 5.12426Z" stroke="black" stroke-width="1.5"/>
<rect x="18.65" y="13.65" width="2.7" height="12.7" rx="1.35" stroke="black" stroke-width="1.3"/>
<path d="M19.5 28.55H20.5C21.0247 28.55 21.45 28.9753 21.45 29.5C21.45 30.0247 21.0247 30.45 20.5 30.45H19.5C18.9753 30.45 18.55 30.0247 18.55 29.5C18.55 28.9753 18.9753 28.55 19.5 28.55Z" stroke="black" stroke-width="1.1"/>
</svg>
