<?xml version="1.0" encoding="UTF-8"?>
<svg xmlns="http://www.w3.org/2000/svg" xmlns:xlink="http://www.w3.org/1999/xlink" width="px" height="40px" viewBox="0 0 26 40" version="1.1">
<g id="surface1">
<path style=" stroke:none;fill-rule:nonzero;fill:rgb(0%,0%,0%);fill-opacity:1;" d="M 0 1.90625 C 0 0.851562 0.867188 0 1.941406 0 L 3.71875 0 C 4.789062 0 5.660156 0.851562 5.660156 1.90625 L 5.660156 37.777344 C 5.660156 38.828125 4.789062 39.683594 3.71875 39.683594 L 1.941406 39.683594 C 0.867188 39.683594 0 38.828125 0 37.777344 Z M 0 1.90625 "/>
<path style=" stroke:none;fill-rule:nonzero;fill:rgb(0%,0%,0%);fill-opacity:1;" d="M 20.210938 1.90625 C 20.210938 0.851562 21.082031 0 22.152344 0 L 23.929688 0 C 25 0 25.871094 0.851562 25.871094 1.90625 L 25.871094 37.777344 C 25.871094 38.828125 25 39.683594 23.929688 39.683594 L 22.152344 39.683594 C 21.082031 39.683594 20.210938 38.828125 20.210938 37.777344 Z M 20.210938 1.90625 "/>
</g>
</svg>
