<svg width="40" height="40" viewBox="0 0 40 40" fill="none" xmlns="http://www.w3.org/2000/svg">
<path d="M31.1261 28.9035C30.0654 30.2291 28.7729 31.3585 27.3066 32.2342C25.2947 33.4358 23.0175 34.1227 20.6767 34.2339C18.3359 34.3452 16.0038 33.8775 13.8869 32.8722C11.7701 31.8669 9.93386 30.355 8.54086 28.4706C7.14787 26.5861 6.24112 24.3872 5.90094 22.0686C5.56076 19.75 5.79765 17.3833 6.59062 15.1781C7.38359 12.9729 8.70817 10.9973 10.447 9.42631C11.7143 8.28134 13.1732 7.37703 14.7516 6.75173C15.293 6.53723 15.9591 6.86514 16.1334 7.5657L19.2222 19.9801C19.3022 20.3018 19.5068 20.5786 19.7909 20.7494L30.7533 27.3437C31.3719 27.7158 31.49 28.4488 31.1261 28.9035Z" stroke="black" stroke-width="1.5"/>
<path d="M19.5443 4.07316C22.0101 3.83454 24.497 4.24327 26.7567 5.25858C27.2879 5.49728 27.5172 6.20352 27.1364 6.81681L21.2345 16.3231L18.6858 5.42788C18.5214 4.72498 18.9646 4.12926 19.5443 4.07316Z" stroke="black" stroke-width="1.5"/>
<path d="M31.6607 8.81792C33.7008 10.7456 35.1372 13.2442 35.7673 16.0082C36.3974 18.7721 36.1859 21.6464 35.1828 24.2678C34.9747 24.8117 34.2827 25.0807 33.6487 24.7354L22.979 18.9235L30.0755 9.06146C30.4971 8.47549 31.2374 8.41793 31.6607 8.81792Z" stroke="black" stroke-width="1.5"/>
<path d="M16 8.5L14.7353 9.13233C13.586 9.70702 12.5368 10.4632 11.6281 11.3719L11.5536 11.4464C10.5273 12.4727 9.70626 13.6854 9.13453 15.0194V15.0194C8.7136 16.0016 8.43274 17.0381 8.3002 18.0984L8.28476 18.2219C8.09655 19.7276 8.18879 21.2551 8.55681 22.7272L8.62227 22.9891C8.8729 23.9916 9.25999 24.955 9.7727 25.8522V25.8522C10.5813 27.2673 11.6867 28.4905 13.0129 29.4378L13.2666 29.619C14.0854 30.2038 14.9771 30.6789 15.9192 31.0322V31.0322C17.6158 31.6684 19.4624 31.8931 21.2633 31.693V31.693C22.4049 31.5661 23.5365 31.2701 24.5923 30.8176L24.8267 30.7171C25.9371 30.2412 26.9782 29.6174 27.9216 28.8627L29 28L30 27" stroke="black"/>
</svg>
