<svg width="40" height="40" viewBox="0 0 40 40" fill="none" xmlns="http://www.w3.org/2000/svg">
<path d="M16 9V9C17.9863 8.66895 20.0137 8.66895 22 9V9M16 9L15.3474 9.32629C13.8168 10.0916 12.5469 11.2929 11.6979 12.7787V12.7787C11.2357 13.5876 10.9069 14.4657 10.7241 15.3793L10.2973 17.5136C10.0996 18.5021 10 19.5077 10 20.5158V20.8008C10 22.2574 9.76517 23.7045 9.30456 25.0863V25.0863C9.10178 25.6947 8.85607 26.2879 8.56929 26.8614L7.53983 28.9203C7.51345 28.9731 7.47873 29.0213 7.43702 29.063V29.063C7.09123 29.4088 7.33613 30 7.82514 30H30.1749C30.6639 30 30.9088 29.4088 30.563 29.063V29.063C30.5213 29.0213 30.4865 28.9731 30.4602 28.9203L29.4307 26.8614C29.1439 26.2879 28.8982 25.6947 28.6954 25.0863V25.0863C28.2348 23.7045 28 22.2574 28 20.8008V20.5158C28 19.5077 27.9004 18.5021 27.7027 17.5136L27.4284 16.142C27.146 14.7301 26.5672 13.3941 25.7303 12.2225V12.2225C24.9188 11.0863 23.8822 10.1293 22.6849 9.41094L22 9M16 9L16.2473 8.01068C16.4127 7.34934 16.7546 6.74537 17.2367 6.26335L17.3351 6.16485C17.4448 6.05522 17.565 5.95668 17.694 5.87068V5.87068C18.4848 5.34344 19.5152 5.34344 20.306 5.87068V5.87068C20.435 5.95668 20.5552 6.05522 20.6649 6.16485L20.7633 6.26335C21.2454 6.74537 21.5873 7.34934 21.7527 8.01068L22 9M21.6962 34.0359V34.0359C22.2268 33.6821 22.6821 33.2268 23.0359 32.6962L23.4554 32.0669C23.4744 32.0383 23.4539 32 23.4195 32H14.5805C14.5461 32 14.5256 32.0383 14.5446 32.0669L14.9641 32.6962C15.3179 33.2268 15.7732 33.6821 16.3038 34.0359V34.0359C16.7645 34.343 17.2774 34.5693 17.8145 34.7036V34.7036C18.5902 34.8975 19.4098 34.8975 20.1855 34.7036V34.7036C20.7226 34.5693 21.2355 34.343 21.6962 34.0359Z" stroke="black" stroke-width="1.5"/>
<path d="M8.5 27.5H29.5" stroke="black"/>
</svg>
