<?xml version="1.0" encoding="UTF-8" standalone="no"?><!DOCTYPE svg PUBLIC "-//W3C//DTD SVG 1.1//EN" "http://www.w3.org/Graphics/SVG/1.1/DTD/svg11.dtd"><svg width="100%" height="100%" viewBox="0 0 1617 1617" version="1.1" xmlns="http://www.w3.org/2000/svg" xmlns:xlink="http://www.w3.org/1999/xlink" xml:space="preserve" xmlns:serif="http://www.serif.com/" style="fill-rule:evenodd;clip-rule:evenodd;"><path d="M813.764,626.77l536.936,-536.941c56.82,-56.82 151.888,-45.105 193.241,23.787c29.154,48.601 21.483,110.808 -18.592,150.882l-536.916,536.916c-3.42,3.416 -3.42,8.949 0,12.369l536.916,536.916c40.075,40.075 47.746,102.282 18.592,150.883c-41.353,68.892 -136.421,80.587 -193.241,23.787l-512.228,-512.228c-17.062,-17.062 -44.703,-17.062 -61.745,-0l-512.248,512.228c-56.82,56.8 -151.888,45.105 -193.221,-23.787c-29.174,-48.601 -21.503,-110.808 18.571,-150.883l536.942,-536.916c3.395,-3.415 3.395,-8.948 -0,-12.369l-536.942,-536.916c-40.074,-40.074 -47.745,-102.281 -18.571,-150.882c41.333,-68.892 136.401,-80.607 193.221,-23.787l536.936,536.941c3.42,3.415 8.954,3.415 12.349,-0Z" style="fill:none;fill-rule:nonzero;stroke:#000;stroke-width:104.78px;"/></svg>