<?xml version="1.0" encoding="UTF-8"?>
<svg xmlns="http://www.w3.org/2000/svg" xmlns:xlink="http://www.w3.org/1999/xlink" width="px" height="40px" viewBox="0 0 40 40" version="1.1">
<g id="surface1">
<path style=" stroke:none;fill-rule:nonzero;fill:rgb(0%,0%,0%);fill-opacity:1;" d="M 27.945312 19.960938 C 27.945312 24.371094 24.371094 27.945312 19.960938 27.945312 C 15.550781 27.945312 11.976562 24.371094 11.976562 19.960938 C 11.976562 15.550781 15.550781 11.976562 19.960938 11.976562 C 24.371094 11.976562 27.945312 15.550781 27.945312 19.960938 Z M 13.332031 19.960938 C 13.332031 23.621094 16.296875 26.589844 19.960938 26.589844 C 23.621094 26.589844 26.589844 23.621094 26.589844 19.960938 C 26.589844 16.296875 23.621094 13.332031 19.960938 13.332031 C 16.296875 13.332031 13.332031 16.296875 13.332031 19.960938 Z M 13.332031 19.960938 "/>
<path style=" stroke:none;fill-rule:nonzero;fill:rgb(0%,0%,0%);fill-opacity:1;" d="M 24.949219 19.960938 C 24.949219 22.714844 22.714844 24.949219 19.960938 24.949219 C 17.203125 24.949219 14.96875 22.714844 14.96875 19.960938 C 14.96875 17.203125 17.203125 14.96875 19.960938 14.96875 C 22.714844 14.96875 24.949219 17.203125 24.949219 19.960938 Z M 15.816406 19.960938 C 15.816406 22.25 17.671875 24.105469 19.960938 24.105469 C 22.25 24.105469 24.105469 22.25 24.105469 19.960938 C 24.105469 17.671875 22.25 15.816406 19.960938 15.816406 C 17.671875 15.816406 15.816406 17.671875 15.816406 19.960938 Z M 15.816406 19.960938 "/>
<path style="fill:none;stroke-width:6.25;stroke-linecap:round;stroke-linejoin:round;stroke:rgb(0%,0%,0%);stroke-opacity:1;stroke-miterlimit:1.5;" d="M 43.95166 57.17793 L 37.118359 44.163672 L 45.794531 35.4875 L 57.618262 42.744824 " transform="matrix(0.239521,0,0,0.239521,0,0)"/>
<path style="fill:none;stroke-width:6.25;stroke-linecap:round;stroke-linejoin:round;stroke:rgb(0%,0%,0%);stroke-opacity:1;stroke-miterlimit:1.5;" d="M 73.241895 37.379297 L 77.612598 23.353906 L 89.892969 23.353906 L 93.105762 36.841113 " transform="matrix(0.239521,0,0,0.239521,0,0)"/>
<path style="fill:none;stroke-width:6.25;stroke-linecap:round;stroke-linejoin:round;stroke:rgb(0%,0%,0%);stroke-opacity:1;stroke-miterlimit:1.5;" d="M 109.838379 44.131055 L 122.852637 37.297754 L 131.528809 45.973926 L 124.255176 57.781348 " transform="matrix(0.239521,0,0,0.239521,0,0)"/>
<path style="fill:none;stroke-width:6.25;stroke-linecap:round;stroke-linejoin:round;stroke:rgb(0%,0%,0%);stroke-opacity:1;stroke-miterlimit:1.5;" d="M 129.098828 73.339746 L 143.124219 77.726758 L 143.124219 89.99082 L 129.620703 93.203613 " transform="matrix(0.239521,0,0,0.239521,0,0)"/>
<path style=" stroke:none;fill-rule:evenodd;fill:rgb(0%,0%,0%);fill-opacity:1;" d="M 18.566406 8.0625 C 16.390625 8.316406 14.394531 9.152344 12.734375 10.410156 L 14.09375 11.277344 C 15.3125 10.453125 16.710938 9.875 18.21875 9.625 Z M 21.699219 9.625 C 23.339844 9.898438 24.855469 10.554688 26.144531 11.5 L 27.496094 10.652344 C 25.777344 9.257812 23.667969 8.332031 21.351562 8.0625 Z M 30.292969 21.722656 C 30.039062 23.207031 29.476562 24.585938 28.671875 25.789062 L 29.605469 27.0625 C 30.804688 25.433594 31.605469 23.488281 31.851562 21.375 Z M 21.769531 30.285156 C 23.453125 29.992188 25 29.296875 26.304688 28.300781 L 27.726562 29.078125 C 25.984375 30.5625 23.8125 31.558594 21.421875 31.847656 Z M 31.851562 18.542969 C 31.601562 16.414062 30.792969 14.453125 29.574219 12.816406 L 28.695312 14.167969 C 29.488281 15.363281 30.042969 16.726562 30.292969 18.199219 Z M 18.152344 30.285156 C 16.664062 30.023438 15.28125 29.453125 14.082031 28.636719 L 12.722656 29.5 C 14.367188 30.75 16.34375 31.585938 18.5 31.847656 Z M 8.0625 21.351562 C 8.332031 23.652344 9.246094 25.75 10.625 27.460938 L 11.480469 26.117188 C 10.546875 24.835938 9.898438 23.332031 9.625 21.699219 Z M 10.65625 12.421875 C 9.261719 14.140625 8.332031 16.253906 8.0625 18.566406 L 9.625 18.21875 C 9.898438 16.574219 10.558594 15.054688 11.507812 13.761719 Z M 10.65625 12.421875 "/>
<path style="fill:none;stroke-width:6.25;stroke-linecap:round;stroke-linejoin:round;stroke:rgb(0%,0%,0%);stroke-opacity:1;stroke-miterlimit:1.5;" d="M 123.635449 107.16377 L 131.577734 119.541992 L 123.700684 128.935742 L 111.289844 122.738477 " transform="matrix(0.239521,0,0,0.239521,0,0)"/>
<path style="fill:none;stroke-width:6.25;stroke-linecap:round;stroke-linejoin:round;stroke:rgb(0%,0%,0%);stroke-opacity:1;stroke-miterlimit:1.5;" d="M 93.317773 129.261914 L 88.94707 143.303613 L 76.683008 143.303613 L 73.453906 129.800098 " transform="matrix(0.239521,0,0,0.239521,0,0)"/>
<path style="fill:none;stroke-width:6.25;stroke-linecap:round;stroke-linejoin:round;stroke:rgb(0%,0%,0%);stroke-opacity:1;stroke-miterlimit:1.5;" d="M 58.531543 123.1625 L 45.517285 129.995801 L 36.841113 121.319629 L 44.098437 109.512207 " transform="matrix(0.239521,0,0,0.239521,0,0)"/>
<path style="fill:none;stroke-width:6.25;stroke-linecap:round;stroke-linejoin:round;stroke:rgb(0%,0%,0%);stroke-opacity:1;stroke-miterlimit:1.5;" d="M 37.542383 93.448242 L 23.516992 89.077539 L 23.516992 76.797168 L 37.020508 73.584375 " transform="matrix(0.239521,0,0,0.239521,0,0)"/>
</g>
</svg>
