<?xml version="1.0" encoding="UTF-8"?>
<svg xmlns="http://www.w3.org/2000/svg" xmlns:xlink="http://www.w3.org/1999/xlink" width="40" height="40" viewBox="0 0 40 40" version="1.1">
<g id="surface1">
<path style="fill:none;stroke-width:1.8;stroke-linecap:butt;stroke-linejoin:miter;stroke:rgb(0%,0%,0%);stroke-opacity:1;stroke-miterlimit:4;" d="M 34.101562 20 C 34.101562 27.789062 27.789062 34.101562 20 34.101562 C 12.210938 34.101562 5.898438 27.789062 5.898438 20 C 5.898438 12.210938 12.210938 5.898438 20 5.898438 C 27.789062 5.898438 34.101562 12.210938 34.101562 20 Z M 34.101562 20 "/>
<path style="fill:none;stroke-width:1.2;stroke-linecap:butt;stroke-linejoin:miter;stroke:rgb(0%,0%,0%);stroke-opacity:1;stroke-miterlimit:4;" d="M 28.304688 16.253906 L 17.882812 27.585938 C 17.679688 27.804688 17.328125 27.800781 17.132812 27.574219 L 12.144531 21.753906 C 11.78125 21.328125 11.804688 20.695312 12.203125 20.296875 C 12.636719 19.863281 13.34375 19.882812 13.753906 20.339844 L 17.425781 24.417969 C 17.464844 24.464844 17.535156 24.464844 17.574219 24.421875 L 26.746094 14.792969 C 27.160156 14.359375 27.851562 14.351562 28.273438 14.773438 C 28.679688 15.179688 28.695312 15.832031 28.304688 16.253906 Z M 28.304688 16.253906 "/>
</g>
</svg>
