<svg width="40" height="40" viewBox="0 0 40 40" fill="none" xmlns="http://www.w3.org/2000/svg">
<path d="M20.0707 17.4293L26.2192 11.2808C26.8698 10.6302 27.9586 10.7642 28.4319 11.5532C28.7658 12.1096 28.6781 12.8219 28.2192 13.2808L22.0707 19.4293C22.0317 19.4683 22.0317 19.5317 22.0707 19.5707L28.2192 25.7192C28.6781 26.1781 28.7658 26.8904 28.4319 27.4468C27.9586 28.2358 26.8698 28.3698 26.2192 27.7192L20.3536 21.8536C20.1583 21.6583 19.8417 21.6583 19.6465 21.8536L13.7808 27.7192C13.1302 28.3698 12.0415 28.2358 11.5681 27.4468C11.2342 26.8904 11.3219 26.1781 11.7808 25.7192L17.9293 19.5707C17.9683 19.5317 17.9683 19.4683 17.9293 19.4293L11.7808 13.2808C11.3219 12.8219 11.2342 12.1096 11.5681 11.5532C12.0415 10.7642 13.1302 10.6302 13.7808 11.2808L19.9293 17.4293C19.9684 17.4683 20.0317 17.4683 20.0707 17.4293Z" stroke="black" stroke-width="1.2"/>
</svg>
