<svg width="40" height="40" viewBox="0 0 40 40" fill="none" xmlns="http://www.w3.org/2000/svg">
<path d="M18.5 8.1771V6.63655C18.5 6.57646 18.5656 6.53934 18.6171 6.57026C20.1931 7.51584 21.5879 8.73482 22.736 10.17L23 10.5L23.6135 11.5225C24.1936 12.4893 24.5 13.5956 24.5 14.7231C24.5 15.5656 24.3289 16.3993 23.997 17.1737L23.2605 18.8922C23.0874 19.296 22.8668 19.6776 22.6032 20.029L21.9013 20.9649C21.6408 21.3122 21.5 21.7347 21.5 22.1689V22.2929C21.5 22.7456 21.6799 23.1799 22 23.5C22.3201 23.8201 22.7544 24 23.2071 24H23.6985C24.223 24 24.7375 23.8575 25.1872 23.5877L26.2308 22.9615C26.7417 22.655 27.213 22.287 27.6343 21.8657L28.3942 21.1058C28.4394 21.0606 28.5168 21.084 28.5293 21.1467L28.7972 22.4858C28.9321 23.1603 29 23.8464 29 24.5343V25.2217C29 26.3911 28.7277 27.5446 28.2047 28.5906C27.7399 29.5201 27.0878 30.3435 26.2895 31.0088L25.8086 31.4095C24.9424 32.1313 23.9608 32.7022 22.905 33.0981L22.3496 33.3064C21.1361 33.7615 19.8275 33.9039 18.5444 33.7206C17.5251 33.575 16.5334 33.2201 15.6505 32.6903C14.8955 32.2373 14.2122 31.6546 13.6485 30.9782L13.0884 30.3061C12.3691 29.443 11.8177 28.453 11.4624 27.3871C11.1561 26.4684 11 25.5063 11 24.5378V23.7882C11 22.935 11.1376 22.0873 11.4074 21.2779C11.7971 20.1087 12.4537 19.0463 13.3251 18.1749L14.5 17L15.6845 15.8155C16.5524 14.9476 17.2351 13.9123 17.6909 12.7726C17.8965 12.2586 18.0546 11.7269 18.1632 11.184L18.2406 10.7972C18.4131 9.93451 18.5 9.05688 18.5 8.1771Z" stroke="black" stroke-width="1.5"/>
<path d="M20 7.5L20.6876 10.9381C20.8915 11.9573 20.7945 13.0138 20.4084 13.9789V13.9789C20.139 14.6526 19.7354 15.2646 19.2223 15.7777L17.5 17.5L16.3251 18.6749C15.4537 19.5463 14.7971 20.6087 14.4074 21.7779V21.7779C14.1376 22.5873 14 23.435 14 24.2882V25.0378C14 26.0063 14.1561 26.9684 14.4624 27.8871V27.8871C14.8177 28.953 15.3691 29.943 16.0884 30.8061L16.3173 31.0807C17.1002 32.0202 18.0355 32.8213 19.0842 33.4505L20 34" stroke="black"/>
<path d="M21.1429 9L21.7404 12.2883C21.9104 13.2239 21.8288 14.188 21.504 15.0817V15.0817C21.2655 15.7379 20.9013 16.3413 20.4318 16.858L19 18.434L18.0573 19.4716C17.2671 20.3412 16.6804 21.3759 16.3399 22.5005V22.5005C16.1145 23.2445 16 24.0177 16 24.7951V25.585C16 26.4732 16.1308 27.3565 16.3883 28.2065V28.2065C16.6984 29.2305 17.1878 30.1914 17.8336 31.0444L17.952 31.2008C18.6456 32.1169 19.4899 32.9084 20.4487 33.5416L21.1429 34" stroke="black"/>
</svg>
