<svg width="40" height="40" viewBox="0 0 40 40" fill="none" xmlns="http://www.w3.org/2000/svg">
<path d="M4 18L19.9374 5.54887C19.9741 5.52025 20.0256 5.52065 20.0618 5.54983L35.5 18" stroke="black" stroke-width="1.5" stroke-linecap="round"/>
<path d="M8 19.5V34.4C8 34.4552 8.04477 34.5 8.1 34.5H13.9C13.9552 34.5 14 34.4552 14 34.4V24.6C14 24.5448 14.0448 24.5 14.1 24.5H19.9C19.9552 24.5 20 24.5448 20 24.6V34.4C20 34.4552 20.0448 34.5 20.1 34.5H31.9C31.9552 34.5 32 34.4552 32 34.4V19.5" stroke="black" stroke-width="1.5" stroke-linecap="round"/>
<path d="M8 19.5L19.9379 10.0491C19.9743 10.0203 20.0257 10.0203 20.0621 10.0491L32 19.5" stroke="black" stroke-width="1.5" stroke-linecap="round"/>
<path d="M20 32H32" stroke="black"/>
<path d="M8 32H13.5" stroke="black"/>
</svg>
