<svg width="40" height="40" viewBox="0 0 40 40" fill="none" xmlns="http://www.w3.org/2000/svg">
<path d="M9.5 5V30.2362C9.5 30.6872 9.80182 31.0823 10.2369 31.201L24.7369 35.1555C25.373 35.329 26 34.8501 26 34.1907V33M9.5 5L23 7.86364L25.2075 8.33189C25.6695 8.4299 26 8.83781 26 9.31013V33M9.5 5H28.5H29.5C30.0523 5 30.5 5.44772 30.5 6V30C30.5 30.5523 30.0523 31 29.5 31H28.8508C28.6237 31 28.4034 31.0773 28.2261 31.2191L27.25 32L26 33" stroke="black" stroke-width="1.4"/>
<path d="M24 8L28 5.5V31" stroke="black" stroke-width="0.8"/>
<path d="M15 23.7362V15C15 14.4477 15.4477 14 16 14H16.5C17.0523 14 17.5 14.4477 17.5 15V22.4279C17.5 22.471 17.5275 22.5092 17.5684 22.5228L19.8162 23.2721C20.2246 23.4082 20.5 23.7903 20.5 24.2208V24.6908C20.5 25.3501 19.873 25.829 19.2369 25.6555L15.7369 24.701C15.3018 24.5823 15 24.1872 15 23.7362Z" stroke="black" stroke-width="1.3"/>
</svg>
