<svg width="40" height="40" viewBox="0 0 40 40" fill="none" xmlns="http://www.w3.org/2000/svg">
<g clip-path="url(#clip0_340_551)">
<mask id="path-1-inside-1_340_551" fill="white">
<path d="M35 35.5C35 33.8585 34.612 32.233 33.8582 30.7165C33.1044 29.1999 31.9995 27.8219 30.6066 26.6612C29.2137 25.5004 27.5601 24.5797 25.7403 23.9515C23.9204 23.3233 21.9698 23 20 23C18.0302 23 16.0796 23.3233 14.2597 23.9515C12.4399 24.5797 10.7863 25.5004 9.3934 26.6612C8.00052 27.8219 6.89563 29.1999 6.14181 30.7165C5.38799 32.233 5 33.8585 5 35.5L20 35.5H35Z"/>
</mask>
<path d="M35 35.5C35 33.8585 34.612 32.233 33.8582 30.7165C33.1044 29.1999 31.9995 27.8219 30.6066 26.6612C29.2137 25.5004 27.5601 24.5797 25.7403 23.9515C23.9204 23.3233 21.9698 23 20 23C18.0302 23 16.0796 23.3233 14.2597 23.9515C12.4399 24.5797 10.7863 25.5004 9.3934 26.6612C8.00052 27.8219 6.89563 29.1999 6.14181 30.7165C5.38799 32.233 5 33.8585 5 35.5L20 35.5H35Z" stroke="black" stroke-width="3" mask="url(#path-1-inside-1_340_551)"/>
<path d="M27.7645 13.2422C27.7645 17.6605 24.1828 21.2422 19.7645 21.2422C15.3462 21.2422 11.7645 17.6605 11.7645 13.2422C11.7645 8.82394 15.3462 5.24222 19.7645 5.24222C24.1828 5.24222 27.7645 8.82394 27.7645 13.2422Z" stroke="black" stroke-width="1.5"/>
<path d="M14 8.5L17.0426 10.0213C17.6407 10.3204 18.3487 10.3007 18.9293 9.96895L21.5 8.5H26" stroke="black"/>
<path d="M6 32H33" stroke="black"/>
</g>
<defs>
<clipPath id="clip0_340_551">
<rect width="40" height="40" fill="white"/>
</clipPath>
</defs>
</svg>
