<svg width="191" height="61" viewBox="0 0 191 61" fill="none" xmlns="http://www.w3.org/2000/svg">
<path fill-rule="evenodd" clip-rule="evenodd" d="M99.0294 10.4547C99.1476 10.1789 99.4188 10 99.7188 10H107.529C107.829 10 108.101 10.1792 108.219 10.4555L125.434 50.7705C125.645 51.2653 125.282 51.815 124.744 51.815H115.889C115.584 51.815 115.31 51.631 115.195 51.3493L111.709 42.8402C111.671 42.7463 111.579 42.685 111.478 42.685H95.4948C95.3934 42.685 95.302 42.7463 95.2635 42.8402L91.7778 51.3493C91.6625 51.631 91.3882 51.815 91.0838 51.815H82.4488C81.9104 51.815 81.5474 51.2646 81.7594 50.7697L99.0294 10.4547ZM8.36499 11.025C8.36499 10.6108 8.70078 10.275 9.11499 10.275H39.42C39.8342 10.275 40.17 10.6108 40.17 11.025V18.725C40.17 19.1392 39.8342 19.475 39.42 19.475H18.53C18.3919 19.475 18.28 19.5869 18.28 19.725V26.69C18.28 26.8281 18.3919 26.94 18.53 26.94H36.89C37.3042 26.94 37.64 27.2758 37.64 27.69V35.39C37.64 35.8042 37.3042 36.14 36.89 36.14H18.53C18.3919 36.14 18.28 36.2519 18.28 36.39V51.065C18.28 51.4792 17.9442 51.815 17.53 51.815H9.11499C8.70078 51.815 8.36499 51.4792 8.36499 51.065V11.025ZM46.3386 11.025C46.3386 10.6108 46.6744 10.275 47.0886 10.275H55.5036C55.9178 10.275 56.2536 10.6108 56.2536 11.025V42.365C56.2536 42.5031 56.3655 42.615 56.5036 42.615H75.6886C76.1028 42.615 76.4386 42.9508 76.4386 43.365V51.065C76.4386 51.4792 76.1028 51.815 75.6886 51.815H47.0886C46.6744 51.815 46.3386 51.4792 46.3386 51.065V11.025ZM131.203 11.025C131.203 10.6108 131.539 10.275 131.953 10.275H140.423C140.837 10.275 141.173 10.6108 141.173 11.025V51.065C141.173 51.4792 140.837 51.815 140.423 51.815H131.953C131.539 51.815 131.203 51.4792 131.203 51.065V11.025ZM99.0319 33.5665C99.0045 33.6324 99.0529 33.705 99.1242 33.705H107.853C107.924 33.705 107.973 33.6327 107.946 33.5668L103.602 23.0495C103.568 22.9672 103.452 22.967 103.418 23.0492L99.0319 33.5665Z" fill="#4A7BF6"/>
<path fill-rule="evenodd" clip-rule="evenodd" d="M99.0294 10.4547C99.1476 10.1789 99.4188 10 99.7188 10H107.529C107.829 10 108.101 10.1792 108.219 10.4555L125.434 50.7705C125.645 51.2653 125.282 51.815 124.744 51.815H115.889C115.584 51.815 115.31 51.631 115.195 51.3493L111.709 42.8402C111.671 42.7463 111.579 42.685 111.478 42.685H95.4948C95.3934 42.685 95.302 42.7463 95.2635 42.8402L91.7778 51.3493C91.6625 51.631 91.3882 51.815 91.0838 51.815H82.4488C81.9104 51.815 81.5474 51.2646 81.7594 50.7697L99.0294 10.4547ZM8.36499 11.025C8.36499 10.6108 8.70078 10.275 9.11499 10.275H39.42C39.8342 10.275 40.17 10.6108 40.17 11.025V18.725C40.17 19.1392 39.8342 19.475 39.42 19.475H18.53C18.3919 19.475 18.28 19.5869 18.28 19.725V26.69C18.28 26.8281 18.3919 26.94 18.53 26.94H36.89C37.3042 26.94 37.64 27.2758 37.64 27.69V35.39C37.64 35.8042 37.3042 36.14 36.89 36.14H18.53C18.3919 36.14 18.28 36.2519 18.28 36.39V51.065C18.28 51.4792 17.9442 51.815 17.53 51.815H9.11499C8.70078 51.815 8.36499 51.4792 8.36499 51.065V11.025ZM46.3386 11.025C46.3386 10.6108 46.6744 10.275 47.0886 10.275H55.5036C55.9178 10.275 56.2536 10.6108 56.2536 11.025V42.365C56.2536 42.5031 56.3655 42.615 56.5036 42.615H75.6886C76.1028 42.615 76.4386 42.9508 76.4386 43.365V51.065C76.4386 51.4792 76.1028 51.815 75.6886 51.815H47.0886C46.6744 51.815 46.3386 51.4792 46.3386 51.065V11.025ZM131.203 11.025C131.203 10.6108 131.539 10.275 131.953 10.275H140.423C140.837 10.275 141.173 10.6108 141.173 11.025V51.065C141.173 51.4792 140.837 51.815 140.423 51.815H131.953C131.539 51.815 131.203 51.4792 131.203 51.065V11.025ZM99.0319 33.5665C99.0045 33.6324 99.0529 33.705 99.1242 33.705H107.853C107.924 33.705 107.973 33.6327 107.946 33.5668L103.602 23.0495C103.568 22.9672 103.452 22.967 103.418 23.0492L99.0319 33.5665Z" fill="#4A7BF6"/>
<path d="M8 48C12.2958 48 19 48 19 48" stroke="white" stroke-width="2"/>
<path d="M45 48C57.4968 48 77 48 77 48" stroke="white" stroke-width="2"/>
<path d="M82.5 48.065H93.5M130.5 48.065H142.5M113 48.065H125.5" stroke="white" stroke-width="2"/>
<g clip-path="url(#clip0_461_2177)">
<path d="M160.352 24.8365C160.352 24.8365 164.282 17.9921 167.91 14.9721C171.539 11.9521 174.237 11.8674 171.84 16.7785C166.5 27.6589 167.76 25.8526 167.76 25.8526C167.76 25.8526 166.719 26.7698 176.304 18.6554C179.371 16.0446 183.233 17.4276 179.495 21.0403C168.65 31.5397 171.484 29.9592 171.484 29.9592C171.484 29.9592 176.455 27.1085 179.7 26.8263C183.616 26.4876 182.028 29.2677 181.138 29.8039C170.663 36.1121 172.785 36.5072 172.785 36.5072C172.785 36.5072 175.88 36.5919 179.002 35.6322C180.344 35.3641 182.178 35.3077 181.288 37.368C179.645 39.626 174.551 43.281 172.005 44.791C168.486 46.8655 163.077 49.3351 155.778 44.41C148.48 39.4849 150.767 33.9247 152.67 31.1164C154.505 28.421 158.12 26.1207 165.418 31.9631C167.623 35.9427 157.832 34.8137 157.832 34.8137" stroke="#4A7BF6" stroke-width="1.5" stroke-miterlimit="10" stroke-linecap="round"/>
</g>
<defs>
<clipPath id="clip0_461_2177">
<rect width="33" height="36" fill="white" transform="matrix(-1 0 0 1 183 12.065)"/>
</clipPath>
</defs>
</svg>
