<svg width="52" height="52" viewBox="0 0 52 52" fill="none" xmlns="http://www.w3.org/2000/svg">
<path d="M16.2373 18.3916C16.2373 18.3916 22.4841 8.44778 28.2517 4.06019C34.0193 -0.32742 38.3073 -0.45044 34.4985 6.68454C26.0084 22.4922 28.0202 19.926 28.0202 19.926C28.0202 19.926 26.3578 21.2004 41.593 9.41142C46.4691 5.61839 52.6071 7.62766 46.6657 12.8764C29.4258 28.1304 33.9315 25.8342 33.9315 25.8342C33.9315 25.8342 41.8336 21.6925 46.9922 21.2824C53.2161 20.7905 50.6922 24.8294 49.2775 25.6086C32.6256 34.7733 35.9992 35.3474 35.9992 35.3474C35.9992 35.3474 40.9191 35.4704 45.881 34.0763C48.0155 33.6867 50.9308 33.6047 49.5161 36.5982C46.9044 39.8785 38.8075 45.1888 34.7601 47.3826C29.1662 50.3965 20.5673 53.9845 8.96712 46.8291C-2.63494 39.6735 1.00014 31.5954 4.02618 27.5155C6.94149 23.5994 12.6881 20.2575 24.2902 28.7455C27.7935 34.5272 12.2318 32.8872 12.2318 32.8872" stroke="#4A7BF6" stroke-width="1.5" stroke-miterlimit="10" stroke-linecap="round"/>
</svg>
