<svg width="191" height="61" viewBox="0 0 191 61" fill="none" xmlns="http://www.w3.org/2000/svg">
<path fill-rule="evenodd" clip-rule="evenodd" d="M98.6644 10.4547C98.7826 10.1789 99.0538 10 99.3538 10H107.164C107.464 10 107.736 10.1792 107.854 10.4555L125.069 50.7705C125.28 51.2653 124.917 51.815 124.379 51.815H115.524C115.219 51.815 114.945 51.631 114.83 51.3493L111.344 42.8402C111.306 42.7463 111.214 42.685 111.113 42.685H95.1298C95.0284 42.685 94.937 42.7463 94.8985 42.8402L91.4129 51.3493C91.2975 51.631 91.0232 51.815 90.7188 51.815H82.0838C81.5454 51.815 81.1824 51.2646 81.3944 50.7697L98.6644 10.4547ZM100.013 11.5C99.9133 11.5 99.8229 11.5596 99.7835 11.6516L83.2807 50.1756C83.2525 50.2416 83.3009 50.315 83.3727 50.315H90.0478C90.1493 50.315 90.2407 50.2537 90.2792 50.1598L93.7648 41.6507C93.8802 41.369 94.1544 41.185 94.4588 41.185H111.784C112.088 41.185 112.362 41.369 112.478 41.6507L115.964 50.1598C116.002 50.2537 116.093 50.315 116.195 50.315H123.092C123.163 50.315 123.212 50.2417 123.184 50.1757L106.733 11.6518C106.694 11.5597 106.604 11.5 106.503 11.5H100.013ZM8 11.025C8 10.6108 8.33579 10.275 8.75 10.275H39.055C39.4692 10.275 39.805 10.6108 39.805 11.025V18.725C39.805 19.1392 39.4692 19.475 39.055 19.475H18.165C18.0269 19.475 17.915 19.5869 17.915 19.725V26.69C17.915 26.8281 18.0269 26.94 18.165 26.94H36.525C36.9392 26.94 37.275 27.2758 37.275 27.69V35.39C37.275 35.8042 36.9392 36.14 36.525 36.14H18.165C18.0269 36.14 17.915 36.2519 17.915 36.39V51.065C17.915 51.4792 17.5792 51.815 17.165 51.815H8.75C8.33579 51.815 8 51.4792 8 51.065V11.025ZM9.75 11.775C9.61193 11.775 9.5 11.8869 9.5 12.025V50.065C9.5 50.2031 9.61193 50.315 9.75 50.315H16.165C16.3031 50.315 16.415 50.2031 16.415 50.065V35.39C16.415 34.9758 16.7508 34.64 17.165 34.64H35.525C35.6631 34.64 35.775 34.5281 35.775 34.39V28.69C35.775 28.5519 35.6631 28.44 35.525 28.44H17.165C16.7508 28.44 16.415 28.1042 16.415 27.69V18.725C16.415 18.3108 16.7508 17.975 17.165 17.975H38.055C38.1931 17.975 38.305 17.8631 38.305 17.725V12.025C38.305 11.8869 38.1931 11.775 38.055 11.775H9.75ZM45.9736 11.025C45.9736 10.6108 46.3094 10.275 46.7236 10.275H55.1386C55.5528 10.275 55.8886 10.6108 55.8886 11.025V42.365C55.8886 42.5031 56.0006 42.615 56.1386 42.615H75.3236C75.7379 42.615 76.0736 42.9508 76.0736 43.365V51.065C76.0736 51.4792 75.7379 51.815 75.3236 51.815H46.7236C46.3094 51.815 45.9736 51.4792 45.9736 51.065V11.025ZM47.7236 11.775C47.5856 11.775 47.4736 11.8869 47.4736 12.025V50.065C47.4736 50.2031 47.5856 50.315 47.7236 50.315H74.3236C74.4617 50.315 74.5736 50.2031 74.5736 50.065V44.365C74.5736 44.2269 74.4617 44.115 74.3236 44.115H55.1386C54.7244 44.115 54.3886 43.7792 54.3886 43.365V12.025C54.3886 11.8869 54.2767 11.775 54.1386 11.775H47.7236ZM130.838 11.025C130.838 10.6108 131.174 10.275 131.588 10.275H140.058C140.472 10.275 140.808 10.6108 140.808 11.025V51.065C140.808 51.4792 140.472 51.815 140.058 51.815H131.588C131.174 51.815 130.838 51.4792 130.838 51.065V11.025ZM132.588 11.775C132.45 11.775 132.338 11.8869 132.338 12.025V50.065C132.338 50.2031 132.45 50.315 132.588 50.315H139.058C139.196 50.315 139.308 50.2031 139.308 50.065V12.025C139.308 11.8869 139.196 11.775 139.058 11.775H132.588ZM102.457 20.5813C102.714 19.9651 103.587 19.9666 103.842 20.5837L109.452 34.1687C109.656 34.6625 109.293 35.205 108.759 35.205H97.4838C96.9486 35.205 96.5856 34.6604 96.7916 34.1663L102.457 20.5813ZM98.6669 33.5665C98.6395 33.6324 98.6879 33.705 98.7592 33.705H107.488C107.559 33.705 107.608 33.6327 107.581 33.5668L103.237 23.0495C103.203 22.9672 103.087 22.967 103.053 23.0492L98.6669 33.5665Z" fill="black"/>
<path d="M8.63501 48.065C12.1497 48.065 17.635 48.065 17.635 48.065" stroke="black"/>
<path d="M46.635 48.065C57.9602 48.065 75.635 48.065 75.635 48.065" stroke="black"/>
<path d="M83.635 48.065H91.635M132.135 48.065H140.135M114.635 48.065H122.635" stroke="black"/>
<g clip-path="url(#clip0_462_2733)">
<path d="M159.987 24.8365C159.987 24.8365 163.917 17.9921 167.545 14.9721C171.174 11.9521 173.872 11.8674 171.475 16.7785C166.135 27.6589 167.395 25.8526 167.395 25.8526C167.395 25.8526 166.354 26.7698 175.939 18.6554C179.006 16.0446 182.868 17.4276 179.13 21.0403C168.285 31.5397 171.119 29.9592 171.119 29.9592C171.119 29.9592 176.09 27.1085 179.335 26.8263C183.251 26.4876 181.663 29.2677 180.773 29.8039C170.298 36.1121 172.42 36.5072 172.42 36.5072C172.42 36.5072 175.515 36.5919 178.637 35.6322C179.979 35.3641 181.813 35.3077 180.923 37.368C179.28 39.626 174.186 43.281 171.64 44.791C168.121 46.8655 162.712 49.3351 155.413 44.41C148.115 39.4849 150.402 33.9247 152.305 31.1164C154.14 28.421 157.755 26.1207 165.053 31.9631C167.258 35.9427 157.467 34.8137 157.467 34.8137" stroke="black" stroke-width="1.5" stroke-miterlimit="10" stroke-linecap="round"/>
</g>
<defs>
<clipPath id="clip0_462_2733">
<rect width="33" height="36" fill="white" transform="matrix(-1 0 0 1 182.635 12.065)"/>
</clipPath>
</defs>
</svg>
