<svg width="172" height="54" viewBox="0 0 172 54" fill="none" xmlns="http://www.w3.org/2000/svg">
<path fill-rule="evenodd" clip-rule="evenodd" d="M117.477 0.45396C117.595 0.178518 117.866 0 118.166 0H128.574C128.874 0 129.145 0.178889 129.263 0.454757L151.746 52.9548C151.958 53.4496 151.595 54 151.056 54H139.105C138.801 54 138.527 53.8163 138.411 53.535L133.822 42.3645C133.784 42.2707 133.693 42.2095 133.591 42.2095H112.792C112.691 42.2095 112.6 42.2707 112.561 42.3645L107.972 53.535C107.857 53.8163 107.582 54 107.278 54H95.6118C95.0731 54 94.71 53.4489 94.9227 52.954L117.477 0.45396ZM119.118 1.9371C119.018 1.9371 118.928 1.99661 118.888 2.08842L97.4788 51.9234C97.4504 51.9894 97.4988 52.0629 97.5707 52.0629H106.31C106.411 52.0629 106.503 52.0017 106.541 51.9079L111.13 40.7374C111.246 40.4561 111.52 40.2724 111.824 40.2724H134.56C134.864 40.2724 135.138 40.4561 135.253 40.7374L139.842 51.9079C139.881 52.0017 139.972 52.0629 140.074 52.0629H149.1C149.172 52.0629 149.22 51.9895 149.192 51.9235L127.851 2.08869C127.811 1.99673 127.721 1.9371 127.621 1.9371H119.118ZM0 1.10514C0 0.690922 0.335788 0.355135 0.750001 0.355135H40.4407C40.8549 0.355135 41.1907 0.690921 41.1907 1.10513V11.486C41.1907 11.9003 40.8549 12.236 40.4407 12.236H13.0909C12.9529 12.236 12.8409 12.348 12.8409 12.486V21.6264C12.8409 21.7644 12.9529 21.8764 13.0909 21.8764H37.1641C37.5783 21.8764 37.9141 22.2122 37.9141 22.6264V33.0073C37.9141 33.4215 37.5783 33.7573 37.1641 33.7573H13.0909C12.9529 33.7573 12.8409 33.8692 12.8409 34.0073V53.25C12.8409 53.6642 12.5051 54 12.0909 54H0.75C0.335786 54 0 53.6642 0 53.25V1.10514ZM2.19265 2.29224C2.05458 2.29224 1.94265 2.40417 1.94265 2.54224V51.8129C1.94265 51.951 2.05458 52.0629 2.19265 52.0629H10.6483C10.7864 52.0629 10.8983 51.951 10.8983 51.8129V32.5702C10.8983 32.1559 11.2341 31.8202 11.6483 31.8202H35.7215C35.8595 31.8202 35.9715 31.7082 35.9715 31.5702V24.0635C35.9715 23.9254 35.8595 23.8135 35.7215 23.8135H11.6483C11.2341 23.8135 10.8983 23.4777 10.8983 23.0635V11.0489C10.8983 10.6347 11.2341 10.2989 11.6483 10.2989H38.9981C39.1361 10.2989 39.2481 10.187 39.2481 10.0489V2.54224C39.2481 2.40417 39.1361 2.29224 38.9981 2.29224H2.19265ZM49.1797 1.10514C49.1797 0.690922 49.5155 0.355135 49.9297 0.355135H61.2706C61.6849 0.355135 62.0206 0.690923 62.0206 1.10514V41.8691C62.0206 42.0072 62.1326 42.1191 62.2706 42.1191H87.4123C87.8265 42.1191 88.1623 42.4549 88.1623 42.8691V53.25C88.1623 53.6642 87.8265 54 87.4123 54H49.9297C49.5155 54 49.1797 53.6642 49.1797 53.25V1.10514ZM51.3724 2.29224C51.2343 2.29224 51.1224 2.40417 51.1224 2.54224V51.8129C51.1224 51.951 51.2343 52.0629 51.3724 52.0629H85.9696C86.1077 52.0629 86.2196 51.951 86.2196 51.8129V44.3062C86.2196 44.1681 86.1077 44.0562 85.9696 44.0562H60.828C60.4138 44.0562 60.078 43.7204 60.078 43.3062V2.54224C60.078 2.40417 59.9661 2.29224 59.828 2.29224H51.3724ZM159.088 1.10514C159.088 0.690922 159.424 0.355135 159.838 0.355135H171.25C171.664 0.355135 172 0.69092 172 1.10513V53.25C172 53.6642 171.664 54 171.25 54H159.838C159.424 54 159.088 53.6642 159.088 53.25V1.10514ZM161.281 2.29224C161.142 2.29224 161.031 2.40417 161.031 2.54224V51.8129C161.031 51.951 161.142 52.0629 161.281 52.0629H169.807C169.945 52.0629 170.057 51.951 170.057 51.8129V2.54224C170.057 2.40417 169.945 2.29224 169.807 2.29224H161.281ZM122.536 13.1732C122.794 12.5579 123.666 12.5594 123.921 13.1756L131.515 31.5128C131.72 32.0067 131.357 32.5498 130.823 32.5498H115.56C115.024 32.5498 114.661 32.0046 114.868 31.5104L122.536 13.1732ZM117.406 30.4741C117.378 30.54 117.427 30.6127 117.498 30.6127H128.891C128.963 30.6127 129.011 30.5403 128.984 30.4744L123.315 16.7865C123.281 16.7044 123.165 16.7042 123.13 16.7862L117.406 30.4741Z" fill="black"/>
<path fill-rule="evenodd" clip-rule="evenodd" d="M117.477 0.45396C117.595 0.178518 117.866 0 118.166 0H128.574C128.874 0 129.145 0.178889 129.263 0.454757L151.746 52.9548C151.958 53.4496 151.595 54 151.056 54H139.105C138.801 54 138.527 53.8163 138.411 53.535L133.822 42.3645C133.784 42.2707 133.693 42.2095 133.591 42.2095H112.792C112.691 42.2095 112.6 42.2707 112.561 42.3645L107.972 53.535C107.857 53.8163 107.582 54 107.278 54H95.6118C95.0731 54 94.71 53.4489 94.9227 52.954L117.477 0.45396ZM119.118 1.9371C119.018 1.9371 118.928 1.99661 118.888 2.08842L97.4788 51.9234C97.4504 51.9894 97.4988 52.0629 97.5707 52.0629H106.31C106.411 52.0629 106.503 52.0017 106.541 51.9079L111.13 40.7374C111.246 40.4561 111.52 40.2724 111.824 40.2724H134.56C134.864 40.2724 135.138 40.4561 135.253 40.7374L139.842 51.9079C139.881 52.0017 139.972 52.0629 140.074 52.0629H149.1C149.172 52.0629 149.22 51.9895 149.192 51.9235L127.851 2.08869C127.811 1.99673 127.721 1.9371 127.621 1.9371H119.118ZM0 1.10514C0 0.690922 0.335788 0.355135 0.750001 0.355135H40.4407C40.8549 0.355135 41.1907 0.690921 41.1907 1.10513V11.486C41.1907 11.9003 40.8549 12.236 40.4407 12.236H13.0909C12.9529 12.236 12.8409 12.348 12.8409 12.486V21.6264C12.8409 21.7644 12.9529 21.8764 13.0909 21.8764H37.1641C37.5783 21.8764 37.9141 22.2122 37.9141 22.6264V33.0073C37.9141 33.4215 37.5783 33.7573 37.1641 33.7573H13.0909C12.9529 33.7573 12.8409 33.8692 12.8409 34.0073V53.25C12.8409 53.6642 12.5051 54 12.0909 54H0.75C0.335786 54 0 53.6642 0 53.25V1.10514ZM2.19265 2.29224C2.05458 2.29224 1.94265 2.40417 1.94265 2.54224V51.8129C1.94265 51.951 2.05458 52.0629 2.19265 52.0629H10.6483C10.7864 52.0629 10.8983 51.951 10.8983 51.8129V32.5702C10.8983 32.1559 11.2341 31.8202 11.6483 31.8202H35.7215C35.8595 31.8202 35.9715 31.7082 35.9715 31.5702V24.0635C35.9715 23.9254 35.8595 23.8135 35.7215 23.8135H11.6483C11.2341 23.8135 10.8983 23.4777 10.8983 23.0635V11.0489C10.8983 10.6347 11.2341 10.2989 11.6483 10.2989H38.9981C39.1361 10.2989 39.2481 10.187 39.2481 10.0489V2.54224C39.2481 2.40417 39.1361 2.29224 38.9981 2.29224H2.19265ZM49.1797 1.10514C49.1797 0.690922 49.5155 0.355135 49.9297 0.355135H61.2706C61.6849 0.355135 62.0206 0.690923 62.0206 1.10514V41.8691C62.0206 42.0072 62.1326 42.1191 62.2706 42.1191H87.4123C87.8265 42.1191 88.1623 42.4549 88.1623 42.8691V53.25C88.1623 53.6642 87.8265 54 87.4123 54H49.9297C49.5155 54 49.1797 53.6642 49.1797 53.25V1.10514ZM51.3724 2.29224C51.2343 2.29224 51.1224 2.40417 51.1224 2.54224V51.8129C51.1224 51.951 51.2343 52.0629 51.3724 52.0629H85.9696C86.1077 52.0629 86.2196 51.951 86.2196 51.8129V44.3062C86.2196 44.1681 86.1077 44.0562 85.9696 44.0562H60.828C60.4138 44.0562 60.078 43.7204 60.078 43.3062V2.54224C60.078 2.40417 59.9661 2.29224 59.828 2.29224H51.3724ZM159.088 1.10514C159.088 0.690922 159.424 0.355135 159.838 0.355135H171.25C171.664 0.355135 172 0.69092 172 1.10513V53.25C172 53.6642 171.664 54 171.25 54H159.838C159.424 54 159.088 53.6642 159.088 53.25V1.10514ZM161.281 2.29224C161.142 2.29224 161.031 2.40417 161.031 2.54224V51.8129C161.031 51.951 161.142 52.0629 161.281 52.0629H169.807C169.945 52.0629 170.057 51.951 170.057 51.8129V2.54224C170.057 2.40417 169.945 2.29224 169.807 2.29224H161.281ZM122.536 13.1732C122.794 12.5579 123.666 12.5594 123.921 13.1756L131.515 31.5128C131.72 32.0067 131.357 32.5498 130.823 32.5498H115.56C115.024 32.5498 114.661 32.0046 114.868 31.5104L122.536 13.1732ZM117.406 30.4741C117.378 30.54 117.427 30.6127 117.498 30.6127H128.891C128.963 30.6127 129.011 30.5403 128.984 30.4744L123.315 16.7865C123.281 16.7044 123.165 16.7042 123.13 16.7862L117.406 30.4741Z" fill="#4A7BF6"/>
<path d="M0.822388 49.1572C5.37431 49.1572 12.4783 49.1572 12.4783 49.1572" stroke="#4A7BF6"/>
<path d="M50.0363 49.1572C64.7035 49.1572 87.5942 49.1572 87.5942 49.1572" stroke="#4A7BF6"/>
<path d="M97.955 49.1572H108.316M160.767 49.1572H171.128M138.103 49.1572H148.464" stroke="#4A7BF6"/>
</svg>
