<svg width="28" height="31" viewBox="0 0 28 31" fill="none" xmlns="http://www.w3.org/2000/svg">
<g clip-path="url(#clip0_425_3477)">
<path d="M8.8477 11.3535C8.8477 11.3535 12.1197 5.65487 15.1409 3.14044C18.1621 0.626005 20.408 0.555507 18.4129 4.6444C13.9666 13.7034 15.0155 12.1995 15.0155 12.1995C15.0155 12.1995 14.149 12.9632 22.1295 6.20711C24.6833 4.03342 27.8983 5.18488 24.7859 8.19281C15.7565 16.9346 18.1165 15.6186 18.1165 15.6186C18.1165 15.6186 22.2549 13.2452 24.9569 13.0102C28.2175 12.7282 26.895 15.0429 26.154 15.4894C17.4324 20.7415 19.1995 21.0705 19.1995 21.0705C19.1995 21.0705 21.7761 21.141 24.3754 20.342C25.4927 20.1187 27.0204 20.0717 26.2794 21.7872C24.9113 23.6671 20.6702 26.7103 18.5497 27.9675C15.6197 29.6947 11.1164 31.7509 5.03987 27.6503C-1.03669 23.5497 0.867222 18.9203 2.45192 16.5821C3.97961 14.3379 6.98939 12.4227 13.066 17.2871C14.9015 20.6005 6.74998 19.6605 6.74998 19.6605" stroke="#4A7BF6" stroke-width="1.5" stroke-miterlimit="10" stroke-linecap="round"/>
</g>
<defs>
<clipPath id="clip0_425_3477">
<rect width="27.4757" height="29.9735" fill="white" transform="matrix(-1 0 0 1 27.7043 0.719727)"/>
</clipPath>
</defs>
</svg>
