<svg width="230" height="230" viewBox="0 0 230 230" fill="none" xmlns="http://www.w3.org/2000/svg">
<path d="M81.4439 111.42H91.218V115H95.3345V111.42H97.8601V107.97H95.3345V94.6364H89.9453L81.4439 108.03V111.42ZM91.2976 107.97H85.7791V107.811L91.1385 99.3295H91.2976V107.97ZM108.713 115.447C113.834 115.447 116.926 111.55 116.936 104.838C116.946 98.1761 113.814 94.358 108.713 94.358C103.602 94.358 100.5 98.1662 100.49 104.838C100.47 111.53 103.582 115.438 108.713 115.447ZM108.713 111.878C106.376 111.878 104.865 109.531 104.875 104.838C104.885 100.214 106.386 97.8878 108.713 97.8878C111.03 97.8878 112.541 100.214 112.541 104.838C112.551 109.531 111.04 111.878 108.713 111.878ZM137.633 111.182C137.643 113.628 139.204 115.706 142.117 115.706C145.001 115.706 146.612 113.628 146.602 111.182V110.108C146.612 107.642 145.04 105.584 142.117 105.584C139.244 105.584 137.643 107.662 137.633 110.108V111.182ZM127.183 99.5284C127.192 101.974 128.754 104.033 131.657 104.033C134.55 104.033 136.161 101.994 136.151 99.5284V98.4545C136.161 95.9886 134.59 93.9304 131.657 93.9304C128.813 93.9304 127.192 95.9886 127.183 98.4545V99.5284ZM128.157 115H130.752L144.752 94.6364H142.157L128.157 115ZM140.526 110.108C140.536 109.134 140.924 108.129 142.117 108.129C143.37 108.129 143.698 109.134 143.688 110.108V111.182C143.698 112.156 143.33 113.141 142.117 113.141C140.904 113.141 140.536 112.126 140.526 111.182V110.108ZM130.096 98.4545C130.106 97.5099 130.474 96.4759 131.657 96.4759C132.91 96.4759 133.248 97.4801 133.238 98.4545V99.5284C133.248 100.503 132.87 101.487 131.657 101.487C130.484 101.487 130.106 100.503 130.096 99.5284V98.4545ZM70.8451 133.144C71.9491 133.144 72.6691 132.64 73.1131 132.076V133H74.2051V129.064C74.2051 128.236 73.9891 127.588 73.5331 127.132C73.0651 126.664 72.3571 126.412 71.4211 126.412C70.4491 126.412 69.7411 126.64 69.0331 126.964L69.3571 127.864C69.9451 127.588 70.5331 127.408 71.2891 127.408C72.4531 127.408 73.1251 127.984 73.1251 129.064V129.28C72.5611 129.112 72.0091 129.004 71.2051 129.004C69.5851 129.004 68.4571 129.724 68.4571 131.104V131.128C68.4571 132.448 69.6331 133.144 70.8451 133.144ZM71.0971 132.268C70.2691 132.268 69.5731 131.824 69.5731 131.068V131.044C69.5731 130.276 70.2211 129.784 71.3611 129.784C72.0931 129.784 72.6931 129.916 73.1371 130.06V130.624C73.1371 131.596 72.2371 132.268 71.0971 132.268ZM79.8727 133.144C81.4207 133.144 82.9447 131.896 82.9447 129.76V129.736C82.9447 127.6 81.4087 126.364 79.8727 126.364C78.7207 126.364 77.9767 126.988 77.4607 127.744V123.892H76.3327V133H77.4607V131.824C77.9527 132.52 78.6967 133.144 79.8727 133.144ZM79.6327 132.148C78.4927 132.148 77.4247 131.188 77.4247 129.76V129.736C77.4247 128.32 78.4927 127.36 79.6327 127.36C80.7967 127.36 81.7927 128.296 81.7927 129.748V129.772C81.7927 131.248 80.8207 132.148 79.6327 132.148ZM87.6868 135.016C88.7668 135.016 89.6428 134.728 90.2188 134.152C90.7588 133.624 91.0468 132.832 91.0468 131.8V126.508H89.9308V127.624C89.4028 126.94 88.6468 126.364 87.4708 126.364C85.9348 126.364 84.4468 127.528 84.4468 129.424V129.448C84.4468 131.332 85.9228 132.496 87.4708 132.496C88.6228 132.496 89.3788 131.92 89.9308 131.176V131.86C89.9308 133.324 89.0668 134.068 87.6748 134.068C86.7628 134.068 85.9588 133.792 85.2268 133.288L84.7468 134.164C85.6108 134.728 86.6188 135.016 87.6868 135.016ZM87.7228 131.512C86.5708 131.512 85.5988 130.672 85.5988 129.436V129.412C85.5988 128.152 86.5588 127.348 87.7228 127.348C88.8868 127.348 89.9548 128.176 89.9548 129.424V129.448C89.9548 130.672 88.8868 131.512 87.7228 131.512ZM96.1609 133.144C97.3849 133.144 98.2009 132.664 98.8369 131.932L98.1529 131.32C97.6249 131.86 97.0369 132.196 96.1849 132.196C95.1049 132.196 94.1809 131.464 94.0369 130.168H99.0649C99.0769 130.036 99.0889 129.94 99.0889 129.82C99.0889 127.924 97.9969 126.364 96.0289 126.364C94.2169 126.364 92.8969 127.876 92.8969 129.748V129.772C92.8969 131.788 94.3609 133.144 96.1609 133.144ZM94.0249 129.364C94.1569 128.176 94.9369 127.312 96.0169 127.312C97.2049 127.312 97.8529 128.248 97.9489 129.364H94.0249ZM103.036 133.12C104.356 133.12 105.388 132.424 105.388 131.14V131.116C105.388 129.952 104.308 129.556 103.312 129.256C102.484 129.004 101.704 128.776 101.704 128.2V128.176C101.704 127.684 102.148 127.324 102.856 127.324C103.456 127.324 104.14 127.564 104.752 127.948L105.244 127.12C104.572 126.676 103.684 126.388 102.892 126.388C101.608 126.388 100.648 127.132 100.648 128.296V128.32C100.648 129.52 101.764 129.88 102.76 130.168C103.588 130.408 104.32 130.636 104.32 131.248V131.272C104.32 131.836 103.816 132.196 103.084 132.196C102.352 132.196 101.584 131.908 100.876 131.38L100.324 132.172C101.092 132.772 102.112 133.12 103.036 133.12ZM110.204 133.144C111.44 133.144 112.208 132.628 112.856 131.908L112.16 131.236C111.644 131.764 111.056 132.148 110.264 132.148C108.968 132.148 108.008 131.092 108.008 129.76V129.736C108.008 128.428 108.956 127.36 110.204 127.36C111.044 127.36 111.584 127.768 112.088 128.284L112.808 127.516C112.196 126.868 111.44 126.364 110.216 126.364C108.296 126.364 106.868 127.924 106.868 129.76V129.784C106.868 131.62 108.296 133.144 110.204 133.144ZM114.531 133H115.659V129.304C115.659 128.14 116.427 127.396 117.459 127.396C118.515 127.396 119.127 128.092 119.127 129.244V133H120.255V128.932C120.255 127.408 119.367 126.364 117.819 126.364C116.739 126.364 116.091 126.928 115.659 127.6V123.892H114.531V133ZM122.492 133H123.608V123.892H122.492V133ZM128.937 133.144C130.905 133.144 132.357 131.596 132.357 129.76V129.736C132.357 127.888 130.917 126.364 128.961 126.364C126.993 126.364 125.541 127.924 125.541 129.76V129.784C125.541 131.62 126.969 133.144 128.937 133.144ZM128.961 132.148C127.653 132.148 126.681 131.068 126.681 129.76V129.736C126.681 128.44 127.593 127.36 128.937 127.36C130.233 127.36 131.205 128.44 131.205 129.76V129.784C131.205 131.08 130.305 132.148 128.961 132.148ZM136.36 133.12C137.68 133.12 138.712 132.424 138.712 131.14V131.116C138.712 129.952 137.632 129.556 136.636 129.256C135.808 129.004 135.028 128.776 135.028 128.2V128.176C135.028 127.684 135.472 127.324 136.18 127.324C136.78 127.324 137.464 127.564 138.076 127.948L138.568 127.12C137.896 126.676 137.008 126.388 136.216 126.388C134.932 126.388 133.972 127.132 133.972 128.296V128.32C133.972 129.52 135.088 129.88 136.084 130.168C136.912 130.408 137.644 130.636 137.644 131.248V131.272C137.644 131.836 137.14 132.196 136.408 132.196C135.676 132.196 134.908 131.908 134.2 131.38L133.648 132.172C134.416 132.772 135.436 133.12 136.36 133.12ZM142.631 133.12C143.951 133.12 144.983 132.424 144.983 131.14V131.116C144.983 129.952 143.903 129.556 142.907 129.256C142.079 129.004 141.299 128.776 141.299 128.2V128.176C141.299 127.684 141.743 127.324 142.451 127.324C143.051 127.324 143.735 127.564 144.347 127.948L144.839 127.12C144.167 126.676 143.279 126.388 142.487 126.388C141.203 126.388 140.243 127.132 140.243 128.296V128.32C140.243 129.52 141.359 129.88 142.355 130.168C143.183 130.408 143.915 130.636 143.915 131.248V131.272C143.915 131.836 143.411 132.196 142.679 132.196C141.947 132.196 141.179 131.908 140.471 131.38L139.919 132.172C140.687 132.772 141.707 133.12 142.631 133.12ZM149.727 133.144C150.951 133.144 151.767 132.664 152.403 131.932L151.719 131.32C151.191 131.86 150.603 132.196 149.751 132.196C148.671 132.196 147.747 131.464 147.603 130.168H152.631C152.643 130.036 152.655 129.94 152.655 129.82C152.655 127.924 151.563 126.364 149.595 126.364C147.783 126.364 146.463 127.876 146.463 129.748V129.772C146.463 131.788 147.927 133.144 149.727 133.144ZM147.591 129.364C147.723 128.176 148.503 127.312 149.583 127.312C150.771 127.312 151.419 128.248 151.515 129.364H147.591ZM154.43 133H155.558V129.304C155.558 128.14 156.326 127.396 157.358 127.396C158.414 127.396 159.026 128.092 159.026 129.244V133H160.154V128.932C160.154 127.408 159.266 126.364 157.718 126.364C156.638 126.364 155.99 126.928 155.558 127.6V126.508H154.43V133Z" fill="#525252"/>
<mask id="path-2-inside-1_297_3902" fill="white">
<path d="M215 115C215 170.228 170.228 215 115 215C59.7715 215 15 170.228 15 115C15 59.7715 59.7715 15 115 15C170.228 15 215 59.7715 215 115ZM40 115C40 156.421 73.5786 190 115 190C156.421 190 190 156.421 190 115C190 73.5786 156.421 40 115 40C73.5786 40 40 73.5786 40 115Z"/>
</mask>
<path d="M215 115C215 170.228 170.228 215 115 215C59.7715 215 15 170.228 15 115C15 59.7715 59.7715 15 115 15C170.228 15 215 59.7715 215 115ZM40 115C40 156.421 73.5786 190 115 190C156.421 190 190 156.421 190 115C190 73.5786 156.421 40 115 40C73.5786 40 40 73.5786 40 115Z" stroke="#C5DCFF" stroke-width="6" mask="url(#path-2-inside-1_297_3902)"/>
<path d="M115 15C133.387 15 151.417 20.0692 167.11 29.6504C182.803 39.2316 195.55 52.9539 203.951 69.3089C212.352 85.664 216.082 104.019 214.729 122.355C213.377 140.692 206.995 158.301 196.286 173.247L175.964 158.685C183.996 147.476 188.783 134.269 189.797 120.516C190.811 106.764 188.014 92.998 181.713 80.7317C175.413 68.4654 165.852 58.1737 154.082 50.9878C142.313 43.8019 128.79 40 115 40V15Z" fill="#4A7BF6"/>
<path d="M115 20C115 17.2386 117.24 14.987 119.998 15.1249C139.35 16.0932 158.045 22.6671 173.779 34.0983C190.863 46.5111 203.58 64.014 210.106 84.0983C216.631 104.183 216.631 125.817 210.106 145.902C204.096 164.398 192.836 180.705 177.749 192.863C175.599 194.595 172.463 194.091 170.84 191.857L162.023 179.721C160.4 177.487 160.907 174.373 163.028 172.605C173.858 163.575 181.951 151.65 186.329 138.176C191.224 123.113 191.224 106.887 186.329 91.8237C181.435 76.7605 171.897 63.6333 159.084 54.3237C147.622 45.9963 134.065 41.1058 119.997 40.1666C117.241 39.9826 115 37.7614 115 35V20Z" fill="#4A7BF6"/>
</svg>
