<svg width="211" height="225" viewBox="0 0 211 225" fill="none" xmlns="http://www.w3.org/2000/svg">
<rect width="211" height="225" rx="10" fill="white"/>
<path d="M23.08 200H24.208V196.304C24.208 195.176 24.928 194.396 25.888 194.396C26.86 194.396 27.448 195.068 27.448 196.22V200H28.576V196.28C28.576 195.068 29.308 194.396 30.244 194.396C31.228 194.396 31.816 195.056 31.816 196.244V200H32.944V195.944C32.944 194.336 32.044 193.364 30.568 193.364C29.488 193.364 28.792 193.916 28.312 194.612C27.964 193.904 27.292 193.364 26.272 193.364C25.204 193.364 24.628 193.94 24.208 194.564V193.508H23.08V200ZM37.9848 200.144C39.2088 200.144 40.0248 199.664 40.6608 198.932L39.9768 198.32C39.4488 198.86 38.8608 199.196 38.0088 199.196C36.9288 199.196 36.0048 198.464 35.8608 197.168H40.8888C40.9008 197.036 40.9128 196.94 40.9128 196.82C40.9128 194.924 39.8208 193.364 37.8528 193.364C36.0408 193.364 34.7208 194.876 34.7208 196.748V196.772C34.7208 198.788 36.1848 200.144 37.9848 200.144ZM35.8488 196.364C35.9808 195.176 36.7608 194.312 37.8408 194.312C39.0288 194.312 39.6768 195.248 39.7728 196.364H35.8488ZM42.7123 192.212H43.9723V191.036H42.7123V192.212ZM42.7843 200H43.9003V193.508H42.7843V200ZM48.389 200.12C49.709 200.12 50.741 199.424 50.741 198.14V198.116C50.741 196.952 49.661 196.556 48.665 196.256C47.837 196.004 47.057 195.776 47.057 195.2V195.176C47.057 194.684 47.501 194.324 48.209 194.324C48.809 194.324 49.493 194.564 50.105 194.948L50.597 194.12C49.925 193.676 49.037 193.388 48.245 193.388C46.961 193.388 46.001 194.132 46.001 195.296V195.32C46.001 196.52 47.117 196.88 48.113 197.168C48.941 197.408 49.673 197.636 49.673 198.248V198.272C49.673 198.836 49.169 199.196 48.437 199.196C47.705 199.196 46.937 198.908 46.229 198.38L45.677 199.172C46.445 199.772 47.465 200.12 48.389 200.12ZM54.672 200.108C55.164 200.108 55.536 200.012 55.884 199.82V198.872C55.56 199.028 55.284 199.1 54.948 199.1C54.336 199.1 53.94 198.824 53.94 198.104V194.492H55.908V193.508H53.94V191.6H52.824V193.508H51.948V194.492H52.824V198.26C52.824 199.604 53.616 200.108 54.672 200.108ZM64.488 202.016C65.568 202.016 66.444 201.728 67.02 201.152C67.56 200.624 67.848 199.832 67.848 198.8V193.508H66.732V194.624C66.204 193.94 65.448 193.364 64.272 193.364C62.736 193.364 61.248 194.528 61.248 196.424V196.448C61.248 198.332 62.724 199.496 64.272 199.496C65.424 199.496 66.18 198.92 66.732 198.176V198.86C66.732 200.324 65.868 201.068 64.476 201.068C63.564 201.068 62.76 200.792 62.028 200.288L61.548 201.164C62.412 201.728 63.42 202.016 64.488 202.016ZM64.524 198.512C63.372 198.512 62.4 197.672 62.4 196.436V196.412C62.4 195.152 63.36 194.348 64.524 194.348C65.688 194.348 66.756 195.176 66.756 196.424V196.448C66.756 197.672 65.688 198.512 64.524 198.512ZM72.962 200.144C74.186 200.144 75.002 199.664 75.638 198.932L74.954 198.32C74.426 198.86 73.838 199.196 72.986 199.196C71.906 199.196 70.982 198.464 70.838 197.168H75.866C75.878 197.036 75.89 196.94 75.89 196.82C75.89 194.924 74.798 193.364 72.83 193.364C71.018 193.364 69.698 194.876 69.698 196.748V196.772C69.698 198.788 71.162 200.144 72.962 200.144ZM70.826 196.364C70.958 195.176 71.738 194.312 72.818 194.312C74.006 194.312 74.654 195.248 74.75 196.364H70.826ZM77.7615 200H78.8775V190.892H77.7615V200ZM84.0742 200.144C85.2982 200.144 86.1142 199.664 86.7502 198.932L86.0662 198.32C85.5382 198.86 84.9502 199.196 84.0982 199.196C83.0182 199.196 82.0942 198.464 81.9502 197.168H86.9782C86.9902 197.036 87.0022 196.94 87.0022 196.82C87.0022 194.924 85.9102 193.364 83.9422 193.364C82.1302 193.364 80.8102 194.876 80.8102 196.748V196.772C80.8102 198.788 82.2742 200.144 84.0742 200.144ZM81.9382 196.364C82.0702 195.176 82.8502 194.312 83.9302 194.312C85.1182 194.312 85.7662 195.248 85.8622 196.364H81.9382ZM88.7777 200H89.9057V197.444C89.9057 195.56 90.9857 194.588 92.3777 194.588H92.4497V193.4C91.2497 193.34 90.3617 194.084 89.9057 195.128V193.508H88.7777V200ZM94.0056 200H95.1336V196.304C95.1336 195.14 95.9016 194.396 96.9336 194.396C97.9896 194.396 98.6016 195.092 98.6016 196.244V200H99.7296V195.932C99.7296 194.408 98.8416 193.364 97.2936 193.364C96.2136 193.364 95.5656 193.928 95.1336 194.6V193.508H94.0056V200ZM104.054 200.108C104.546 200.108 104.918 200.012 105.266 199.82V198.872C104.942 199.028 104.666 199.1 104.33 199.1C103.718 199.1 103.322 198.824 103.322 198.104V194.492H105.29V193.508H103.322V191.6H102.206V193.508H101.33V194.492H102.206V198.26C102.206 199.604 102.998 200.108 104.054 200.108ZM109.791 200.144C111.015 200.144 111.831 199.664 112.467 198.932L111.783 198.32C111.255 198.86 110.667 199.196 109.815 199.196C108.735 199.196 107.811 198.464 107.667 197.168H112.695C112.707 197.036 112.719 196.94 112.719 196.82C112.719 194.924 111.627 193.364 109.659 193.364C107.847 193.364 106.527 194.876 106.527 196.748V196.772C106.527 198.788 107.991 200.144 109.791 200.144ZM107.655 196.364C107.787 195.176 108.567 194.312 109.647 194.312C110.835 194.312 111.483 195.248 111.579 196.364H107.655ZM114.494 200H115.622V197.444C115.622 195.56 116.702 194.588 118.094 194.588H118.166V193.4C116.966 193.34 116.078 194.084 115.622 195.128V193.508H114.494V200ZM123.794 200H127.73C129.65 200 130.922 199.124 130.922 197.612V197.588C130.922 196.388 130.118 195.8 129.086 195.476C129.758 195.164 130.43 194.588 130.43 193.484V193.46C130.43 192.884 130.226 192.416 129.854 192.032C129.362 191.552 128.57 191.264 127.574 191.264H123.794V200ZM129.266 193.652C129.266 194.6 128.498 195.092 127.37 195.092H124.934V192.296H127.454C128.618 192.296 129.266 192.812 129.266 193.628V193.652ZM129.758 197.492V197.516C129.758 198.44 128.978 198.968 127.742 198.968H124.934V196.088H127.598C129.026 196.088 129.758 196.616 129.758 197.492ZM135.131 200.144C136.211 200.144 136.871 199.58 137.303 198.908V200H138.419V193.508H137.303V197.204C137.303 198.356 136.535 199.112 135.503 199.112C134.435 199.112 133.823 198.416 133.823 197.264V193.508H132.695V197.576C132.695 199.1 133.595 200.144 135.131 200.144ZM143.608 200.144C144.844 200.144 145.612 199.628 146.26 198.908L145.564 198.236C145.048 198.764 144.46 199.148 143.668 199.148C142.372 199.148 141.412 198.092 141.412 196.76V196.736C141.412 195.428 142.36 194.36 143.608 194.36C144.448 194.36 144.988 194.768 145.492 195.284L146.212 194.516C145.6 193.868 144.844 193.364 143.62 193.364C141.7 193.364 140.272 194.924 140.272 196.76V196.784C140.272 198.62 141.7 200.144 143.608 200.144ZM147.935 200H149.063V196.304C149.063 195.14 149.831 194.396 150.863 194.396C151.919 194.396 152.531 195.092 152.531 196.244V200H153.659V195.932C153.659 194.408 152.771 193.364 151.223 193.364C150.143 193.364 149.495 193.928 149.063 194.6V190.892H147.935V200ZM157.972 200.12C159.292 200.12 160.324 199.424 160.324 198.14V198.116C160.324 196.952 159.244 196.556 158.248 196.256C157.42 196.004 156.64 195.776 156.64 195.2V195.176C156.64 194.684 157.084 194.324 157.792 194.324C158.392 194.324 159.076 194.564 159.688 194.948L160.18 194.12C159.508 193.676 158.62 193.388 157.828 193.388C156.544 193.388 155.584 194.132 155.584 195.296V195.32C155.584 196.52 156.7 196.88 157.696 197.168C158.524 197.408 159.256 197.636 159.256 198.248V198.272C159.256 198.836 158.752 199.196 158.02 199.196C157.288 199.196 156.52 198.908 155.812 198.38L155.26 199.172C156.028 199.772 157.048 200.12 157.972 200.12ZM164.254 200.108C164.746 200.108 165.118 200.012 165.466 199.82V198.872C165.142 199.028 164.866 199.1 164.53 199.1C163.918 199.1 163.522 198.824 163.522 198.104V194.492H165.49V193.508H163.522V191.6H162.406V193.508H161.53V194.492H162.406V198.26C162.406 199.604 163.198 200.108 164.254 200.108ZM169.207 200.144C170.311 200.144 171.031 199.64 171.475 199.076V200H172.567V196.064C172.567 195.236 172.351 194.588 171.895 194.132C171.427 193.664 170.719 193.412 169.783 193.412C168.811 193.412 168.103 193.64 167.395 193.964L167.719 194.864C168.307 194.588 168.895 194.408 169.651 194.408C170.815 194.408 171.487 194.984 171.487 196.064V196.28C170.923 196.112 170.371 196.004 169.567 196.004C167.947 196.004 166.819 196.724 166.819 198.104V198.128C166.819 199.448 167.995 200.144 169.207 200.144ZM169.459 199.268C168.631 199.268 167.935 198.824 167.935 198.068V198.044C167.935 197.276 168.583 196.784 169.723 196.784C170.455 196.784 171.055 196.916 171.499 197.06V197.624C171.499 198.596 170.599 199.268 169.459 199.268ZM178.234 200.144C179.782 200.144 181.306 198.896 181.306 196.76V196.736C181.306 194.6 179.77 193.364 178.234 193.364C177.082 193.364 176.338 193.988 175.822 194.744V190.892H174.694V200H175.822V198.824C176.314 199.52 177.058 200.144 178.234 200.144ZM177.994 199.148C176.854 199.148 175.786 198.188 175.786 196.76V196.736C175.786 195.32 176.854 194.36 177.994 194.36C179.158 194.36 180.154 195.296 180.154 196.748V196.772C180.154 198.248 179.182 199.148 177.994 199.148ZM186.048 200.144C187.272 200.144 188.088 199.664 188.724 198.932L188.04 198.32C187.512 198.86 186.924 199.196 186.072 199.196C184.992 199.196 184.068 198.464 183.924 197.168H188.952C188.964 197.036 188.976 196.94 188.976 196.82C188.976 194.924 187.884 193.364 185.916 193.364C184.104 193.364 182.784 194.876 182.784 196.748V196.772C182.784 198.788 184.248 200.144 186.048 200.144ZM183.912 196.364C184.044 195.176 184.824 194.312 185.904 194.312C187.092 194.312 187.74 195.248 187.836 196.364H183.912Z" fill="#525252"/>
<circle cx="105.5" cy="95.5" r="60" stroke="#C5DCFF" stroke-width="3"/>
<path d="M93.472 112H118.432V110.032H95.632V95.392H115.984V93.424H95.632V79.024H118.192V77.056H93.472V112Z" fill="#355BBC"/>
</svg>
