<svg width="230" height="270" viewBox="0 0 230 270" fill="none" xmlns="http://www.w3.org/2000/svg">
<rect width="230" height="270" rx="10" fill="white"/>
<path d="M26.5376 202.076H28.1146L32.5036 191.721H30.6036L27.3356 199.948L24.0866 191.721H22.1486L26.5376 202.076ZM39.1312 202.228C42.2472 202.228 44.5462 199.777 44.5462 196.87V196.832C44.5462 193.906 42.2662 191.493 39.1692 191.493C36.0532 191.493 33.7542 193.963 33.7542 196.87V196.908C33.7542 199.815 36.0152 202.228 39.1312 202.228ZM39.1692 200.651C37.0982 200.651 35.5592 198.941 35.5592 196.87V196.832C35.5592 194.78 37.0032 193.07 39.1312 193.07C41.1832 193.07 42.7222 194.78 42.7222 196.87V196.908C42.7222 198.96 41.2972 200.651 39.1692 200.651ZM47.3505 202H49.1365V196.148C49.1365 194.305 50.3525 193.127 51.9865 193.127C53.6585 193.127 54.6275 194.229 54.6275 196.053V202H56.4135V195.559C56.4135 193.146 55.0075 191.493 52.5565 191.493C50.8465 191.493 49.8205 192.386 49.1365 193.45V191.721H47.3505V202ZM65.9458 202H72.4818C75.5978 202 77.6498 200.727 77.6498 198.2V198.162C77.6498 196.3 76.6238 195.369 75.0278 194.78C76.0158 194.229 76.8708 193.355 76.8708 191.778V191.74C76.8708 190.79 76.5668 190.03 75.9398 189.384C75.1418 188.605 73.8878 188.168 72.3108 188.168H65.9458V202ZM73.9638 192.253C73.9638 193.336 73.0898 193.811 71.7028 193.811H68.7768V190.733H71.8928C73.2228 190.733 73.9638 191.284 73.9638 192.215V192.253ZM74.7428 197.82V197.858C74.7428 198.922 73.8878 199.435 72.4818 199.435H68.7768V196.243H72.3678C74.0018 196.243 74.7428 196.832 74.7428 197.82ZM83.5738 202.209C85.1128 202.209 86.0248 201.392 86.7088 200.48V202H89.5968V191.436H86.7088V197.345C86.7088 198.808 85.9298 199.587 84.7328 199.587C83.5358 199.587 82.8328 198.808 82.8328 197.345V191.436H79.9638V198.257C79.9638 200.689 81.2938 202.209 83.5738 202.209ZM97.468 202.228C99.558 202.228 100.755 201.43 101.781 200.29L100.09 198.599C99.349 199.302 98.627 199.758 97.601 199.758C95.91 199.758 94.827 198.409 94.827 196.737V196.699C94.827 195.084 95.929 193.735 97.487 193.735C98.57 193.735 99.254 194.21 99.938 194.932L101.724 193.032C100.736 191.93 99.482 191.246 97.506 191.246C94.276 191.246 91.977 193.735 91.977 196.737V196.775C91.977 199.796 94.295 202.228 97.468 202.228ZM103.92 202H106.808V196.091C106.808 194.628 107.587 193.849 108.784 193.849C109.981 193.849 110.684 194.628 110.684 196.091V202H113.572V195.179C113.572 192.747 112.223 191.246 109.943 191.246C108.404 191.246 107.492 192.063 106.808 192.956V187.579H103.92V202ZM120.056 202.19C122.336 202.19 124.084 201.126 124.084 198.808V198.77C124.084 196.832 122.355 196.129 120.873 195.654C119.714 195.255 118.669 194.97 118.669 194.343V194.305C118.669 193.849 119.087 193.507 119.847 193.507C120.645 193.507 121.69 193.887 122.735 194.495L123.837 192.5C122.697 191.74 121.253 191.284 119.923 191.284C117.795 191.284 116.066 192.481 116.066 194.609V194.647C116.066 196.68 117.757 197.364 119.258 197.801C120.436 198.162 121.481 198.39 121.481 199.074V199.112C121.481 199.625 121.044 199.967 120.132 199.967C119.144 199.967 117.928 199.53 116.788 198.694L115.534 200.613C116.921 201.696 118.574 202.19 120.056 202.19ZM129.832 202.171C130.82 202.171 131.523 201.943 132.15 201.582V199.264C131.713 199.492 131.219 199.625 130.668 199.625C129.965 199.625 129.642 199.283 129.642 198.542V193.906H132.188V191.436H129.642V188.7H126.754V191.436H125.481V193.906H126.754V199.017C126.754 201.449 128.008 202.171 129.832 202.171ZM137.63 202.209C139.112 202.209 140.138 201.639 140.86 200.822V202H143.653V195.844C143.653 194.438 143.292 193.279 142.513 192.5C141.753 191.759 140.575 191.322 138.96 191.322C137.193 191.322 136.034 191.664 134.875 192.177L135.597 194.381C136.566 194.02 137.402 193.792 138.542 193.792C140.081 193.792 140.879 194.495 140.879 195.787V195.977C140.119 195.73 139.34 195.559 138.238 195.559C135.73 195.559 133.963 196.623 133.963 198.922V198.96C133.963 201.05 135.635 202.209 137.63 202.209ZM138.485 200.195C137.478 200.195 136.756 199.701 136.756 198.846V198.808C136.756 197.839 137.573 197.288 138.903 197.288C139.682 197.288 140.385 197.459 140.917 197.687V198.257C140.917 199.397 139.929 200.195 138.485 200.195ZM152.679 202.209C155.187 202.209 157.505 200.252 157.505 196.737V196.699C157.505 193.184 155.149 191.246 152.679 191.246C151.102 191.246 150.076 192.006 149.335 193.013V187.579H146.447V202H149.335V200.575C150.057 201.449 151.064 202.209 152.679 202.209ZM151.957 199.739C150.513 199.739 149.297 198.542 149.297 196.737V196.699C149.297 194.894 150.513 193.697 151.957 193.697C153.401 193.697 154.617 194.894 154.617 196.699V196.737C154.617 198.58 153.401 199.739 151.957 199.739ZM159.975 190.182H163.015V187.598H159.975V190.182ZM160.07 202H162.939V191.436H160.07V202ZM170.963 202.228C172.882 202.228 174.288 201.487 175.276 200.271L173.623 198.808C172.787 199.587 172.046 199.91 171.001 199.91C169.614 199.91 168.626 199.169 168.341 197.725H175.77C175.789 197.459 175.808 197.193 175.808 196.965C175.808 193.963 174.174 191.246 170.678 191.246C167.619 191.246 165.472 193.716 165.472 196.737V196.775C165.472 200.005 167.809 202.228 170.963 202.228ZM168.303 195.92C168.531 194.495 169.386 193.564 170.678 193.564C172.008 193.564 172.806 194.533 172.996 195.92H168.303ZM178.213 202H181.101V198.067C181.101 195.502 182.374 194.267 184.388 194.267H184.54V191.246C182.754 191.17 181.728 192.139 181.101 193.621V191.436H178.213V202ZM191.318 202.228C193.237 202.228 194.643 201.487 195.631 200.271L193.978 198.808C193.142 199.587 192.401 199.91 191.356 199.91C189.969 199.91 188.981 199.169 188.696 197.725H196.125C196.144 197.459 196.163 197.193 196.163 196.965C196.163 193.963 194.529 191.246 191.033 191.246C187.974 191.246 185.827 193.716 185.827 196.737V196.775C185.827 200.005 188.164 202.228 191.318 202.228ZM188.658 195.92C188.886 194.495 189.741 193.564 191.033 193.564C192.363 193.564 193.161 194.533 193.351 195.92H188.658ZM198.567 202H201.455V196.091C201.455 194.628 202.234 193.849 203.431 193.849C204.628 193.849 205.331 194.628 205.331 196.091V202H208.219V195.179C208.219 192.747 206.87 191.246 204.59 191.246C203.051 191.246 202.139 192.063 201.455 192.956V191.436H198.567V202ZM46.9497 231.228C48.6977 231.228 49.8377 230.43 50.5407 229.537V231H52.2697V224.768C52.2697 223.457 51.9277 222.431 51.2057 221.709C50.4647 220.968 49.3437 220.569 47.8617 220.569C46.3227 220.569 45.2017 220.93 44.0807 221.443L44.5937 222.868C45.5247 222.431 46.4557 222.146 47.6527 222.146C49.4957 222.146 50.5597 223.058 50.5597 224.768V225.11C49.6667 224.844 48.7927 224.673 47.5197 224.673C44.9547 224.673 43.1687 225.813 43.1687 227.998V228.036C43.1687 230.126 45.0307 231.228 46.9497 231.228ZM47.3487 229.841C46.0377 229.841 44.9357 229.138 44.9357 227.941V227.903C44.9357 226.687 45.9617 225.908 47.7667 225.908C48.9257 225.908 49.8757 226.117 50.5787 226.345V227.238C50.5787 228.777 49.1537 229.841 47.3487 229.841ZM61.1485 231.228C63.5995 231.228 66.0125 229.252 66.0125 225.87V225.832C66.0125 222.45 63.5805 220.493 61.1485 220.493C59.3245 220.493 58.1465 221.481 57.3295 222.678V216.579H55.5435V231H57.3295V229.138C58.1085 230.24 59.2865 231.228 61.1485 231.228ZM60.7685 229.651C58.9635 229.651 57.2725 228.131 57.2725 225.87V225.832C57.2725 223.59 58.9635 222.07 60.7685 222.07C62.6115 222.07 64.1885 223.552 64.1885 225.851V225.889C64.1885 228.226 62.6495 229.651 60.7685 229.651ZM73.4258 234.192C75.1358 234.192 76.5228 233.736 77.4348 232.824C78.2898 231.988 78.7458 230.734 78.7458 229.1V220.721H76.9788V222.488C76.1428 221.405 74.9458 220.493 73.0838 220.493C70.6518 220.493 68.2958 222.336 68.2958 225.338V225.376C68.2958 228.359 70.6328 230.202 73.0838 230.202C74.9078 230.202 76.1048 229.29 76.9788 228.112V229.195C76.9788 231.513 75.6108 232.691 73.4068 232.691C71.9628 232.691 70.6898 232.254 69.5308 231.456L68.7708 232.843C70.1388 233.736 71.7348 234.192 73.4258 234.192ZM73.4828 228.644C71.6588 228.644 70.1198 227.314 70.1198 225.357V225.319C70.1198 223.324 71.6398 222.051 73.4828 222.051C75.3258 222.051 77.0168 223.362 77.0168 225.338V225.376C77.0168 227.314 75.3258 228.644 73.4828 228.644ZM86.748 231.228C88.686 231.228 89.978 230.468 90.985 229.309L89.902 228.34C89.066 229.195 88.135 229.727 86.786 229.727C85.076 229.727 83.613 228.568 83.385 226.516H91.346C91.365 226.307 91.384 226.155 91.384 225.965C91.384 222.963 89.655 220.493 86.539 220.493C83.67 220.493 81.58 222.887 81.58 225.851V225.889C81.58 229.081 83.898 231.228 86.748 231.228ZM83.366 225.243C83.575 223.362 84.81 221.994 86.52 221.994C88.401 221.994 89.427 223.476 89.579 225.243H83.366ZM97.5391 231.19C99.6291 231.19 101.263 230.088 101.263 228.055V228.017C101.263 226.174 99.5531 225.547 97.9761 225.072C96.6651 224.673 95.4301 224.312 95.4301 223.4V223.362C95.4301 222.583 96.1331 222.013 97.2541 222.013C98.2041 222.013 99.2871 222.393 100.256 223.001L101.035 221.69C99.9711 220.987 98.5651 220.531 97.3111 220.531C95.2781 220.531 93.7581 221.709 93.7581 223.552V223.59C93.7581 225.49 95.5251 226.06 97.1021 226.516C98.4131 226.896 99.5721 227.257 99.5721 228.226V228.264C99.5721 229.157 98.7741 229.727 97.6151 229.727C96.4561 229.727 95.2401 229.271 94.1191 228.435L93.2451 229.689C94.4611 230.639 96.0761 231.19 97.5391 231.19ZM108.794 231.228C110.751 231.228 111.967 230.411 112.993 229.271L111.891 228.207C111.074 229.043 110.143 229.651 108.889 229.651C106.837 229.651 105.317 227.979 105.317 225.87V225.832C105.317 223.761 106.818 222.07 108.794 222.07C110.124 222.07 110.979 222.716 111.777 223.533L112.917 222.317C111.948 221.291 110.751 220.493 108.813 220.493C105.773 220.493 103.512 222.963 103.512 225.87V225.908C103.512 228.815 105.773 231.228 108.794 231.228ZM115.549 231H117.335V225.148C117.335 223.305 118.551 222.127 120.185 222.127C121.857 222.127 122.826 223.229 122.826 225.053V231H124.612V224.559C124.612 222.146 123.206 220.493 120.755 220.493C119.045 220.493 118.019 221.386 117.335 222.45V216.579H115.549V231ZM128.059 231H129.826V216.579H128.059V231ZM138.168 231.228C141.284 231.228 143.583 228.777 143.583 225.87V225.832C143.583 222.906 141.303 220.493 138.206 220.493C135.09 220.493 132.791 222.963 132.791 225.87V225.908C132.791 228.815 135.052 231.228 138.168 231.228ZM138.206 229.651C136.135 229.651 134.596 227.941 134.596 225.87V225.832C134.596 223.78 136.04 222.07 138.168 222.07C140.22 222.07 141.759 223.78 141.759 225.87V225.908C141.759 227.96 140.334 229.651 138.206 229.651ZM149.826 231.19C151.916 231.19 153.55 230.088 153.55 228.055V228.017C153.55 226.174 151.84 225.547 150.263 225.072C148.952 224.673 147.717 224.312 147.717 223.4V223.362C147.717 222.583 148.42 222.013 149.541 222.013C150.491 222.013 151.574 222.393 152.543 223.001L153.322 221.69C152.258 220.987 150.852 220.531 149.598 220.531C147.565 220.531 146.045 221.709 146.045 223.552V223.59C146.045 225.49 147.812 226.06 149.389 226.516C150.7 226.896 151.859 227.257 151.859 228.226V228.264C151.859 229.157 151.061 229.727 149.902 229.727C148.743 229.727 147.527 229.271 146.406 228.435L145.532 229.689C146.748 230.639 148.363 231.19 149.826 231.19ZM159.66 231.19C161.75 231.19 163.384 230.088 163.384 228.055V228.017C163.384 226.174 161.674 225.547 160.097 225.072C158.786 224.673 157.551 224.312 157.551 223.4V223.362C157.551 222.583 158.254 222.013 159.375 222.013C160.325 222.013 161.408 222.393 162.377 223.001L163.156 221.69C162.092 220.987 160.686 220.531 159.432 220.531C157.399 220.531 155.879 221.709 155.879 223.552V223.59C155.879 225.49 157.646 226.06 159.223 226.516C160.534 226.896 161.693 227.257 161.693 228.226V228.264C161.693 229.157 160.895 229.727 159.736 229.727C158.577 229.727 157.361 229.271 156.24 228.435L155.366 229.689C156.582 230.639 158.197 231.19 159.66 231.19ZM170.801 231.228C172.739 231.228 174.031 230.468 175.038 229.309L173.955 228.34C173.119 229.195 172.188 229.727 170.839 229.727C169.129 229.727 167.666 228.568 167.438 226.516H175.399C175.418 226.307 175.437 226.155 175.437 225.965C175.437 222.963 173.708 220.493 170.592 220.493C167.723 220.493 165.633 222.887 165.633 225.851V225.889C165.633 229.081 167.951 231.228 170.801 231.228ZM167.419 225.243C167.628 223.362 168.863 221.994 170.573 221.994C172.454 221.994 173.48 223.476 173.632 225.243H167.419ZM178.153 231H179.939V225.148C179.939 223.305 181.155 222.127 182.789 222.127C184.461 222.127 185.43 223.229 185.43 225.053V231H187.216V224.559C187.216 222.146 185.81 220.493 183.359 220.493C181.649 220.493 180.623 221.386 179.939 222.45V220.721H178.153V231Z" fill="#525252"/>
<path d="M115.5 27.5028C115.5 25.5683 117.069 23.9914 119.002 24.0823C133.252 24.7527 147.038 29.5036 158.701 37.8048C171.317 46.7844 180.821 59.4719 185.892 74.1033C190.963 88.7346 191.349 104.582 186.996 119.443C182.971 133.181 175.082 145.444 164.303 154.79C162.841 156.057 160.633 155.79 159.435 154.27C158.238 152.75 158.507 150.555 159.962 149.28C169.6 140.841 176.658 129.814 180.273 117.474C184.216 104.01 183.867 89.6529 179.273 76.3974C174.679 63.142 166.068 51.6475 154.639 43.5123C144.163 36.0556 131.795 31.7609 119.001 31.0965C117.07 30.9961 115.5 29.4374 115.5 27.5028Z" fill="#4A7BF6"/>
<circle cx="115.5" cy="98.5" r="60" stroke="#EBF1FB" stroke-width="3"/>
<path d="M94.4805 108H96.6893V103.962H99.3018V102.062H96.6893V90.5912H94.6943L84.9805 102.324L85.4793 103.962H94.4805V108ZM87.688 102.062L94.4805 93.7737V102.062H87.688ZM109.633 108.285C114.121 108.285 117.043 104.224 117.043 99.355V99.3075C117.043 94.4387 114.145 90.425 109.68 90.425C105.215 90.425 102.294 94.4862 102.294 99.355V99.4025C102.294 104.271 105.144 108.285 109.633 108.285ZM109.68 106.219C106.616 106.219 104.645 103.012 104.645 99.355V99.3075C104.645 95.6262 106.593 92.4912 109.633 92.4912C112.696 92.4912 114.668 95.6737 114.668 99.355V99.4025C114.668 103.06 112.768 106.219 109.68 106.219ZM131.535 99.355C133.91 99.355 135.525 97.2887 135.525 94.9375V94.89C135.525 92.5625 133.934 90.52 131.582 90.52C129.184 90.52 127.592 92.5625 127.592 94.9375V94.985C127.592 97.3362 129.16 99.355 131.535 99.355ZM136.071 98.9512L129.374 108H131.345L137.282 99.8062L144.004 90.71H142.032L136.071 98.9512ZM131.535 92.04C132.746 92.04 133.72 93.3225 133.72 94.9375V94.985C133.72 96.5287 132.865 97.8112 131.582 97.8112C130.347 97.8112 129.397 96.5762 129.397 94.9375V94.89C129.397 93.3462 130.252 92.04 131.535 92.04ZM141.795 108.19C144.194 108.19 145.785 106.147 145.785 103.772V103.725C145.785 101.397 144.217 99.355 141.842 99.355C139.467 99.355 137.852 101.397 137.852 103.772V103.82C137.852 106.171 139.444 108.19 141.795 108.19ZM141.842 106.67C140.631 106.67 139.657 105.411 139.657 103.772V103.725C139.657 102.181 140.512 100.899 141.795 100.899C143.03 100.899 143.98 102.157 143.98 103.772V103.82C143.98 105.387 143.125 106.67 141.842 106.67Z" fill="#355BBC"/>
</svg>
