<svg width="230" height="270" viewBox="0 0 230 270" fill="none" xmlns="http://www.w3.org/2000/svg">
<rect width="230" height="270" rx="10" fill="white"/>
<path d="M37.8711 203H39.6571V197.148C39.6571 195.362 40.7971 194.127 42.3171 194.127C43.8561 194.127 44.7871 195.191 44.7871 197.015V203H46.5731V197.11C46.5731 195.191 47.7321 194.127 49.2141 194.127C50.7721 194.127 51.7031 195.172 51.7031 197.053V203H53.4891V196.578C53.4891 194.032 52.0641 192.493 49.7271 192.493C48.0171 192.493 46.9151 193.367 46.1551 194.469C45.6041 193.348 44.5401 192.493 42.9251 192.493C41.2341 192.493 40.3221 193.405 39.6571 194.393V192.721H37.8711V203ZM61.3755 203.228C63.3135 203.228 64.6055 202.468 65.6125 201.309L64.5295 200.34C63.6935 201.195 62.7625 201.727 61.4135 201.727C59.7035 201.727 58.2405 200.568 58.0125 198.516H65.9735C65.9925 198.307 66.0115 198.155 66.0115 197.965C66.0115 194.963 64.2825 192.493 61.1665 192.493C58.2975 192.493 56.2075 194.887 56.2075 197.851V197.889C56.2075 201.081 58.5255 203.228 61.3755 203.228ZM57.9935 197.243C58.2025 195.362 59.4375 193.994 61.1475 193.994C63.0285 193.994 64.0545 195.476 64.2065 197.243H57.9935ZM68.7656 190.669H70.7606V188.807H68.7656V190.669ZM68.8796 203H70.6466V192.721H68.8796V203ZM77.6588 203.19C79.7488 203.19 81.3828 202.088 81.3828 200.055V200.017C81.3828 198.174 79.6728 197.547 78.0958 197.072C76.7848 196.673 75.5498 196.312 75.5498 195.4V195.362C75.5498 194.583 76.2528 194.013 77.3738 194.013C78.3238 194.013 79.4068 194.393 80.3758 195.001L81.1548 193.69C80.0908 192.987 78.6848 192.531 77.4308 192.531C75.3978 192.531 73.8778 193.709 73.8778 195.552V195.59C73.8778 197.49 75.6448 198.06 77.2218 198.516C78.5328 198.896 79.6918 199.257 79.6918 200.226V200.264C79.6918 201.157 78.8938 201.727 77.7348 201.727C76.5758 201.727 75.3598 201.271 74.2388 200.435L73.3648 201.689C74.5808 202.639 76.1958 203.19 77.6588 203.19ZM87.5118 203.171C88.2908 203.171 88.8798 203.019 89.4308 202.715V201.214C88.9178 201.461 88.4808 201.575 87.9488 201.575C86.9798 201.575 86.3528 201.138 86.3528 199.998V194.279H89.4688V192.721H86.3528V189.7H84.5858V192.721H83.1988V194.279H84.5858V200.245C84.5858 202.373 85.8398 203.171 87.5118 203.171ZM102.864 206.192C104.574 206.192 105.961 205.736 106.873 204.824C107.728 203.988 108.184 202.734 108.184 201.1V192.721H106.417V194.488C105.581 193.405 104.384 192.493 102.522 192.493C100.09 192.493 97.7338 194.336 97.7338 197.338V197.376C97.7338 200.359 100.071 202.202 102.522 202.202C104.346 202.202 105.543 201.29 106.417 200.112V201.195C106.417 203.513 105.049 204.691 102.845 204.691C101.401 204.691 100.128 204.254 98.9688 203.456L98.2088 204.843C99.5768 205.736 101.173 206.192 102.864 206.192ZM102.921 200.644C101.097 200.644 99.5578 199.314 99.5578 197.357V197.319C99.5578 195.324 101.078 194.051 102.921 194.051C104.764 194.051 106.455 195.362 106.455 197.338V197.376C106.455 199.314 104.764 200.644 102.921 200.644ZM116.186 203.228C118.124 203.228 119.416 202.468 120.423 201.309L119.34 200.34C118.504 201.195 117.573 201.727 116.224 201.727C114.514 201.727 113.051 200.568 112.823 198.516H120.784C120.803 198.307 120.822 198.155 120.822 197.965C120.822 194.963 119.093 192.493 115.977 192.493C113.108 192.493 111.018 194.887 111.018 197.851V197.889C111.018 201.081 113.336 203.228 116.186 203.228ZM112.804 197.243C113.013 195.362 114.248 193.994 115.958 193.994C117.839 193.994 118.865 195.476 119.017 197.243H112.804ZM123.69 203H125.457V188.579H123.69V203ZM133.59 203.228C135.528 203.228 136.82 202.468 137.827 201.309L136.744 200.34C135.908 201.195 134.977 201.727 133.628 201.727C131.918 201.727 130.455 200.568 130.227 198.516H138.188C138.207 198.307 138.226 198.155 138.226 197.965C138.226 194.963 136.497 192.493 133.381 192.493C130.512 192.493 128.422 194.887 128.422 197.851V197.889C128.422 201.081 130.74 203.228 133.59 203.228ZM130.208 197.243C130.417 195.362 131.652 193.994 133.362 193.994C135.243 193.994 136.269 195.476 136.421 197.243H130.208ZM140.942 203H142.728V198.953C142.728 195.97 144.438 194.431 146.642 194.431H146.756V192.55C144.856 192.455 143.45 193.633 142.728 195.286V192.721H140.942V203ZM149.125 203H150.911V197.148C150.911 195.305 152.127 194.127 153.761 194.127C155.433 194.127 156.402 195.229 156.402 197.053V203H158.188V196.559C158.188 194.146 156.782 192.493 154.331 192.493C152.621 192.493 151.595 193.386 150.911 194.45V192.721H149.125V203ZM164.94 203.171C165.719 203.171 166.308 203.019 166.859 202.715V201.214C166.346 201.461 165.909 201.575 165.377 201.575C164.408 201.575 163.781 201.138 163.781 199.998V194.279H166.897V192.721H163.781V189.7H162.014V192.721H160.627V194.279H162.014V200.245C162.014 202.373 163.268 203.171 164.94 203.171ZM173.928 203.228C175.866 203.228 177.158 202.468 178.165 201.309L177.082 200.34C176.246 201.195 175.315 201.727 173.966 201.727C172.256 201.727 170.793 200.568 170.565 198.516H178.526C178.545 198.307 178.564 198.155 178.564 197.965C178.564 194.963 176.835 192.493 173.719 192.493C170.85 192.493 168.76 194.887 168.76 197.851V197.889C168.76 201.081 171.078 203.228 173.928 203.228ZM170.546 197.243C170.755 195.362 171.99 193.994 173.7 193.994C175.581 193.994 176.607 195.476 176.759 197.243H170.546ZM181.28 203H183.066V198.953C183.066 195.97 184.776 194.431 186.98 194.431H187.094V192.55C185.194 192.455 183.788 193.633 183.066 195.286V192.721H181.28V203ZM64.2621 232H70.4941C73.5341 232 75.5481 230.613 75.5481 228.219V228.181C75.5481 226.281 74.2751 225.35 72.6411 224.837C73.7051 224.343 74.7691 223.431 74.7691 221.683V221.645C74.7691 220.733 74.4461 219.992 73.8571 219.384C73.0781 218.624 71.8241 218.168 70.2471 218.168H64.2621V232ZM72.9261 221.949C72.9261 223.45 71.7101 224.229 69.9241 224.229H66.0671V219.802H70.0571C71.9001 219.802 72.9261 220.619 72.9261 221.911V221.949ZM73.7051 228.029V228.067C73.7051 229.53 72.4701 230.366 70.5131 230.366H66.0671V225.806H70.2851C72.5461 225.806 73.7051 226.642 73.7051 228.029ZM82.1181 232.228C83.8281 232.228 84.8731 231.335 85.5571 230.271V232H87.3241V221.721H85.5571V227.573C85.5571 229.397 84.3411 230.594 82.7071 230.594C81.0161 230.594 80.0471 229.492 80.0471 227.668V221.721H78.2611V228.162C78.2611 230.575 79.6861 232.228 82.1181 232.228ZM95.4445 232.228C97.4015 232.228 98.6175 231.411 99.6435 230.271L98.5415 229.207C97.7245 230.043 96.7935 230.651 95.5395 230.651C93.4875 230.651 91.9675 228.979 91.9675 226.87V226.832C91.9675 224.761 93.4685 223.07 95.4445 223.07C96.7745 223.07 97.6295 223.716 98.4275 224.533L99.5675 223.317C98.5985 222.291 97.4015 221.493 95.4635 221.493C92.4235 221.493 90.1625 223.963 90.1625 226.87V226.908C90.1625 229.815 92.4235 232.228 95.4445 232.228ZM102.2 232H103.986V226.148C103.986 224.305 105.202 223.127 106.836 223.127C108.508 223.127 109.477 224.229 109.477 226.053V232H111.263V225.559C111.263 223.146 109.857 221.493 107.406 221.493C105.696 221.493 104.67 222.386 103.986 223.45V217.579H102.2V232ZM117.997 232.19C120.087 232.19 121.721 231.088 121.721 229.055V229.017C121.721 227.174 120.011 226.547 118.434 226.072C117.123 225.673 115.888 225.312 115.888 224.4V224.362C115.888 223.583 116.591 223.013 117.712 223.013C118.662 223.013 119.745 223.393 120.714 224.001L121.493 222.69C120.429 221.987 119.023 221.531 117.769 221.531C115.736 221.531 114.216 222.709 114.216 224.552V224.59C114.216 226.49 115.983 227.06 117.56 227.516C118.871 227.896 120.03 228.257 120.03 229.226V229.264C120.03 230.157 119.232 230.727 118.073 230.727C116.914 230.727 115.698 230.271 114.577 229.435L113.703 230.689C114.919 231.639 116.534 232.19 117.997 232.19ZM127.85 232.171C128.629 232.171 129.218 232.019 129.769 231.715V230.214C129.256 230.461 128.819 230.575 128.287 230.575C127.318 230.575 126.691 230.138 126.691 228.998V223.279H129.807V221.721H126.691V218.7H124.924V221.721H123.537V223.279H124.924V229.245C124.924 231.373 126.178 232.171 127.85 232.171ZM135.596 232.228C137.344 232.228 138.484 231.43 139.187 230.537V232H140.916V225.768C140.916 224.457 140.574 223.431 139.852 222.709C139.111 221.968 137.99 221.569 136.508 221.569C134.969 221.569 133.848 221.93 132.727 222.443L133.24 223.868C134.171 223.431 135.102 223.146 136.299 223.146C138.142 223.146 139.206 224.058 139.206 225.768V226.11C138.313 225.844 137.439 225.673 136.166 225.673C133.601 225.673 131.815 226.813 131.815 228.998V229.036C131.815 231.126 133.677 232.228 135.596 232.228ZM135.995 230.841C134.684 230.841 133.582 230.138 133.582 228.941V228.903C133.582 227.687 134.608 226.908 136.413 226.908C137.572 226.908 138.522 227.117 139.225 227.345V228.238C139.225 229.777 137.8 230.841 135.995 230.841ZM149.794 232.228C152.245 232.228 154.658 230.252 154.658 226.87V226.832C154.658 223.45 152.226 221.493 149.794 221.493C147.97 221.493 146.792 222.481 145.975 223.678V217.579H144.189V232H145.975V230.138C146.754 231.24 147.932 232.228 149.794 232.228ZM149.414 230.651C147.609 230.651 145.918 229.131 145.918 226.87V226.832C145.918 224.59 147.609 223.07 149.414 223.07C151.257 223.07 152.834 224.552 152.834 226.851V226.889C152.834 229.226 151.295 230.651 149.414 230.651ZM162.072 232.228C164.01 232.228 165.302 231.468 166.309 230.309L165.226 229.34C164.39 230.195 163.459 230.727 162.11 230.727C160.4 230.727 158.937 229.568 158.709 227.516H166.67C166.689 227.307 166.708 227.155 166.708 226.965C166.708 223.963 164.979 221.493 161.863 221.493C158.994 221.493 156.904 223.887 156.904 226.851V226.889C156.904 230.081 159.222 232.228 162.072 232.228ZM158.69 226.243C158.899 224.362 160.134 222.994 161.844 222.994C163.725 222.994 164.751 224.476 164.903 226.243H158.69Z" fill="#525252"/>
<circle cx="115.5" cy="95.5" r="60" stroke="#EBF1FB" stroke-width="3"/>
<path d="M100.38 116H131.004V112.288H104.44V96.57H127.988V92.858H104.44V77.488H130.714V73.776H100.38V116Z" fill="#355BBC"/>
</svg>
