<svg width="211" height="225" viewBox="0 0 211 225" fill="none" xmlns="http://www.w3.org/2000/svg">
<rect width="211" height="225" rx="10" fill="white"/>
<path d="M41.96 202.016C43.04 202.016 43.916 201.728 44.492 201.152C45.032 200.624 45.32 199.832 45.32 198.8V193.508H44.204V194.624C43.676 193.94 42.92 193.364 41.744 193.364C40.208 193.364 38.72 194.528 38.72 196.424V196.448C38.72 198.332 40.196 199.496 41.744 199.496C42.896 199.496 43.652 198.92 44.204 198.176V198.86C44.204 200.324 43.34 201.068 41.948 201.068C41.036 201.068 40.232 200.792 39.5 200.288L39.02 201.164C39.884 201.728 40.892 202.016 41.96 202.016ZM41.996 198.512C40.844 198.512 39.872 197.672 39.872 196.436V196.412C39.872 195.152 40.832 194.348 41.996 194.348C43.16 194.348 44.228 195.176 44.228 196.424V196.448C44.228 197.672 43.16 198.512 41.996 198.512ZM50.4341 200.144C51.6581 200.144 52.4741 199.664 53.1101 198.932L52.4261 198.32C51.8981 198.86 51.3101 199.196 50.4581 199.196C49.3781 199.196 48.4541 198.464 48.3101 197.168H53.3381C53.3501 197.036 53.3621 196.94 53.3621 196.82C53.3621 194.924 52.2701 193.364 50.3021 193.364C48.4901 193.364 47.1701 194.876 47.1701 196.748V196.772C47.1701 198.788 48.6341 200.144 50.4341 200.144ZM48.2981 196.364C48.4301 195.176 49.2101 194.312 50.2901 194.312C51.4781 194.312 52.1261 195.248 52.2221 196.364H48.2981ZM55.2335 200H56.3495V190.892H55.2335V200ZM61.5463 200.144C62.7703 200.144 63.5863 199.664 64.2223 198.932L63.5383 198.32C63.0103 198.86 62.4223 199.196 61.5703 199.196C60.4903 199.196 59.5663 198.464 59.4223 197.168H64.4503C64.4623 197.036 64.4743 196.94 64.4743 196.82C64.4743 194.924 63.3823 193.364 61.4143 193.364C59.6023 193.364 58.2823 194.876 58.2823 196.748V196.772C58.2823 198.788 59.7463 200.144 61.5463 200.144ZM59.4103 196.364C59.5423 195.176 60.3223 194.312 61.4023 194.312C62.5903 194.312 63.2383 195.248 63.3343 196.364H59.4103ZM66.2497 200H67.3777V197.444C67.3777 195.56 68.4577 194.588 69.8497 194.588H69.9217V193.4C68.7217 193.34 67.8337 194.084 67.3777 195.128V193.508H66.2497V200ZM71.4777 200H72.6057V196.304C72.6057 195.14 73.3737 194.396 74.4057 194.396C75.4617 194.396 76.0737 195.092 76.0737 196.244V200H77.2017V195.932C77.2017 194.408 76.3137 193.364 74.7657 193.364C73.6857 193.364 73.0377 193.928 72.6057 194.6V193.508H71.4777V200ZM81.5263 200.108C82.0183 200.108 82.3903 200.012 82.7383 199.82V198.872C82.4143 199.028 82.1383 199.1 81.8023 199.1C81.1903 199.1 80.7943 198.824 80.7943 198.104V194.492H82.7623V193.508H80.7943V191.6H79.6783V193.508H78.8023V194.492H79.6783V198.26C79.6783 199.604 80.4703 200.108 81.5263 200.108ZM88.4863 192.212H89.7463V191.036H88.4863V192.212ZM88.5583 200H89.6743V193.508H88.5583V200ZM91.9911 200H93.1191V196.304C93.1191 195.14 93.8871 194.396 94.9191 194.396C95.9751 194.396 96.5871 195.092 96.5871 196.244V200H97.7151V195.932C97.7151 194.408 96.8271 193.364 95.2791 193.364C94.1991 193.364 93.5511 193.928 93.1191 194.6V193.508H91.9911V200ZM106.472 200.144C107.624 200.144 108.368 199.508 108.884 198.764V200H110V190.892H108.884V194.684C108.38 193.988 107.636 193.364 106.472 193.364C104.912 193.364 103.4 194.612 103.4 196.748V196.772C103.4 198.908 104.924 200.144 106.472 200.144ZM106.7 199.148C105.548 199.148 104.552 198.2 104.552 196.76V196.736C104.552 195.26 105.524 194.36 106.7 194.36C107.852 194.36 108.908 195.32 108.908 196.736V196.76C108.908 198.188 107.852 199.148 106.7 199.148ZM115.114 200.144C116.338 200.144 117.154 199.664 117.79 198.932L117.106 198.32C116.578 198.86 115.99 199.196 115.138 199.196C114.058 199.196 113.134 198.464 112.99 197.168H118.018C118.03 197.036 118.042 196.94 118.042 196.82C118.042 194.924 116.95 193.364 114.982 193.364C113.17 193.364 111.85 194.876 111.85 196.748V196.772C111.85 198.788 113.314 200.144 115.114 200.144ZM112.978 196.364C113.11 195.176 113.89 194.312 114.97 194.312C116.158 194.312 116.806 195.248 116.902 196.364H112.978ZM119.817 200H120.945V197.444C120.945 195.56 122.025 194.588 123.417 194.588H123.489V193.4C122.289 193.34 121.401 194.084 120.945 195.128V193.508H119.817V200ZM131.541 200.06H132.525L134.841 193.22L137.169 200.06H138.153L141.249 191.264H140.037L137.661 198.296L135.345 191.24H134.385L132.069 198.296L129.705 191.264H128.445L131.541 200.06ZM145.181 200.144C147.149 200.144 148.601 198.596 148.601 196.76V196.736C148.601 194.888 147.161 193.364 145.205 193.364C143.237 193.364 141.785 194.924 141.785 196.76V196.784C141.785 198.62 143.213 200.144 145.181 200.144ZM145.205 199.148C143.897 199.148 142.925 198.068 142.925 196.76V196.736C142.925 195.44 143.837 194.36 145.181 194.36C146.477 194.36 147.449 195.44 147.449 196.76V196.784C147.449 198.08 146.549 199.148 145.205 199.148ZM153.384 200.144C154.62 200.144 155.388 199.628 156.036 198.908L155.34 198.236C154.824 198.764 154.236 199.148 153.444 199.148C152.148 199.148 151.188 198.092 151.188 196.76V196.736C151.188 195.428 152.136 194.36 153.384 194.36C154.224 194.36 154.764 194.768 155.268 195.284L155.988 194.516C155.376 193.868 154.62 193.364 153.396 193.364C151.476 193.364 150.048 194.924 150.048 196.76V196.784C150.048 198.62 151.476 200.144 153.384 200.144ZM157.711 200H158.839V196.304C158.839 195.14 159.607 194.396 160.639 194.396C161.695 194.396 162.307 195.092 162.307 196.244V200H163.435V195.932C163.435 194.408 162.547 193.364 160.999 193.364C159.919 193.364 159.271 193.928 158.839 194.6V190.892H157.711V200ZM168.455 200.144C169.679 200.144 170.495 199.664 171.131 198.932L170.447 198.32C169.919 198.86 169.331 199.196 168.479 199.196C167.399 199.196 166.475 198.464 166.331 197.168H171.359C171.371 197.036 171.383 196.94 171.383 196.82C171.383 194.924 170.291 193.364 168.323 193.364C166.511 193.364 165.191 194.876 165.191 196.748V196.772C165.191 198.788 166.655 200.144 168.455 200.144ZM166.319 196.364C166.451 195.176 167.231 194.312 168.311 194.312C169.499 194.312 170.147 195.248 170.243 196.364H166.319Z" fill="#525252"/>
<path d="M106.5 27.5028C106.5 25.5683 108.069 23.9914 110.002 24.0823C122.52 24.6713 134.708 28.4105 145.426 34.9783C157.141 42.1572 166.642 52.4358 172.88 64.6777C179.118 76.9197 181.848 90.6481 180.77 104.345C179.692 118.042 174.848 131.175 166.772 142.29C158.696 153.405 147.704 162.071 135.01 167.329C122.316 172.587 108.416 174.232 94.8456 172.083C81.2753 169.933 68.5637 164.073 58.1161 155.15C48.5578 146.987 41.2352 136.55 36.8067 124.827C36.1231 123.017 37.1378 121.037 38.9777 120.439C40.8175 119.842 42.785 120.852 43.4774 122.659C47.5009 133.155 54.0902 142.499 62.6659 149.823C72.1311 157.907 83.6473 163.216 95.9416 165.163C108.236 167.111 120.829 165.62 132.329 160.857C143.829 156.093 153.788 148.242 161.104 138.172C168.421 128.102 172.81 116.205 173.786 103.796C174.763 91.3864 172.289 78.949 166.638 67.8582C160.987 56.7674 152.379 47.4554 141.766 40.9516C132.15 35.0589 121.227 31.6795 110.001 31.0965C108.069 30.9961 106.5 29.4374 106.5 27.5028Z" fill="#355BBC"/>
<circle cx="106.5" cy="98.5" r="60" stroke="#C5DCFF" stroke-width="3"/>
<path d="M78.834 106H80.88V102.26H83.3V100.5H80.88V89.874H79.032L70.034 100.742L70.496 102.26H78.834V106ZM72.542 100.5L78.834 92.822V100.5H72.542ZM85.7857 106H97.0937V104.086H88.8657L92.8477 100.632C95.6637 98.212 96.9397 96.804 96.9397 94.406V94.362C96.9397 91.678 94.8277 89.764 91.8797 89.764C89.0417 89.764 87.5457 90.996 86.0717 93.152L87.5897 94.296C88.8657 92.558 89.9877 91.656 91.7037 91.656C93.3757 91.656 94.7397 92.756 94.7397 94.538C94.7397 96.078 93.8817 97.266 91.5057 99.356L85.7857 104.35V106ZM107.897 106H109.965V93.504L115.553 101.732H115.641L121.251 93.46V106H123.363V89.984H121.163L115.619 98.366L110.075 89.984H107.897V106ZM127.678 91.722H129.988V89.566H127.678V91.722ZM127.81 106H129.856V94.098H127.81V106ZM133.994 106H136.062V99.224C136.062 97.09 137.47 95.726 139.362 95.726C141.298 95.726 142.42 97.002 142.42 99.114V106H144.488V98.542C144.488 95.748 142.86 93.834 140.022 93.834C138.042 93.834 136.854 94.868 136.062 96.1V94.098H133.994V106Z" fill="#355BBC"/>
</svg>
