<svg width="211" height="225" viewBox="0 0 211 225" fill="none" xmlns="http://www.w3.org/2000/svg">
<rect width="211" height="225" rx="10" fill="white"/>
<circle cx="105.5" cy="95.5" r="60" stroke="#C5DCFF" stroke-width="3"/>
<path d="M93.544 112H117.352V109.936H96.952L108.856 98.944C114.904 93.328 116.968 90.256 116.968 85.984V85.888C116.968 80.656 112.6 76.576 106.6 76.576C100.648 76.576 97.192 79.504 94.36 84.064L95.992 85.12C98.68 80.992 101.8 78.448 106.408 78.448C111.016 78.448 114.712 81.616 114.712 86.08C114.712 89.44 113.08 92.368 107.416 97.6L93.544 110.464V112Z" fill="#355BBC"/>
<path d="M26.248 200H32.224V198.944H27.4V191.264H26.248V200ZM36.7427 200.144C37.9667 200.144 38.7827 199.664 39.4187 198.932L38.7347 198.32C38.2067 198.86 37.6187 199.196 36.7667 199.196C35.6867 199.196 34.7627 198.464 34.6187 197.168H39.6467C39.6587 197.036 39.6707 196.94 39.6707 196.82C39.6707 194.924 38.5787 193.364 36.6107 193.364C34.7987 193.364 33.4787 194.876 33.4787 196.748V196.772C33.4787 198.788 34.9427 200.144 36.7427 200.144ZM34.6067 196.364C34.7387 195.176 35.5187 194.312 36.5987 194.312C37.7867 194.312 38.4347 195.248 38.5307 196.364H34.6067ZM41.4461 200H42.5741V198.26L43.7741 197.036L45.9701 200H47.3141L44.5421 196.256L47.2301 193.508H45.8261L42.5741 196.928V190.892H41.4461V200ZM50.8151 200.108C51.3071 200.108 51.6791 200.012 52.0271 199.82V198.872C51.7031 199.028 51.4271 199.1 51.0911 199.1C50.4791 199.1 50.0831 198.824 50.0831 198.104V194.492H52.0511V193.508H50.0831V191.6H48.9671V193.508H48.0911V194.492H48.9671V198.26C48.9671 199.604 49.7591 200.108 50.8151 200.108ZM53.8713 192.212H55.1313V191.036H53.8713V192.212ZM53.9433 200H55.0593V193.508H53.9433V200ZM60.3881 200.144C62.3561 200.144 63.8081 198.596 63.8081 196.76V196.736C63.8081 194.888 62.3681 193.364 60.4121 193.364C58.4441 193.364 56.9921 194.924 56.9921 196.76V196.784C56.9921 198.62 58.4201 200.144 60.3881 200.144ZM60.4121 199.148C59.1041 199.148 58.1321 198.068 58.1321 196.76V196.736C58.1321 195.44 59.0441 194.36 60.3881 194.36C61.6841 194.36 62.6561 195.44 62.6561 196.76V196.784C62.6561 198.08 61.7561 199.148 60.4121 199.148ZM65.6392 200H66.7672V196.304C66.7672 195.14 67.5352 194.396 68.5672 194.396C69.6232 194.396 70.2352 195.092 70.2352 196.244V200H71.3632V195.932C71.3632 194.408 70.4752 193.364 68.9272 193.364C67.8472 193.364 67.1992 193.928 66.7672 194.6V193.508H65.6392V200ZM76.3839 200.144C77.6079 200.144 78.4239 199.664 79.0599 198.932L78.3759 198.32C77.8479 198.86 77.2599 199.196 76.4079 199.196C75.3279 199.196 74.4039 198.464 74.2599 197.168H79.2879C79.2999 197.036 79.3119 196.94 79.3119 196.82C79.3119 194.924 78.2199 193.364 76.2519 193.364C74.4399 193.364 73.1199 194.876 73.1199 196.748V196.772C73.1199 198.788 74.5839 200.144 76.3839 200.144ZM74.2479 196.364C74.3799 195.176 75.1599 194.312 76.2399 194.312C77.4279 194.312 78.0759 195.248 78.1719 196.364H74.2479ZM81.0873 200H82.2153V196.304C82.2153 195.14 82.9833 194.396 84.0153 194.396C85.0713 194.396 85.6833 195.092 85.6833 196.244V200H86.8113V195.932C86.8113 194.408 85.9233 193.364 84.3753 193.364C83.2953 193.364 82.6473 193.928 82.2153 194.6V193.508H81.0873V200ZM94.7758 200.144C95.8798 200.144 96.5998 199.64 97.0438 199.076V200H98.1358V196.064C98.1358 195.236 97.9198 194.588 97.4638 194.132C96.9958 193.664 96.2878 193.412 95.3518 193.412C94.3798 193.412 93.6718 193.64 92.9638 193.964L93.2878 194.864C93.8758 194.588 94.4638 194.408 95.2198 194.408C96.3838 194.408 97.0558 194.984 97.0558 196.064V196.28C96.4918 196.112 95.9398 196.004 95.1358 196.004C93.5158 196.004 92.3878 196.724 92.3878 198.104V198.128C92.3878 199.448 93.5638 200.144 94.7758 200.144ZM95.0278 199.268C94.1998 199.268 93.5038 198.824 93.5038 198.068V198.044C93.5038 197.276 94.1518 196.784 95.2918 196.784C96.0238 196.784 96.6238 196.916 97.0678 197.06V197.624C97.0678 198.596 96.1678 199.268 95.0278 199.268ZM103.803 200.144C105.351 200.144 106.875 198.896 106.875 196.76V196.736C106.875 194.6 105.339 193.364 103.803 193.364C102.651 193.364 101.907 193.988 101.391 194.744V190.892H100.263V200H101.391V198.824C101.883 199.52 102.627 200.144 103.803 200.144ZM103.563 199.148C102.423 199.148 101.355 198.188 101.355 196.76V196.736C101.355 195.32 102.423 194.36 103.563 194.36C104.727 194.36 105.723 195.296 105.723 196.748V196.772C105.723 198.248 104.751 199.148 103.563 199.148ZM111.618 202.016C112.698 202.016 113.574 201.728 114.15 201.152C114.69 200.624 114.978 199.832 114.978 198.8V193.508H113.862V194.624C113.334 193.94 112.578 193.364 111.402 193.364C109.866 193.364 108.378 194.528 108.378 196.424V196.448C108.378 198.332 109.854 199.496 111.402 199.496C112.554 199.496 113.31 198.92 113.862 198.176V198.86C113.862 200.324 112.998 201.068 111.606 201.068C110.694 201.068 109.89 200.792 109.158 200.288L108.678 201.164C109.542 201.728 110.55 202.016 111.618 202.016ZM111.654 198.512C110.502 198.512 109.53 197.672 109.53 196.436V196.412C109.53 195.152 110.49 194.348 111.654 194.348C112.818 194.348 113.886 195.176 113.886 196.424V196.448C113.886 197.672 112.818 198.512 111.654 198.512ZM120.092 200.144C121.316 200.144 122.132 199.664 122.768 198.932L122.084 198.32C121.556 198.86 120.968 199.196 120.116 199.196C119.036 199.196 118.112 198.464 117.968 197.168H122.996C123.008 197.036 123.02 196.94 123.02 196.82C123.02 194.924 121.928 193.364 119.96 193.364C118.148 193.364 116.828 194.876 116.828 196.748V196.772C116.828 198.788 118.292 200.144 120.092 200.144ZM117.956 196.364C118.088 195.176 118.868 194.312 119.948 194.312C121.136 194.312 121.784 195.248 121.88 196.364H117.956ZM126.967 200.12C128.287 200.12 129.319 199.424 129.319 198.14V198.116C129.319 196.952 128.239 196.556 127.243 196.256C126.415 196.004 125.635 195.776 125.635 195.2V195.176C125.635 194.684 126.079 194.324 126.787 194.324C127.387 194.324 128.071 194.564 128.683 194.948L129.175 194.12C128.503 193.676 127.615 193.388 126.823 193.388C125.539 193.388 124.579 194.132 124.579 195.296V195.32C124.579 196.52 125.695 196.88 126.691 197.168C127.519 197.408 128.251 197.636 128.251 198.248V198.272C128.251 198.836 127.747 199.196 127.015 199.196C126.283 199.196 125.515 198.908 124.807 198.38L124.255 199.172C125.023 199.772 126.043 200.12 126.967 200.12ZM134.135 200.144C135.371 200.144 136.139 199.628 136.787 198.908L136.091 198.236C135.575 198.764 134.987 199.148 134.195 199.148C132.899 199.148 131.939 198.092 131.939 196.76V196.736C131.939 195.428 132.887 194.36 134.135 194.36C134.975 194.36 135.515 194.768 136.019 195.284L136.739 194.516C136.127 193.868 135.371 193.364 134.147 193.364C132.227 193.364 130.799 194.924 130.799 196.76V196.784C130.799 198.62 132.227 200.144 134.135 200.144ZM138.462 200H139.59V196.304C139.59 195.14 140.358 194.396 141.39 194.396C142.446 194.396 143.058 195.092 143.058 196.244V200H144.186V195.932C144.186 194.408 143.298 193.364 141.75 193.364C140.67 193.364 140.022 193.928 139.59 194.6V190.892H138.462V200ZM146.423 200H147.539V190.892H146.423V200ZM152.867 200.144C154.835 200.144 156.287 198.596 156.287 196.76V196.736C156.287 194.888 154.847 193.364 152.891 193.364C150.923 193.364 149.471 194.924 149.471 196.76V196.784C149.471 198.62 150.899 200.144 152.867 200.144ZM152.891 199.148C151.583 199.148 150.611 198.068 150.611 196.76V196.736C150.611 195.44 151.523 194.36 152.867 194.36C154.163 194.36 155.135 195.44 155.135 196.76V196.784C155.135 198.08 154.235 199.148 152.891 199.148ZM160.29 200.12C161.61 200.12 162.642 199.424 162.642 198.14V198.116C162.642 196.952 161.562 196.556 160.566 196.256C159.738 196.004 158.958 195.776 158.958 195.2V195.176C158.958 194.684 159.402 194.324 160.11 194.324C160.71 194.324 161.394 194.564 162.006 194.948L162.498 194.12C161.826 193.676 160.938 193.388 160.146 193.388C158.862 193.388 157.902 194.132 157.902 195.296V195.32C157.902 196.52 159.018 196.88 160.014 197.168C160.842 197.408 161.574 197.636 161.574 198.248V198.272C161.574 198.836 161.07 199.196 160.338 199.196C159.606 199.196 158.838 198.908 158.13 198.38L157.578 199.172C158.346 199.772 159.366 200.12 160.29 200.12ZM166.561 200.12C167.881 200.12 168.913 199.424 168.913 198.14V198.116C168.913 196.952 167.833 196.556 166.837 196.256C166.009 196.004 165.229 195.776 165.229 195.2V195.176C165.229 194.684 165.673 194.324 166.381 194.324C166.981 194.324 167.665 194.564 168.277 194.948L168.769 194.12C168.097 193.676 167.209 193.388 166.417 193.388C165.133 193.388 164.173 194.132 164.173 195.296V195.32C164.173 196.52 165.289 196.88 166.285 197.168C167.113 197.408 167.845 197.636 167.845 198.248V198.272C167.845 198.836 167.341 199.196 166.609 199.196C165.877 199.196 165.109 198.908 164.401 198.38L163.849 199.172C164.617 199.772 165.637 200.12 166.561 200.12ZM173.657 200.144C174.881 200.144 175.697 199.664 176.333 198.932L175.649 198.32C175.121 198.86 174.533 199.196 173.681 199.196C172.601 199.196 171.677 198.464 171.533 197.168H176.561C176.573 197.036 176.585 196.94 176.585 196.82C176.585 194.924 175.493 193.364 173.525 193.364C171.713 193.364 170.393 194.876 170.393 196.748V196.772C170.393 198.788 171.857 200.144 173.657 200.144ZM171.521 196.364C171.653 195.176 172.433 194.312 173.513 194.312C174.701 194.312 175.349 195.248 175.445 196.364H171.521ZM178.361 200H179.489V196.304C179.489 195.14 180.257 194.396 181.289 194.396C182.345 194.396 182.957 195.092 182.957 196.244V200H184.085V195.932C184.085 194.408 183.197 193.364 181.649 193.364C180.569 193.364 179.921 193.928 179.489 194.6V193.508H178.361V200Z" fill="#525252"/>
</svg>
