<svg width="230" height="270" viewBox="0 0 230 270" fill="none" xmlns="http://www.w3.org/2000/svg">
<rect width="230" height="270" rx="10" fill="white"/>
<path d="M70.5879 205.192C72.2979 205.192 73.6849 204.736 74.5969 203.824C75.4519 202.988 75.9079 201.734 75.9079 200.1V191.721H74.1409V193.488C73.3049 192.405 72.1079 191.493 70.2459 191.493C67.8139 191.493 65.4579 193.336 65.4579 196.338V196.376C65.4579 199.359 67.7949 201.202 70.2459 201.202C72.0699 201.202 73.2669 200.29 74.1409 199.112V200.195C74.1409 202.513 72.7729 203.691 70.5689 203.691C69.1249 203.691 67.8519 203.254 66.6929 202.456L65.9329 203.843C67.3009 204.736 68.8969 205.192 70.5879 205.192ZM70.6449 199.644C68.8209 199.644 67.2819 198.314 67.2819 196.357V196.319C67.2819 194.324 68.8019 193.051 70.6449 193.051C72.4879 193.051 74.1789 194.362 74.1789 196.338V196.376C74.1789 198.314 72.4879 199.644 70.6449 199.644ZM83.9101 202.228C85.8481 202.228 87.1401 201.468 88.1471 200.309L87.0641 199.34C86.2281 200.195 85.2971 200.727 83.9481 200.727C82.2381 200.727 80.7751 199.568 80.5471 197.516H88.5081C88.5271 197.307 88.5461 197.155 88.5461 196.965C88.5461 193.963 86.8171 191.493 83.7011 191.493C80.8321 191.493 78.7421 193.887 78.7421 196.851V196.889C78.7421 200.081 81.0601 202.228 83.9101 202.228ZM80.5281 196.243C80.7371 194.362 81.9721 192.994 83.6821 192.994C85.5631 192.994 86.5891 194.476 86.7411 196.243H80.5281ZM91.4142 202H93.1812V187.579H91.4142V202ZM101.314 202.228C103.252 202.228 104.544 201.468 105.551 200.309L104.468 199.34C103.632 200.195 102.701 200.727 101.352 200.727C99.6424 200.727 98.1794 199.568 97.9514 197.516H105.912C105.931 197.307 105.95 197.155 105.95 196.965C105.95 193.963 104.221 191.493 101.105 191.493C98.2364 191.493 96.1464 193.887 96.1464 196.851V196.889C96.1464 200.081 98.4644 202.228 101.314 202.228ZM97.9324 196.243C98.1414 194.362 99.3764 192.994 101.086 192.994C102.967 192.994 103.993 194.476 104.145 196.243H97.9324ZM108.667 202H110.453V197.953C110.453 194.97 112.163 193.431 114.367 193.431H114.481V191.55C112.581 191.455 111.175 192.633 110.453 194.286V191.721H108.667V202ZM116.849 202H118.635V196.148C118.635 194.305 119.851 193.127 121.485 193.127C123.157 193.127 124.126 194.229 124.126 196.053V202H125.912V195.559C125.912 193.146 124.506 191.493 122.055 191.493C120.345 191.493 119.319 192.386 118.635 193.45V191.721H116.849V202ZM132.665 202.171C133.444 202.171 134.033 202.019 134.584 201.715V200.214C134.071 200.461 133.634 200.575 133.102 200.575C132.133 200.575 131.506 200.138 131.506 198.998V193.279H134.622V191.721H131.506V188.7H129.739V191.721H128.352V193.279H129.739V199.245C129.739 201.373 130.993 202.171 132.665 202.171ZM143.495 189.669H145.49V187.807H143.495V189.669ZM143.609 202H145.376V191.721H143.609V202ZM148.949 202H150.735V196.148C150.735 194.305 151.951 193.127 153.585 193.127C155.257 193.127 156.226 194.229 156.226 196.053V202H158.012V195.559C158.012 193.146 156.606 191.493 154.155 191.493C152.445 191.493 151.419 192.386 150.735 193.45V191.721H148.949V202ZM66.4903 231.228C68.3143 231.228 69.4923 230.221 70.3093 229.043V231H72.0763V216.579H70.3093V222.583C69.5113 221.481 68.3333 220.493 66.4903 220.493C64.0203 220.493 61.6263 222.469 61.6263 225.851V225.889C61.6263 229.271 64.0393 231.228 66.4903 231.228ZM66.8513 229.651C65.0273 229.651 63.4503 228.15 63.4503 225.87V225.832C63.4503 223.495 64.9893 222.07 66.8513 222.07C68.6753 222.07 70.3473 223.59 70.3473 225.832V225.87C70.3473 228.131 68.6753 229.651 66.8513 229.651ZM80.0786 231.228C82.0166 231.228 83.3086 230.468 84.3156 229.309L83.2326 228.34C82.3966 229.195 81.4656 229.727 80.1166 229.727C78.4066 229.727 76.9436 228.568 76.7156 226.516H84.6766C84.6956 226.307 84.7146 226.155 84.7146 225.965C84.7146 222.963 82.9856 220.493 79.8696 220.493C77.0006 220.493 74.9106 222.887 74.9106 225.851V225.889C74.9106 229.081 77.2286 231.228 80.0786 231.228ZM76.6966 225.243C76.9056 223.362 78.1406 221.994 79.8506 221.994C81.7316 221.994 82.7576 223.476 82.9096 225.243H76.6966ZM87.4307 231H89.2167V226.953C89.2167 223.97 90.9267 222.431 93.1307 222.431H93.2447V220.55C91.3447 220.455 89.9387 221.633 89.2167 223.286V220.721H87.4307V231ZM105.803 231.095H107.361L111.028 220.265L114.714 231.095H116.272L121.174 217.168H119.255L115.493 228.302L111.826 217.13H110.306L106.639 228.302L102.896 217.168H100.901L105.803 231.095ZM127.305 231.228C130.421 231.228 132.72 228.777 132.72 225.87V225.832C132.72 222.906 130.44 220.493 127.343 220.493C124.227 220.493 121.928 222.963 121.928 225.87V225.908C121.928 228.815 124.189 231.228 127.305 231.228ZM127.343 229.651C125.272 229.651 123.733 227.941 123.733 225.87V225.832C123.733 223.78 125.177 222.07 127.305 222.07C129.357 222.07 130.896 223.78 130.896 225.87V225.908C130.896 227.96 129.471 229.651 127.343 229.651ZM140.198 231.228C142.155 231.228 143.371 230.411 144.397 229.271L143.295 228.207C142.478 229.043 141.547 229.651 140.293 229.651C138.241 229.651 136.721 227.979 136.721 225.87V225.832C136.721 223.761 138.222 222.07 140.198 222.07C141.528 222.07 142.383 222.716 143.181 223.533L144.321 222.317C143.352 221.291 142.155 220.493 140.217 220.493C137.177 220.493 134.916 222.963 134.916 225.87V225.908C134.916 228.815 137.177 231.228 140.198 231.228ZM146.954 231H148.74V225.148C148.74 223.305 149.956 222.127 151.59 222.127C153.262 222.127 154.231 223.229 154.231 225.053V231H156.017V224.559C156.017 222.146 154.611 220.493 152.16 220.493C150.45 220.493 149.424 221.386 148.74 222.45V216.579H146.954V231ZM163.872 231.228C165.81 231.228 167.102 230.468 168.109 229.309L167.026 228.34C166.19 229.195 165.259 229.727 163.91 229.727C162.2 229.727 160.737 228.568 160.509 226.516H168.47C168.489 226.307 168.508 226.155 168.508 225.965C168.508 222.963 166.779 220.493 163.663 220.493C160.794 220.493 158.704 222.887 158.704 225.851V225.889C158.704 229.081 161.022 231.228 163.872 231.228ZM160.49 225.243C160.699 223.362 161.934 221.994 163.644 221.994C165.525 221.994 166.551 223.476 166.703 225.243H160.49Z" fill="#525252"/>
<path d="M115.5 27.5028C115.5 25.5683 117.069 23.9914 119.002 24.0823C129.551 24.5787 139.889 27.3133 149.322 32.12C159.798 37.4575 168.861 45.1985 175.772 54.71C182.682 64.2215 187.244 75.2335 189.083 86.8456C190.922 98.4577 189.987 110.34 186.354 121.522C182.721 132.703 176.493 142.866 168.179 151.179C159.866 159.493 149.703 165.721 138.522 169.354C127.34 172.987 115.458 173.922 103.846 172.083C93.3883 170.426 83.4176 166.563 74.5913 160.763C72.9745 159.701 72.6318 157.503 73.7689 155.938C74.906 154.373 77.0919 154.034 78.7139 155.089C86.6419 160.242 95.5763 163.68 104.942 165.163C115.462 166.83 126.227 165.982 136.357 162.691C146.487 159.4 155.694 153.757 163.226 146.226C170.757 138.694 176.4 129.487 179.691 119.357C182.982 109.227 183.83 98.4617 182.163 87.9415C180.497 77.4214 176.365 67.4449 170.104 58.8278C163.843 50.2107 155.632 43.1977 146.142 38.3621C137.693 34.0573 128.445 31.587 119.001 31.0965C117.069 30.9962 115.5 29.4374 115.5 27.5028Z" fill="#4A7BF6"/>
<circle cx="115.5" cy="98.5" r="60" stroke="#EBF1FB" stroke-width="3"/>
<path d="M112.159 89H114.368V84.9625H116.98V83.0625H114.368V71.5912H112.373L102.659 83.3237L103.158 84.9625H112.159V89ZM105.367 83.0625L112.159 74.7737V83.0625H105.367ZM119.664 89H131.871V86.9337H122.989L127.288 83.205C130.328 80.5925 131.705 79.0725 131.705 76.4837V76.4362C131.705 73.5387 129.425 71.4725 126.243 71.4725C123.179 71.4725 121.564 72.8025 119.973 75.13L121.611 76.365C122.989 74.4887 124.2 73.515 126.053 73.515C127.858 73.515 129.33 74.7025 129.33 76.6262C129.33 78.2887 128.404 79.5712 125.839 81.8275L119.664 87.2187V89ZM97.9943 125H100.227V111.51L106.259 120.392H106.354L112.411 111.462V125H114.691V107.71H112.316L106.331 116.759L100.346 107.71H97.9943V125ZM119.349 109.586H121.842V107.259H119.349V109.586ZM119.491 125H121.7V112.151H119.491V125ZM126.166 125H128.399V117.685C128.399 115.381 129.919 113.909 131.961 113.909C134.051 113.909 135.263 115.286 135.263 117.566V125H137.495V116.949C137.495 113.932 135.738 111.866 132.674 111.866C130.536 111.866 129.254 112.982 128.399 114.312V112.151H126.166V125Z" fill="#355BBC"/>
</svg>
