<svg width="383" height="347" viewBox="0 0 383 347" fill="none" xmlns="http://www.w3.org/2000/svg">
<line x1="50" y1="289.75" x2="383" y2="289.75" stroke="#CECECE" stroke-width="0.5"/>
<line x1="50" y1="208.25" x2="383" y2="208.25" stroke="#CECECE" stroke-width="1.5"/>
<path d="M8.75597 213.144C10.616 213.144 11.912 211.98 11.912 210.252V210.228C11.912 208.512 10.58 207.528 8.89997 207.528C8.21597 207.528 7.74797 207.684 7.27997 207.876L7.44797 205.308H11.528V204.264H6.43997L6.18797 208.524L6.93197 209.016C7.42397 208.764 7.98797 208.56 8.69597 208.56C9.90797 208.56 10.76 209.244 10.76 210.276V210.3C10.76 211.344 9.95597 212.1 8.76797 212.1C7.90397 212.1 7.09997 211.656 6.35597 210.948L5.61197 211.776C6.41597 212.568 7.48397 213.144 8.75597 213.144ZM17.921 213H19.049V206.184L22.097 210.672H22.145L25.205 206.16V213H26.357V204.264H25.157L22.133 208.836L19.109 204.264H17.921V213ZM28.7706 205.212H30.0306V204.036H28.7706V205.212ZM28.8426 213H29.9586V206.508H28.8426V213ZM32.2753 213H33.4033V209.304C33.4033 208.14 34.1713 207.396 35.2033 207.396C36.2593 207.396 36.8713 208.092 36.8713 209.244V213H37.9993V208.932C37.9993 207.408 37.1113 206.364 35.5633 206.364C34.4833 206.364 33.8353 206.928 33.4033 207.6V206.508H32.2753V213Z" fill="#525252"/>
<line x1="50" y1="8.25" x2="383" y2="8.25" stroke="#CECECE" stroke-width="1.5"/>
<path d="M2.43703 13H3.57703V4.204H2.74903L0.553032 4.948L0.817032 5.884L2.43703 5.38V13ZM8.75597 13.144C10.616 13.144 11.912 11.98 11.912 10.252V10.228C11.912 8.512 10.58 7.528 8.89997 7.528C8.21597 7.528 7.74797 7.684 7.27997 7.876L7.44797 5.308H11.528V4.264H6.43997L6.18797 8.524L6.93197 9.016C7.42397 8.764 7.98797 8.56 8.69597 8.56C9.90797 8.56 10.76 9.244 10.76 10.276V10.3C10.76 11.344 9.95597 12.1 8.76797 12.1C7.90397 12.1 7.09997 11.656 6.35597 10.948L5.61197 11.776C6.41597 12.568 7.48397 13.144 8.75597 13.144ZM17.921 13H19.049V6.184L22.097 10.672H22.145L25.205 6.16V13H26.357V4.264H25.157L22.133 8.836L19.109 4.264H17.921V13ZM28.7706 5.212H30.0306V4.036H28.7706V5.212ZM28.8426 13H29.9586V6.508H28.8426V13ZM32.2753 13H33.4033V9.304C33.4033 8.14 34.1713 7.396 35.2033 7.396C36.2593 7.396 36.8713 8.092 36.8713 9.244V13H37.9993V8.932C37.9993 7.408 37.1113 6.364 35.5633 6.364C34.4833 6.364 33.8353 6.928 33.4033 7.6V6.508H32.2753V13Z" fill="#525252"/>
<line y1="-0.75" x2="333" y2="-0.75" transform="matrix(1 0 0 -1 50 108)" stroke="#355BBC" stroke-width="1.5" stroke-dasharray="5 5"/>
<path d="M3.09969 113H4.23969V104.204H3.41169L1.21569 104.948L1.47969 105.884L3.09969 105.38V113ZM10.1026 113.144C12.3706 113.144 13.8466 111.092 13.8466 108.632V108.608C13.8466 106.148 12.3826 104.12 10.1266 104.12C7.87062 104.12 6.39462 106.172 6.39462 108.632V108.656C6.39462 111.116 7.83462 113.144 10.1026 113.144ZM10.1266 112.1C8.57862 112.1 7.58262 110.48 7.58262 108.632V108.608C7.58262 106.748 8.56662 105.164 10.1026 105.164C11.6506 105.164 12.6466 106.772 12.6466 108.632V108.656C12.6466 110.504 11.6866 112.1 10.1266 112.1ZM19.861 113H20.989V106.184L24.037 110.672H24.085L27.145 106.16V113H28.297V104.264H27.097L24.073 108.836L21.049 104.264H19.861V113ZM30.7106 105.212H31.9706V104.036H30.7106V105.212ZM30.7826 113H31.8986V106.508H30.7826V113ZM34.2153 113H35.3433V109.304C35.3433 108.14 36.1113 107.396 37.1433 107.396C38.1993 107.396 38.8113 108.092 38.8113 109.244V113H39.9393V108.932C39.9393 107.408 39.0513 106.364 37.5033 106.364C36.4233 106.364 35.7753 106.928 35.3433 107.6V106.508H34.2153V113Z" fill="#525252"/>
<rect width="18" height="1.04673" rx="0.523364" transform="matrix(1 0 0 -1 346 290)" fill="#4A7BF6"/>
<path d="M346.65 318H347.778V311.184L350.826 315.672H350.874L353.934 311.16V318H355.086V309.264H353.886L350.862 313.836L347.838 309.264H346.65V318ZM360.487 318.144C362.455 318.144 363.907 316.596 363.907 314.76V314.736C363.907 312.888 362.467 311.364 360.511 311.364C358.543 311.364 357.091 312.924 357.091 314.76V314.784C357.091 316.62 358.519 318.144 360.487 318.144ZM360.511 317.148C359.203 317.148 358.231 316.068 358.231 314.76V314.736C358.231 313.44 359.143 312.36 360.487 312.36C361.783 312.36 362.755 313.44 362.755 314.76V314.784C362.755 316.08 361.855 317.148 360.511 317.148Z" fill="#525252"/>
<path d="M349.266 342H351.698V330.272H350.018L346.706 331.264L347.218 333.28L349.266 332.768V342ZM358.537 342.192C361.097 342.192 362.713 340.608 362.713 338.416V338.384C362.713 336.224 361.145 335.376 359.529 335.12L362.537 332.208V330.352H354.697V332.464H359.369L356.505 335.376L356.905 336.928H357.945C359.401 336.928 360.297 337.488 360.297 338.48V338.512C360.297 339.408 359.577 340 358.569 340C357.369 340 356.521 339.488 355.721 338.576L354.025 340.176C355.017 341.36 356.457 342.192 358.537 342.192Z" fill="#525252"/>
<path d="M303 149C303 146.239 305.239 144 308 144H316C318.761 144 321 146.239 321 149V290H303V149Z" fill="#4A7BF6"/>
<path d="M308.585 318.12C310.349 318.12 311.609 317.148 311.609 315.612V315.588C311.609 314.208 310.697 313.524 308.777 313.092C306.929 312.684 306.497 312.276 306.497 311.484V311.46C306.497 310.752 307.157 310.176 308.225 310.176C309.101 310.176 309.893 310.464 310.697 311.112L311.345 310.224C310.457 309.504 309.521 309.144 308.249 309.144C306.569 309.144 305.345 310.152 305.345 311.568V311.592C305.345 313.08 306.305 313.704 308.273 314.136C310.049 314.532 310.457 314.952 310.457 315.696V315.72C310.457 316.524 309.725 317.088 308.621 317.088C307.457 317.088 306.593 316.68 305.705 315.888L304.997 316.728C306.041 317.664 307.217 318.12 308.585 318.12ZM316.563 318.144C318.531 318.144 319.983 316.596 319.983 314.76V314.736C319.983 312.888 318.543 311.364 316.587 311.364C314.619 311.364 313.167 312.924 313.167 314.76V314.784C313.167 316.62 314.595 318.144 316.563 318.144ZM316.587 317.148C315.279 317.148 314.307 316.068 314.307 314.76V314.736C314.307 313.44 315.219 312.36 316.563 312.36C317.859 312.36 318.831 313.44 318.831 314.76V314.784C318.831 316.08 317.931 317.148 316.587 317.148Z" fill="#525252"/>
<path d="M306.258 342H308.69V330.272H307.01L303.698 331.264L304.21 333.28L306.258 332.768V342ZM311.177 342H319.753V339.872H314.585L316.585 338.304C318.649 336.688 319.641 335.712 319.641 333.792V333.76C319.641 331.6 318.041 330.192 315.657 330.192C313.577 330.192 312.473 331.04 311.337 332.608L313.065 333.984C313.929 332.912 314.569 332.384 315.497 332.384C316.441 332.384 317.129 332.944 317.129 333.968C317.129 334.944 316.553 335.6 315.081 336.832L311.177 340.048V342Z" fill="#525252"/>
<path d="M261 246.85C261 244.089 263.239 241.85 266 241.85H274C276.761 241.85 279 244.089 279 246.85V290H261V246.85Z" fill="#4A7BF6"/>
<path d="M266.513 318.12C268.277 318.12 269.537 317.148 269.537 315.612V315.588C269.537 314.208 268.625 313.524 266.705 313.092C264.857 312.684 264.425 312.276 264.425 311.484V311.46C264.425 310.752 265.085 310.176 266.153 310.176C267.029 310.176 267.821 310.464 268.625 311.112L269.273 310.224C268.385 309.504 267.449 309.144 266.177 309.144C264.497 309.144 263.273 310.152 263.273 311.568V311.592C263.273 313.08 264.233 313.704 266.201 314.136C267.977 314.532 268.385 314.952 268.385 315.696V315.72C268.385 316.524 267.653 317.088 266.549 317.088C265.385 317.088 264.521 316.68 263.633 315.888L262.925 316.728C263.969 317.664 265.145 318.12 266.513 318.12ZM273.399 318.144C274.503 318.144 275.223 317.64 275.667 317.076V318H276.759V314.064C276.759 313.236 276.543 312.588 276.087 312.132C275.619 311.664 274.911 311.412 273.975 311.412C273.003 311.412 272.295 311.64 271.587 311.964L271.911 312.864C272.499 312.588 273.087 312.408 273.843 312.408C275.007 312.408 275.679 312.984 275.679 314.064V314.28C275.115 314.112 274.563 314.004 273.759 314.004C272.139 314.004 271.011 314.724 271.011 316.104V316.128C271.011 317.448 272.187 318.144 273.399 318.144ZM273.651 317.268C272.823 317.268 272.127 316.824 272.127 316.068V316.044C272.127 315.276 272.775 314.784 273.915 314.784C274.647 314.784 275.247 314.916 275.691 315.06V315.624C275.691 316.596 274.791 317.268 273.651 317.268Z" fill="#525252"/>
<path d="M266.462 342H268.894V330.272H267.214L263.902 331.264L264.414 333.28L266.462 332.768V342ZM273.524 342H275.956V330.272H274.276L270.964 331.264L271.476 333.28L273.524 332.768V342Z" fill="#525252"/>
<path d="M218 154C218 151.239 220.239 149 223 149H231C233.761 149 236 151.239 236 154V290H218V154Z" fill="#4A7BF6"/>
<path d="M221.491 318H222.643V314.268H227.275V313.212H222.643V310.32H227.839V309.264H221.491V318ZM229.669 318H230.797V315.444C230.797 313.56 231.877 312.588 233.269 312.588H233.341V311.4C232.141 311.34 231.253 312.084 230.797 313.128V311.508H229.669V318Z" fill="#525252"/>
<path d="M220.368 342H222.8V330.272H221.12L217.808 331.264L218.32 333.28L220.368 332.768V342ZM230.518 342.192C233.622 342.192 235.686 339.536 235.686 336.176V336.144C235.686 332.768 233.622 330.16 230.55 330.16C227.462 330.16 225.382 332.816 225.382 336.176V336.208C225.382 339.584 227.414 342.192 230.518 342.192ZM230.55 339.984C228.95 339.984 227.91 338.336 227.91 336.176V336.144C227.91 333.984 228.934 332.368 230.518 332.368C232.102 332.368 233.158 334.032 233.158 336.176V336.208C233.158 338.352 232.15 339.984 230.55 339.984Z" fill="#525252"/>
<path d="M175.5 267.785C175.5 265.024 177.739 262.785 180.5 262.785H188.5C191.261 262.785 193.5 265.024 193.5 267.785V290H175.5V267.785Z" fill="#4A7BF6"/>
<path d="M176.689 318H179.797C182.545 318 184.441 316.092 184.441 313.632V313.608C184.441 311.148 182.545 309.264 179.797 309.264H176.689V318ZM179.797 310.32C181.885 310.32 183.229 311.772 183.229 313.632V313.656C183.229 315.528 181.885 316.944 179.797 316.944H177.841V310.32H179.797ZM189.448 318.144C191.416 318.144 192.868 316.596 192.868 314.76V314.736C192.868 312.888 191.428 311.364 189.472 311.364C187.504 311.364 186.052 312.924 186.052 314.76V314.784C186.052 316.62 187.48 318.144 189.448 318.144ZM189.472 317.148C188.164 317.148 187.192 316.068 187.192 314.76V314.736C187.192 313.44 188.104 312.36 189.448 312.36C190.744 312.36 191.716 313.44 191.716 314.76V314.784C191.716 316.08 190.816 317.148 189.472 317.148Z" fill="#525252"/>
<path d="M183.574 339.968C182.598 339.968 181.862 339.632 181.014 338.944L179.718 340.816C180.694 341.632 181.83 342.192 183.526 342.192C186.79 342.192 188.582 339.616 188.582 335.84V335.808C188.582 333.52 188.038 332.24 187.206 331.408C186.326 330.544 185.414 330.16 183.862 330.16C181.254 330.16 179.446 331.888 179.446 334.224V334.256C179.446 336.592 181.078 338 183.59 338C184.63 338 185.446 337.664 186.022 337.104H186.038C185.974 338.176 185.43 339.968 183.574 339.968ZM183.99 335.952C182.694 335.952 181.894 335.216 181.894 334.144V334.112C181.894 333.04 182.63 332.256 183.942 332.256C185.254 332.256 186.054 333.04 186.054 334.112V334.144C186.054 335.168 185.302 335.952 183.99 335.952Z" fill="#525252"/>
<path d="M133 113C133 110.239 135.239 108 138 108H146C148.761 108 151 110.239 151 113V290H133V113Z" fill="#4A7BF6"/>
<path d="M136.017 318H137.145V311.184L140.193 315.672H140.241L143.301 311.16V318H144.453V309.264H143.253L140.229 313.836L137.205 309.264H136.017V318ZM146.866 310.212H148.126V309.036H146.866V310.212ZM146.938 318H148.054V311.508H146.938V318Z" fill="#525252"/>
<path d="M142.007 342.16C144.567 342.16 146.487 340.896 146.487 338.752V338.72C146.487 337.328 145.767 336.576 144.567 335.968C145.479 335.424 146.087 334.656 146.087 333.408V333.376C146.087 331.568 144.439 330.192 142.007 330.192C139.559 330.192 137.911 331.584 137.911 333.376V333.408C137.911 334.656 138.519 335.424 139.447 335.968C138.199 336.528 137.511 337.36 137.511 338.784V338.816C137.511 340.832 139.431 342.16 142.007 342.16ZM142.007 335.136C140.951 335.136 140.247 334.512 140.247 333.648V333.616C140.247 332.864 140.919 332.224 142.007 332.224C143.095 332.224 143.751 332.88 143.751 333.632V333.664C143.751 334.528 143.047 335.136 142.007 335.136ZM142.007 340.128C140.679 340.128 139.895 339.456 139.895 338.624V338.592C139.895 337.664 140.791 337.104 142.007 337.104C143.207 337.104 144.103 337.664 144.103 338.592V338.624C144.103 339.472 143.319 340.128 142.007 340.128Z" fill="#525252"/>
<path d="M92 234.29C92 231.528 94.2386 229.29 97 229.29H105C107.761 229.29 110 231.528 110 234.29V290H92V234.29Z" fill="#4A7BF6"/>
<path d="M95.5559 318H98.6639C101.412 318 103.308 316.092 103.308 313.632V313.608C103.308 311.148 101.412 309.264 98.6639 309.264H95.5559V318ZM98.6639 310.32C100.752 310.32 102.096 311.772 102.096 313.632V313.656C102.096 315.528 100.752 316.944 98.6639 316.944H96.7079V310.32H98.6639ZM105.327 310.212H106.587V309.036H105.327V310.212ZM105.399 318H106.515V311.508H105.399V318Z" fill="#525252"/>
<path d="M97.8329 342H100.617L105.833 332.208V330.352H97.4969V332.48H103.049L97.8329 342Z" fill="#525252"/>
<path d="M51 286.626C51 283.865 53.2386 281.626 56 281.626H64C66.7614 281.626 69 283.865 69 286.626V290H51V286.626Z" fill="#4A7BF6"/>
<path d="M51.6496 318H52.7776V311.184L55.8256 315.672H55.8736L58.9336 311.16V318H60.0856V309.264H58.8856L55.8616 313.836L52.8376 309.264H51.6496V318ZM65.4872 318.144C67.4552 318.144 68.9072 316.596 68.9072 314.76V314.736C68.9072 312.888 67.4672 311.364 65.5112 311.364C63.5432 311.364 62.0912 312.924 62.0912 314.76V314.784C62.0912 316.62 63.5192 318.144 65.4872 318.144ZM65.5112 317.148C64.2032 317.148 63.2312 316.068 63.2312 314.76V314.736C63.2312 313.44 64.1432 312.36 65.4872 312.36C66.7832 312.36 67.7552 313.44 67.7552 314.76V314.784C67.7552 316.08 66.8552 317.148 65.5112 317.148Z" fill="#525252"/>
<path d="M60.1335 342.192C62.6455 342.192 64.5495 340.56 64.5495 338.192V338.144C64.5495 335.744 62.7735 334.448 60.4695 334.448C59.3815 334.448 58.5975 334.816 57.9895 335.312H57.9735C58.0535 334.192 58.5815 332.384 60.4215 332.384C61.4135 332.384 62.0535 332.736 62.8215 333.344L64.1175 331.44C63.0935 330.624 62.0695 330.16 60.5015 330.16C57.0615 330.16 55.4135 332.912 55.4135 336.512V336.544C55.4135 338.864 55.9415 340.096 56.7895 340.96C57.6055 341.76 58.6455 342.192 60.1335 342.192ZM60.0375 340.096C58.7415 340.096 57.9415 339.312 57.9415 338.288V338.256C57.9415 337.248 58.7095 336.496 60.0055 336.496C61.3175 336.496 62.1015 337.248 62.1015 338.256V338.304C62.1015 339.328 61.3495 340.096 60.0375 340.096Z" fill="#525252"/>
</svg>
